<?xml version="1.0" encoding="UTF-8"?>
<!DOCTYPE svg PUBLIC "-//W3C//DTD SVG 1.1//EN" "http://www.w3.org/Graphics/SVG/1.1/DTD/svg11.dtd">
<!-- Creator: CorelDRAW 2020 (64-Bit) -->
<svg xmlns="http://www.w3.org/2000/svg" xml:space="preserve" width="112.509mm" height="50.7998mm" version="1.1" style="shape-rendering:geometricPrecision; text-rendering:geometricPrecision; image-rendering:optimizeQuality; fill-rule:evenodd; clip-rule:evenodd"
viewBox="0 0 11250.92 5079.98"
 xmlns:xlink="http://www.w3.org/1999/xlink"
 xmlns:xodm="http://www.corel.com/coreldraw/odm/2003">
 <defs>
  <style type="text/css">
   <![CDATA[
    .fil9 {fill:#FEFEFE;fill-rule:nonzero}
    .fil0 {fill:#FDD27C;fill-rule:nonzero}
    .fil3 {fill:#F9B101;fill-rule:nonzero}
    .fil4 {fill:#EA557B;fill-rule:nonzero}
    .fil7 {fill:#E41D2D;fill-rule:nonzero}
    .fil1 {fill:#96C22B;fill-rule:nonzero}
    .fil5 {fill:#975186;fill-rule:nonzero}
    .fil6 {fill:#8B312F;fill-rule:nonzero}
    .fil2 {fill:#5CA53A;fill-rule:nonzero}
    .fil8 {fill:#0066B0;fill-rule:nonzero}
   ]]>
  </style>
 </defs>
 <g id="__x0023_Layer_x0020_2">
  <metadata id="CorelCorpID_0Corel-Layer"/>
  <g id="_2194018628496">
   <polygon class="fil0" points="2208.32,3420.06 2208.32,4526.65 2208.32,5079.99 2761.64,4526.65 3314.9,4526.65 3314.9,3420.06 "/>
   <polygon class="fil1" points="2208.32,3420.06 3314.9,3420.06 3314.9,2313.48 2208.32,2313.48 "/>
   <polygon class="fil2" points="3314.9,3420.06 4421.53,3420.06 4421.53,2313.48 3314.9,2313.48 "/>
   <path class="fil3" d="M4421.53 3973.35l0 -553.29 -1106.63 0 0 1106.59 553.3 0c336.18,0 553.33,-217.14 553.33,-553.3z"/>
   <polygon class="fil4" points="2208.32,2313.48 3314.9,2313.48 3314.9,1206.85 2208.32,1206.85 "/>
   <polygon class="fil5" points="3314.9,2313.48 4421.53,2313.48 4421.53,1206.85 3314.9,1206.85 "/>
   <polygon class="fil6" points="3314.9,1206.85 4421.53,1206.85 4421.53,100.23 3314.9,100.23 "/>
   <polygon class="fil7" points="2484.96,100.23 2208.32,376.92 2208.32,1206.85 3314.9,1206.85 3314.9,100.23 "/>
   <path class="fil8" d="M1931.67 100.23l-1936.56 0 0 3873.12c0,336.16 217.13,553.3 553.29,553.3l553.33 0 553.29 0 553.3 553.34 0 -4703.07 -276.65 -276.69z"/>
   <path class="fil9" d="M1219.75 732.19l0 1222.27c-0.72,0 -1.34,0.18 -1.85,0.18 -151.38,0 -273.94,-122.76 -273.94,-273.97l0 -1222.32c0.66,0 1.31,-0.13 1.82,-0.13 151.38,0 273.97,122.83 273.97,273.97zm425.73 -216.32l0 0c-151.28,0 -273.93,122.59 -273.93,273.84l0 609.61c0.65,0 1.27,0.1 1.78,0.1 150.08,0 271.91,-120.77 273.73,-270.4l0.24 0 0 -613.01c-0.65,0 -1.34,-0.14 -1.82,-0.14zm-1127.24 0l0 0c-0.48,0 -1.03,0.14 -1.82,0.14l0 613.01 0.27 0c1.86,149.63 123.58,270.4 273.66,270.4 0.52,0 1.34,-0.1 1.82,-0.1l0 -609.61c0,-151.25 -122.55,-273.84 -273.93,-273.84z"/>
   <polygon class="fil8" points="4981.75,127.62 5077.64,127.62 5183.89,298.56 5290.15,127.62 5386.03,127.62 5386.03,531.89 5297.66,531.89 5297.66,267.96 5183.89,440.65 5181.59,440.65 5068.95,269.68 5068.95,531.89 4981.75,531.89 "/>
   <path class="fil8" d="M5453.4 329.76c0,-114.94 90.67,-209.07 215.41,-209.07 124.76,0 214.26,92.97 214.26,209.07 0,114.92 -90.67,209.06 -215.43,209.06 -124.74,0 -214.24,-92.99 -214.24,-209.06zm336.7 0l0 0c0,-69.33 -50.83,-127.06 -122.46,-127.06 -71.6,0 -121.27,56.59 -121.27,127.06 0,69.29 50.82,127.05 122.44,127.05 71.61,0 121.29,-56.59 121.29,-127.05z"/>
   <path class="fil8" d="M5934.48 329.76c0,-114.94 86.62,-209.07 210.8,-209.07 76.24,0 118.97,28.86 156.51,65.82l-53.12 61.23c-31.2,-28.3 -57.76,-45.04 -103.97,-45.04 -68.14,0 -117.23,56.59 -117.23,127.06 0,69.29 47.92,127.05 117.23,127.05 46.21,0 74.51,-18.5 106.27,-47.36l56.59 60.64c-41.58,44.48 -87.79,68.73 -165.74,68.73 -118.97,0 -207.34,-91.83 -207.34,-209.06z"/>
   <polygon class="fil8" points="6369.82,127.62 6458.75,127.62 6458.75,304.33 6622.84,127.62 6730.25,127.62 6565.65,299.15 6737.77,531.89 6630.93,531.89 6505.55,359.79 6458.75,408.28 6458.75,531.89 6369.82,531.89 "/>
   <path class="fil8" d="M6739.11 329.76c0,-114.94 90.67,-209.07 215.38,-209.07 124.75,0 214.29,92.97 214.29,209.07 0,114.92 -90.67,209.06 -215.42,209.06 -124.75,0 -214.25,-92.99 -214.25,-209.06zm336.67 0l0 0c0,-69.33 -50.83,-127.06 -122.42,-127.06 -71.62,0 -121.28,56.59 -121.28,127.06 0,69.29 50.82,127.05 122.41,127.05 71.63,0 121.29,-56.59 121.29,-127.05z"/>
   <path class="fil8" d="M7237.32 127.62l187.72 0c46.2,0 82.57,12.7 105.67,35.8 18.5,18.5 27.73,41.01 27.73,69.87 0,45.64 -24.27,71.04 -53.12,87.22 46.77,17.9 75.64,45.05 75.64,100.49 0,73.92 -60.06,110.89 -151.32,110.89l-192.32 0 0 -404.27zm168.64 163.43l0 0c39.3,0 64.11,-12.7 64.11,-43.89 0,-26.57 -20.8,-41.58 -58.31,-41.58l-87.79 0 0 85.47 81.99 0zm23.68 162.88l0 0c39.3,0 62.94,-13.87 62.94,-45.06 0,-27.15 -20.21,-43.9 -65.82,-43.9l-102.79 0 0 88.96 105.67 0z"/>
   <path class="fil8" d="M7627.22 329.76c0,-114.94 86.62,-209.07 210.82,-209.07 76.22,0 118.95,28.86 156.49,65.82l-53.12 61.23c-31.2,-28.3 -57.76,-45.04 -103.96,-45.04 -68.15,0 -117.23,56.59 -117.23,127.06 0,69.29 47.91,127.05 117.23,127.05 46.2,0 74.51,-18.5 106.26,-47.36l56.59 60.64c-41.56,44.48 -87.79,68.73 -165.73,68.73 -118.98,0 -207.35,-91.83 -207.35,-209.06z"/>
   <polygon class="fil8" points="8068.77,127.62 8157.69,127.62 8157.69,304.33 8321.73,127.62 8429.15,127.62 8264.55,299.15 8436.63,531.89 8329.8,531.89 8204.5,359.79 8157.69,408.28 8157.69,531.89 8068.77,531.89 "/>
   <polygon class="fil8" points="8844.1,531.89 8756.32,531.89 8756.32,266.8 8579.6,531.89 8495.87,531.89 8495.87,127.62 8583.66,127.62 8583.66,392.7 8761.53,127.62 8844.1,127.62 "/>
   <path class="fil8" d="M9282.84 531.89l-87.79 0 0 -265.09 -176.71 265.09 -83.74 0 0 -404.27 87.79 0 0 265.08 177.88 -265.08 82.57 0 0 404.27zm-269.68 -522.67l0 0 51.38 -9.23c7.51,23.68 21.38,38.68 45.64,38.68 24.23,0 38.1,-15 45.61,-38.68l51.41 9.23c-8.1,55.44 -43.89,87.79 -97.02,87.79 -53.12,0 -88.96,-32.35 -97.02,-87.79z"/>
   <polygon class="fil8" points="5070.7,1224.84 4981.75,1224.84 4981.75,820.58 5264.16,820.58 5264.16,900.87 5070.7,900.87 "/>
   <path class="fil8" d="M5288.46 1022.72c0,-114.94 90.67,-209.07 215.4,-209.07 124.75,0 214.27,92.98 214.27,209.07 0,114.92 -90.67,209.05 -215.42,209.05 -124.75,0 -214.25,-92.97 -214.25,-209.05zm336.69 0l0 0c0,-69.31 -50.83,-127.07 -122.44,-127.07 -71.62,0 -121.28,56.61 -121.28,127.07 0,69.31 50.83,127.04 122.43,127.04 71.61,0 121.29,-56.59 121.29,-127.04z"/>
   <path class="fil8" d="M5767.02 1022.72c0,-114.94 86.62,-209.07 210.8,-209.07 76.23,0 118.95,28.87 156.5,65.84l-53.13 61.22c-31.19,-28.31 -57.76,-45.06 -103.95,-45.06 -68.16,0 -117.23,56.61 -117.23,127.07 0,69.31 47.92,127.04 117.23,127.04 46.19,0 74.5,-18.47 106.25,-47.34l56.59 60.64c-41.56,44.46 -87.77,68.71 -165.72,68.71 -118.99,0 -207.34,-91.82 -207.34,-209.05z"/>
   <path class="fil8" d="M6484.17 820.58l96.48 0 -155.41 312.44c-35.21,70.46 -75.64,98.17 -132.25,98.17 -34.64,0 -61.79,-9.23 -87.2,-23.67l34.64 -65.25c16.17,9.82 32.34,13.28 47.95,13.28 16.16,0 34.64,-7.52 50.82,-32.35l-161.71 -302.62 99.32 0 109.75 213.69 97.61 -213.69z"/>
   <path class="fil8" d="M7192.5 817.69l82.02 0 173.24 407.15 -92.97 0 -36.96 -90.67 -170.94 0 -36.97 90.67 -90.67 0 173.25 -407.15zm93.55 237.94l0 0 -53.71 -131.1 -53.71 131.1 107.42 0z"/>
   <path class="fil8" d="M7496.22 820.58l165.18 0c96.44,0 154.74,57.17 154.74,140.91 0,93.57 -72.75,142.07 -163.43,142.07l-67.57 0 0 121.28 -88.92 0 0 -404.26zm159.38 203.87l0 0c44.48,0 70.46,-26.56 70.46,-62.37 0,-39.87 -27.7,-61.21 -72.18,-61.21l-68.74 0 0 123.58 70.46 0z"/>
   <path class="fil8" d="M7860.79 1022.72c0,-114.94 86.62,-209.07 210.83,-209.07 76.22,0 118.94,28.87 156.49,65.84l-53.13 61.22c-31.19,-28.31 -57.75,-45.06 -103.95,-45.06 -68.16,0 -117.23,56.61 -117.23,127.07 0,69.31 47.91,127.04 117.23,127.04 46.2,0 74.51,-18.47 106.25,-47.34l56.6 60.64c-41.56,44.46 -87.8,68.71 -165.73,68.71 -118.98,0 -207.36,-91.82 -207.36,-209.05z"/>
   <polygon class="fil8" points="8395.76,902.58 8272.76,902.58 8272.76,820.58 8607.71,820.58 8607.71,902.58 8484.71,902.58 8484.71,1224.84 8395.76,1224.84 "/>
   <path class="fil8" d="M8678.55 820.58l187.69 0c46.23,0 82.61,12.71 105.7,35.81 18.47,18.48 27.74,41.01 27.74,69.87 0,45.63 -24.27,71.04 -53.16,87.21 46.81,17.91 75.66,45.06 75.66,100.48 0,73.93 -60.05,110.89 -151.3,110.89l-192.33 0 0 -404.26zm168.64 163.44l0 0c39.27,0 64.11,-12.7 64.11,-43.89 0,-26.56 -20.79,-41.6 -58.34,-41.6l-87.79 0 0 85.49 82.02 0zm23.69 162.87l0 0c39.25,0 62.93,-13.87 62.93,-45.05 0,-27.15 -20.21,-43.89 -65.82,-43.89l-102.82 0 0 88.94 105.71 0z"/>
   <polygon class="fil8" points="9089.96,820.58 9394.89,820.58 9394.89,899.7 9178.34,899.7 9178.34,981.7 9368.91,981.7 9368.91,1060.83 9178.34,1060.83 9178.34,1145.73 9397.81,1145.73 9397.81,1224.84 9089.96,1224.84 "/>
   <polygon class="fil8" points="9478.6,820.58 9567.55,820.58 9567.55,980.55 9731.56,980.55 9731.56,820.58 9820.52,820.58 9820.52,1224.84 9731.56,1224.84 9731.56,1062.56 9567.55,1062.56 9567.55,1224.84 9478.6,1224.84 "/>
   <polygon class="fil8" points="9915.51,820.58 10004.44,820.58 10004.44,980.55 10168.48,980.55 10168.48,820.58 10257.4,820.58 10257.4,1224.84 10168.48,1224.84 10168.48,1062.56 10004.44,1062.56 10004.44,1224.84 9915.51,1224.84 "/>
   <path class="fil8" d="M10350.34 820.58l88.95 0 0 137.46 86.04 0c93.56,0 147.85,51.96 147.85,131.1 0,83.16 -58.9,135.7 -153.62,135.7l-169.22 0 0 -404.26zm88.95 213.69l0 0 0 110.29 79.11 0c43.89,0 66.41,-19.04 66.41,-56.58 0,-34.08 -22.52,-53.71 -67,-53.71l-78.52 0zm278.95 -213.69l0 0 88.92 0 0 404.26 -88.92 0 0 -404.26z"/>
   <path class="fil8" d="M11246.07 1224.84l-87.79 0 0 -265.08 -176.71 265.08 -83.74 0 0 -404.26 87.79 0 0 265.1 177.87 -265.1 82.58 0 0 404.26zm-269.68 -522.65l0 0 51.37 -9.25c7.52,23.68 21.38,38.7 45.65,38.7 24.23,0 38.09,-15.02 45.61,-38.7l51.41 9.25c-8.1,55.43 -43.9,87.79 -97.02,87.79 -53.13,0 -88.96,-32.36 -97.02,-87.79z"/>
   <polygon class="fil8" points="4981.75,1513.55 5319.04,1513.55 5319.04,1917.81 5230.1,1917.81 5230.1,1593.84 5070.7,1593.84 5070.7,1917.81 4981.75,1917.81 "/>
   <path class="fil8" d="M5384.69 1715.69c0,-114.94 86.62,-209.07 210.79,-209.07 76.21,0 118.96,28.88 156.49,65.84l-53.13 61.23c-31.18,-28.32 -57.76,-45.07 -103.95,-45.07 -68.15,0 -117.23,56.61 -117.23,127.07 0,69.3 47.94,127.05 117.23,127.05 46.19,0 74.51,-18.48 106.27,-47.35l56.59 60.65c-41.58,44.46 -87.77,68.7 -165.74,68.7 -118.98,0 -207.32,-91.82 -207.32,-209.05z"/>
   <polygon class="fil8" points="6166.44,1917.81 6078.65,1917.81 6078.65,1652.73 5901.94,1917.81 5818.21,1917.81 5818.21,1513.55 5905.99,1513.55 5905.99,1778.65 6083.87,1513.55 6166.44,1513.55 "/>
   <polygon class="fil8" points="6373.52,1712.22 6238.37,1513.55 6342.32,1513.55 6427.23,1644.65 6512.7,1513.55 6613.81,1513.55 6478.64,1711.07 6619.57,1917.81 6515.6,1917.81 6424.93,1779.21 6333.68,1917.81 6232.61,1917.81 "/>
   <path class="fil8" d="M6634.19 1715.69c0,-114.94 90.67,-209.07 215.42,-209.07 124.76,0 214.26,92.99 214.26,209.07 0,114.91 -90.68,209.05 -215.39,209.05 -124.75,0 -214.29,-92.97 -214.29,-209.05zm336.71 0l0 0c0,-69.31 -50.83,-127.07 -122.42,-127.07 -71.62,0 -121.29,56.61 -121.29,127.07 0,69.3 50.8,127.05 122.42,127.05 71.63,0 121.29,-56.59 121.29,-127.05z"/>
   <path class="fil8" d="M7461.39 1513.55l0 404.26 -88.96 0 0 -323.97 -116.65 0 0 30.6c0,237.95 -38.68,298.59 -131.1,298.59 -14.41,0 -35.79,-2.32 -46.78,-5.22l5.77 -73.34c4.05,0.58 8.1,1.17 13.87,1.17 47.94,0 75.09,-30.62 75.09,-248.33l0 -83.76 288.76 0z"/>
   <path class="fil8" d="M7525.91 1715.69c0,-114.94 90.67,-209.07 215.38,-209.07 124.76,0 214.29,92.99 214.29,209.07 0,114.91 -90.67,209.05 -215.42,209.05 -124.75,0 -214.25,-92.97 -214.25,-209.05zm336.67 0l0 0c0,-69.31 -50.83,-127.07 -122.42,-127.07 -71.62,0 -121.29,56.61 -121.29,127.07 0,69.3 50.83,127.05 122.42,127.05 71.63,0 121.29,-56.59 121.29,-127.05z"/>
   <polygon class="fil8" points="8111.08,1917.81 8022.16,1917.81 8022.16,1513.55 8304.58,1513.55 8304.58,1593.84 8111.08,1593.84 "/>
   <path class="fil8" d="M8315.24 1715.69c0,-114.94 90.68,-209.07 215.39,-209.07 124.75,0 214.29,92.99 214.29,209.07 0,114.91 -90.67,209.05 -215.42,209.05 -124.75,0 -214.26,-92.97 -214.26,-209.05zm336.68 0l0 0c0,-69.31 -50.83,-127.07 -122.42,-127.07 -71.62,0 -121.28,56.61 -121.28,127.07 0,69.3 50.82,127.05 122.41,127.05 71.63,0 121.29,-56.59 121.29,-127.05z"/>
   <polygon class="fil8" points="8825.3,1696.62 9003.17,1696.62 9003.17,1780.95 8825.3,1780.95 "/>
   <polygon class="fil8" points="4981.75,2206.51 5319.04,2206.51 5319.04,2610.78 5230.1,2610.78 5230.1,2286.79 5070.7,2286.79 5070.7,2610.78 4981.75,2610.78 "/>
   <polygon class="fil8" points="5409.06,2206.51 5713.98,2206.51 5713.98,2285.65 5497.41,2285.65 5497.41,2367.63 5688,2367.63 5688,2446.77 5497.41,2446.77 5497.41,2531.66 5716.86,2531.66 5716.86,2610.78 5409.06,2610.78 "/>
   <path class="fil8" d="M5767.41 2530.51l38.13 0c30.03,-69.88 44.48,-138.62 44.48,-276.65l0 -47.35 293.94 0 0 324 48.53 0 -11.57 164.59 -74.49 0 0 -84.32 -252.94 0 -5.79 84.32 -80.29 0 0 -164.59zm168.06 -243.72l0 0 0 40.99c0,85.49 -13.28,146.7 -36.37,202.73l155.94 0 0 -243.72 -119.57 0z"/>
   <path class="fil8" d="M6394.42 2203.62l82.01 0 173.28 407.16 -92.98 0 -37.01 -90.67 -170.93 0 -36.96 90.67 -90.67 0 173.26 -407.16zm93.56 237.93l0 0 -53.71 -131.07 -53.71 131.07 107.42 0z"/>
   <polygon class="fil8" points="6785.74,2610.78 6696.79,2610.78 6696.79,2206.51 6979.2,2206.51 6979.2,2286.79 6785.74,2286.79 "/>
   <path class="fil8" d="M6991.18 2408.64c0,-114.93 90.67,-209.05 215.42,-209.05 124.75,0 214.26,92.99 214.26,209.05 0,114.93 -90.68,209.07 -215.43,209.07 -124.75,0 -214.25,-92.99 -214.25,-209.07zm336.71 0l0 0c0,-69.29 -50.83,-127.05 -122.46,-127.05 -71.62,0 -121.28,56.59 -121.28,127.05 0,69.31 50.83,127.05 122.45,127.05 71.59,0 121.29,-56.6 121.29,-127.05z"/>
   <polygon class="fil8" points="7576.39,2610.78 7487.43,2610.78 7487.43,2206.51 7769.84,2206.51 7769.84,2286.79 7576.39,2286.79 "/>
   <polygon class="fil8" points="8181.47,2610.78 8093.68,2610.78 8093.68,2345.7 7916.97,2610.78 7833.24,2610.78 7833.24,2206.51 7921.02,2206.51 7921.02,2471.6 8098.9,2206.51 8181.47,2206.51 "/>
   <path class="fil8" d="M8507.5 2460.05c-27.14,13.28 -65.82,30.03 -106.83,30.03 -80.27,0 -135.7,-42.16 -135.7,-135.73l0 -147.84 88.92 0 0 121.86c0,50.24 19.63,78.55 65.28,78.55 35.79,0 69.87,-11.56 88.33,-25.99l0 -174.42 88.96 0 0 404.27 -88.96 0 0 -150.73z"/>
   <polygon class="fil8" points="8692.28,2206.51 8997.2,2206.51 8997.2,2285.65 8780.65,2285.65 8780.65,2367.63 8971.22,2367.63 8971.22,2446.77 8780.65,2446.77 8780.65,2531.66 9000.12,2531.66 9000.12,2610.78 8692.28,2610.78 "/>
   <path class="fil8" d="M9048 2408.64c0,-114.93 86.62,-209.05 210.79,-209.05 76.25,0 118.98,28.88 156.52,65.84l-53.13 61.2c-31.19,-28.29 -57.75,-45.04 -103.98,-45.04 -68.13,0 -117.24,56.59 -117.24,127.05 0,69.31 47.95,127.05 117.24,127.05 46.23,0 74.51,-18.46 106.28,-47.35l56.6 60.65c-41.6,44.46 -87.79,68.72 -165.76,68.72 -118.95,0 -207.32,-91.84 -207.32,-209.07z"/>
   <polygon class="fil8" points="9478.36,2206.51 9567.31,2206.51 9567.31,2383.24 9731.32,2206.51 9838.74,2206.51 9674.15,2378.03 9846.26,2610.78 9739.42,2610.78 9614.09,2438.67 9567.31,2487.2 9567.31,2610.78 9478.36,2610.78 "/>
   <polygon class="fil8" points="10243.78,2610.78 10155.99,2610.78 10155.99,2345.7 9979.24,2610.78 9895.5,2610.78 9895.5,2206.51 9983.29,2206.51 9983.29,2471.6 10161.17,2206.51 10243.78,2206.51 "/>
   <path class="fil8" d="M10687.01 2610.78l-87.79 0 0 -265.08 -176.71 265.08 -83.74 0 0 -404.27 87.79 0 0 265.09 177.88 -265.09 82.57 0 0 404.27zm-269.71 -522.66l0 0 51.4 -9.25c7.52,23.68 21.39,38.71 45.61,38.71 24.27,0 38.13,-15.03 45.65,-38.71l51.41 9.25c-8.1,55.44 -43.9,87.79 -97.06,87.79 -53.12,0 -88.92,-32.35 -97.01,-87.79z"/>
   <path class="fil8" d="M5250.31 2899.47l96.46 0 -155.37 312.44c-35.23,70.46 -75.65,98.19 -132.26,98.19 -34.65,0 -61.78,-9.25 -87.21,-23.68l34.67 -65.28c16.16,9.84 32.32,13.3 47.94,13.3 16.16,0 34.63,-7.51 50.81,-32.34l-161.69 -302.63 99.31 0 109.74 213.69 97.6 -213.69z"/>
   <polygon class="fil8" points="5399.48,2899.47 5488.42,2899.47 5488.42,3059.45 5652.44,3059.45 5652.44,2899.47 5741.37,2899.47 5741.37,3303.75 5652.44,3303.75 5652.44,3141.46 5488.42,3141.46 5488.42,3303.75 5399.48,3303.75 "/>
   <polygon class="fil8" points="6188.33,3303.75 6100.55,3303.75 6100.55,3038.67 5923.84,3303.75 5840.08,3303.75 5840.08,2899.47 5927.87,2899.47 5927.87,3164.55 6105.75,2899.47 6188.33,2899.47 "/>
   <path class="fil8" d="M6288.77 2899.47l187.71 0c46.19,0 82.59,12.7 105.68,35.82 18.51,18.48 27.74,40.99 27.74,69.87 0,45.62 -24.27,71.04 -53.13,87.22 46.77,17.88 75.64,45.03 75.64,100.49 0,73.92 -60.06,110.88 -151.33,110.88l-192.31 0 0 -404.28zm168.63 163.45l0 0c39.29,0 64.1,-12.72 64.1,-43.9 0,-26.56 -20.78,-41.58 -58.3,-41.58l-87.79 0 0 85.48 81.99 0zm23.68 162.86l0 0c39.29,0 62.96,-13.87 62.96,-45.07 0,-27.12 -20.22,-43.87 -65.84,-43.87l-102.79 0 0 88.94 105.67 0z"/>
   <polygon class="fil8" points="6705.13,2899.47 7010.06,2899.47 7010.06,2978.6 6793.5,2978.6 6793.5,3060.6 6984.08,3060.6 6984.08,3139.72 6793.5,3139.72 6793.5,3224.61 7012.97,3224.61 7012.97,3303.75 6705.13,3303.75 "/>
   <path class="fil8" d="M7097.57 2899.47l165.18 0c96.47,0 154.78,57.18 154.78,140.92 0,93.55 -72.76,142.08 -163.43,142.08l-67.57 0 0 121.28 -88.96 0 0 -404.28zm159.41 203.88l0 0c44.48,0 70.46,-26.59 70.46,-62.38 0,-39.85 -27.73,-61.23 -72.17,-61.23l-68.74 0 0 123.61 70.45 0z"/>
   <path class="fil8" d="M7465.78 3101.61c0,-114.93 86.62,-209.07 210.82,-209.07 76.23,0 118.95,28.88 156.5,65.84l-53.13 61.21c-31.19,-28.28 -57.76,-45.03 -103.95,-45.03 -68.16,0 -117.23,56.59 -117.23,127.05 0,69.29 47.91,127.05 117.23,127.05 46.19,0 74.5,-18.48 106.25,-47.36l56.59 60.64c-41.56,44.48 -87.78,68.75 -165.72,68.75 -118.99,0 -207.36,-91.84 -207.36,-209.08z"/>
   <polygon class="fil8" points="8244.83,3303.75 8157.04,3303.75 8157.04,3038.67 7980.33,3303.75 7896.59,3303.75 7896.59,2899.47 7984.38,2899.47 7984.38,3164.55 8162.25,2899.47 8244.83,2899.47 "/>
   <polygon class="fil8" points="8429.6,2981.49 8306.6,2981.49 8306.6,2899.47 8641.55,2899.47 8641.55,2981.49 8518.52,2981.49 8518.52,3303.75 8429.6,3303.75 "/>
   <polygon class="fil8" points="8702.44,2899.47 9007.36,2899.47 9007.36,2978.6 8790.77,2978.6 8790.77,3060.6 8981.38,3060.6 8981.38,3139.72 8790.77,3139.72 8790.77,3224.61 9010.25,3224.61 9010.25,3303.75 8702.44,3303.75 "/>
   <polygon class="fil8" points="9182.32,2981.49 9059.29,2981.49 9059.29,2899.47 9394.28,2899.47 9394.28,2981.49 9271.24,2981.49 9271.24,3303.75 9182.32,3303.75 "/>
   <path class="fil8" d="M6563.77 1144.56l38.09 0c30.03,-69.87 44.48,-138.59 44.48,-276.62l0 -47.36 293.98 0 0 323.98 48.49 0 -11.53 164.6 -74.5 0 0 -84.32 -252.97 0 -5.77 84.32 -80.27 0 0 -164.6zm168.06 -243.69l0 0 0 40.99c0,85.47 -13.28,146.7 -36.41,202.7l155.94 0 0 -243.69 -119.53 0z"/>
  </g>
 </g>
</svg>
