<?xml version="1.0" encoding="UTF-8"?>
<!DOCTYPE svg PUBLIC "-//W3C//DTD SVG 1.1//EN" "http://www.w3.org/Graphics/SVG/1.1/DTD/svg11.dtd">
<!-- Creator: CorelDRAW 2020 (64-Bit) -->
<svg xmlns="http://www.w3.org/2000/svg" xml:space="preserve" width="162.56mm" height="91.4398mm" version="1.1" style="shape-rendering:geometricPrecision; text-rendering:geometricPrecision; image-rendering:optimizeQuality; fill-rule:evenodd; clip-rule:evenodd"
viewBox="0 0 16255.98 9143.98"
 xmlns:xlink="http://www.w3.org/1999/xlink"
 xmlns:xodm="http://www.corel.com/coreldraw/odm/2003">
 <defs>
  <style type="text/css">
   <![CDATA[
    .fil7 {fill:#72498A;fill-rule:nonzero}
    .fil10 {fill:#8A4967;fill-rule:nonzero}
    .fil6 {fill:#A8A8A8;fill-rule:nonzero}
    .fil2 {fill:#D7D7DB;fill-rule:nonzero}
    .fil1 {fill:#E0E0E0;fill-rule:nonzero}
    .fil8 {fill:#FF7AB9;fill-rule:nonzero}
    .fil3 {fill:#FFC75E;fill-rule:nonzero}
    .fil4 {fill:#FFDEE8;fill-rule:nonzero}
    .fil0 {fill:white;fill-rule:nonzero}
    .fil5 {fill:url(#id0)}
    .fil9 {fill:url(#id1)}
    .fil20 {fill:url(#id2)}
    .fil13 {fill:url(#id3)}
    .fil12 {fill:url(#id4)}
    .fil18 {fill:url(#id5)}
    .fil16 {fill:url(#id6)}
    .fil15 {fill:url(#id7)}
    .fil19 {fill:url(#id8)}
    .fil17 {fill:url(#id9)}
    .fil14 {fill:url(#id10)}
    .fil11 {fill:url(#id11)}
   ]]>
  </style>
  <linearGradient id="id0" gradientUnits="userSpaceOnUse" x1="2499.95" y1="4881.77" x2="14183.35" y2="4881.77">
   <stop offset="0" style="stop-opacity:1; stop-color:#6A5887"/>
   <stop offset="1" style="stop-opacity:1; stop-color:#9C3655"/>
  </linearGradient>
  <linearGradient id="id1" gradientUnits="userSpaceOnUse" x1="4317.7" y1="2096.08" x2="4317.7" y2="-147.18">
   <stop offset="0" style="stop-opacity:1; stop-color:#F550AB"/>
   <stop offset="1" style="stop-opacity:1; stop-color:#FFF2D1"/>
  </linearGradient>
  <linearGradient id="id2" gradientUnits="userSpaceOnUse" xlink:href="#id1" x1="2637.52" y1="3113.8" x2="4880.79" y2="3113.8">
  </linearGradient>
  <linearGradient id="id3" gradientUnits="userSpaceOnUse" x1="2102.44" y1="2368.01" x2="1797.24" y2="2062.83">
   <stop offset="0" style="stop-opacity:1; stop-color:#B0275D"/>
   <stop offset="1" style="stop-opacity:1; stop-color:#9F62B5"/>
  </linearGradient>
  <linearGradient id="id4" gradientUnits="userSpaceOnUse" xlink:href="#id3" x1="3343.23" y1="3608.79" x2="3038.03" y2="3303.59">
  </linearGradient>
  <linearGradient id="id5" gradientUnits="userSpaceOnUse" xlink:href="#id3" x1="2846.91" y1="3112.49" x2="2541.71" y2="2807.29">
  </linearGradient>
  <linearGradient id="id6" gradientUnits="userSpaceOnUse" xlink:href="#id3" x1="3095.07" y1="3360.63" x2="2789.88" y2="3055.44">
  </linearGradient>
  <linearGradient id="id7" gradientUnits="userSpaceOnUse" xlink:href="#id3" x1="1854.28" y1="2119.86" x2="1549.1" y2="1814.67">
  </linearGradient>
  <linearGradient id="id8" gradientUnits="userSpaceOnUse" xlink:href="#id3" x1="3511.12" y1="3776.7" x2="948.24" y2="1213.83">
  </linearGradient>
  <linearGradient id="id9" gradientUnits="userSpaceOnUse" xlink:href="#id3" x1="2598.74" y1="2864.32" x2="2293.54" y2="2559.12">
  </linearGradient>
  <linearGradient id="id10" gradientUnits="userSpaceOnUse" xlink:href="#id3" x1="2350.59" y1="2616.18" x2="2045.4" y2="2310.99">
  </linearGradient>
  <linearGradient id="id11" gradientUnits="userSpaceOnUse" xlink:href="#id3" x1="3346.03" y1="3611.75" x2="783.15" y2="1048.69">
  </linearGradient>
 </defs>
 <g id="Слой_x0020_1">
  <metadata id="CorelCorpID_0Corel-Layer"/>
  <polygon class="fil0" points="-0.01,12699.99 16255.99,12699.99 16255.99,-3556.01 -0.01,-3556.01 "/>
  <path class="fil1" d="M1124 3414.56c0,581.84 471.68,1053.53 1053.52,1053.53 581.86,0 1053.54,-471.69 1053.54,-1053.53 0,-581.84 -471.68,-1053.52 -1053.54,-1053.52 -581.84,0 -1053.52,471.68 -1053.52,1053.52z"/>
  <polygon class="fil2" points="13665.6,8456.83 13665.6,8456.83 13665.6,8456.83 "/>
  <path class="fil2" d="M12345.49 10145.49c-33.59,8.13 -54.19,42 -46.02,75.46 8.17,33.59 41.99,54.32 75.59,46.06 93.54,-22.76 184.32,-52.56 271.72,-88.87 31.92,-13.28 47.03,-49.85 33.76,-81.82 -13.25,-31.84 -49.87,-47.01 -81.78,-33.73l0 0c-81.47,33.86 -166.07,61.64 -253.27,82.9z"/>
  <path class="fil2" d="M11935.24 6608.3l-5.68 0c-34.55,0.11 -62.49,28.2 -62.39,62.76 0.11,34.57 28.2,62.49 62.76,62.39l5.31 0c88.62,0 175.63,6.66 260.6,19.47 34.18,5.17 66.05,-18.34 71.2,-52.52 5.17,-34.16 -18.36,-66.07 -52.52,-71.21 -91.13,-13.76 -184.4,-20.89 -279.28,-20.89z"/>
  <path class="fil2" d="M13697.7 8801.1c34.14,5.25 66.11,-18.17 71.39,-52.32 14.36,-92.9 21.68,-188.07 21.68,-284.89l0 -7.56c-0.14,-34.54 -28.18,-62.46 -62.86,-62.31 -34.54,0.12 -62.45,28.27 -62.18,62.81l0 7.06c0,90.44 -7.04,179.2 -20.32,265.83 -5.28,34.15 18.15,66.1 52.29,71.38z"/>
  <path class="fil2" d="M13159.29 9687.05c-62.82,62.88 -130.48,120.96 -202.32,173.6 -27.88,20.43 -33.92,59.59 -13.48,87.45 20.41,27.88 59.58,33.91 87.46,13.48 77.01,-56.43 149.53,-118.67 216.87,-186.07 24.42,-24.46 24.41,-64.05 -0.04,-88.49 -24.44,-24.44 -64.07,-24.41 -88.49,0.03z"/>
  <path class="fil2" d="M13154.35 7147.62c-24.36,24.5 -24.23,64.13 0.29,88.48 63.08,62.64 121.34,130.13 174.21,201.81 20.5,27.81 59.68,33.73 87.5,13.22 27.81,-20.51 33.73,-59.69 13.21,-87.5 -56.67,-76.86 -119.13,-149.18 -186.71,-216.31 -24.54,-24.35 -64.16,-24.22 -88.5,0.3z"/>
  <path class="fil2" d="M13534.52 9125.93l0 0c-34.25,82.65 -74.71,162.07 -120.83,237.68 -18,29.5 -8.67,68 20.84,86 29.49,18.01 68,8.68 86.01,-20.84 49.42,-81.08 92.9,-166.26 129.61,-254.93 13.28,-31.91 -1.89,-68.51 -33.86,-81.76 -31.97,-13.24 -68.55,1.94 -81.77,33.85z"/>
  <path class="fil2" d="M13565.35 7713.61c-31.82,13.36 -46.83,50.03 -33.48,81.9l0 0c34.16,81.38 62.2,165.88 83.6,253.02 8.27,33.53 42.27,54.04 75.73,45.78 33.6,-8.28 54.05,-42.17 45.79,-75.72 -23.03,-93.48 -53.11,-184.16 -89.68,-271.45 -13.41,-31.88 -49.99,-46.89 -81.96,-33.53z"/>
  <path class="fil2" d="M12639.95 6746.81c-31.97,-13.13 -68.52,2.14 -81.66,34.11 -13.14,31.96 2.13,68.52 34.1,81.66 82.75,34 162.29,74.22 238.06,120.11 29.52,17.9 68.01,8.45 85.92,-21.11 17.91,-29.55 8.45,-68.02 -21.09,-85.92 -81.24,-49.21 -166.56,-92.37 -255.33,-128.85z"/>
  <path class="fil2" d="M11935.24 10194.4c-89.84,0 -178.03,-6.91 -264.09,-20.05 -34.17,-5.28 -66.1,18.15 -71.32,52.42 -5.25,34.14 18.22,65.97 52.37,71.26 92.32,14.09 186.83,21.4 283.04,21.4l1.87 0c34.56,0 62.56,-28.04 62.52,-62.58 -0.03,-34.55 -28.09,-62.59 -62.63,-62.45l-1.76 0z"/>
  <path class="fil2" d="M10347.96 7502.24c-49.28,81.18 -92.51,166.45 -129.07,255.19 -13.18,31.95 2.05,68.52 34,81.69 31.95,13.17 68.52,-2.07 81.69,-34.02 34.08,-82.7 74.41,-162.22 120.36,-237.91 17.94,-29.55 8.52,-68.04 -21.01,-85.97 -29.53,-17.93 -68.03,-8.53 -85.97,21.02z"/>
  <path class="fil2" d="M10254.11 8875.86c-8.19,-33.57 -42.06,-54.15 -75.64,-45.95 -33.57,8.2 -54.13,42.06 -45.92,75.63 22.82,93.53 52.75,184.27 89.16,271.64 13.29,31.9 49.91,46.98 81.82,33.69 31.9,-13.29 46.98,-49.94 33.69,-81.84l0 0c-33.93,-81.43 -61.83,-166 -83.11,-253.17z"/>
  <path class="fil2" d="M10836.48 6968.42c-76.9,56.61 -149.28,119 -216.5,186.53 -24.37,24.49 -24.28,64.1 0.22,88.48 24.49,24.39 64.11,24.29 88.48,-0.2 62.71,-63.01 130.24,-121.22 201.97,-174.01 27.84,-20.48 33.8,-59.66 13.3,-87.48 -20.48,-27.84 -59.64,-33.79 -87.47,-13.32z"/>
  <path class="fil2" d="M10539.53 9487.04c-20.47,-27.83 -59.64,-33.85 -87.49,-13.39 -27.85,20.47 -33.85,59.61 -13.4,87.47 56.52,76.98 118.85,149.42 186.3,216.69 24.48,24.41 64.1,24.35 88.49,-0.12 24.41,-24.47 24.35,-64.08 -0.11,-88.49l0 0c-62.95,-62.77 -121.08,-130.35 -173.79,-202.16z"/>
  <path class="fil2" d="M11521.55 6783.18c33.57,-8.23 54.11,-42.11 45.87,-75.67 -8.24,-33.57 -42.1,-54.1 -75.66,-45.87 -93.51,22.93 -184.22,52.94 -271.55,89.44 -31.88,13.33 -46.93,49.99 -33.6,81.86 13.33,31.89 49.97,46.93 81.85,33.61l0 0c81.4,-34.01 165.95,-61.99 253.09,-83.37z"/>
  <path class="fil2" d="M11037.02 9943.28c-29.54,-17.97 -68.01,-8.6 -86,20.93 -17.96,29.56 -8.58,68.03 20.93,85.92 81.14,49.44 166.37,92.79 255.07,129.36 31.94,13.28 68.52,-1.89 81.73,-33.86 13.19,-31.97 -1.99,-68.55 -33.94,-81.69 -82.69,-34.27 -162.14,-74.63 -237.79,-120.66z"/>
  <path class="fil2" d="M10172.09 8130.28c-34.18,-5.2 -66.08,18.3 -71.27,52.45 -13.95,91.73 -21.19,185.62 -21.19,281.16l0 3.78c0.08,34.56 28.15,62.51 62.71,62.45 34.56,-0.07 62.5,-28.15 62.45,-62.69l0 -3.54c0,-89.23 6.75,-176.82 19.75,-262.34 5.19,-34.17 -18.3,-66.07 -52.45,-71.27z"/>
  <path class="fil2" d="M6779.45 -1670.04c-31.97,-13.14 -68.52,2.17 -81.66,34.13 -13.14,31.98 2.14,68.42 34.1,81.56l0 0c82.75,34 162.29,74.23 238.04,120.16 29.56,17.88 68.03,8.53 85.94,-21.14 17.91,-29.53 8.46,-68 -21.11,-85.88 -81.21,-49.18 -166.54,-92.39 -255.31,-128.83z"/>
  <path class="fil2" d="M6074.71 -1808.63l-5.65 0c-34.56,0.14 -62.48,28.18 -62.38,62.86 0.11,34.55 28.2,62.45 62.76,62.32l5.27 0c88.62,0 175.65,6.63 260.62,19.5 34.17,5.15 66.06,-18.42 71.22,-52.56 5.16,-34.14 -18.36,-65.97 -52.52,-71.12 -91.14,-13.81 -184.43,-21 -279.32,-21z"/>
  <path class="fil2" d="M7837.17 384.21c34.15,5.26 66.11,-18.16 71.38,-52.31 14.32,-92.91 21.74,-188.06 21.74,-284.89l-0.01 -7.52c-0.14,-34.57 -28.27,-62.46 -62.83,-62.34 -34.54,0.15 -62.47,28.27 -62.32,62.83l0 7.03c0,90.44 -6.92,179.2 -20.27,265.83 -5.28,34.15 18.15,66.11 52.31,71.37z"/>
  <path class="fil2" d="M6738.21 1645.69l0 0c-81.47,33.86 -166.08,61.65 -253.27,82.85 -33.58,8.16 -54.18,42 -46.02,75.58 8.16,33.58 42.01,54.19 75.59,46.03 93.55,-22.74 184.32,-52.57 271.72,-88.89 31.92,-13.26 47.04,-49.88 33.76,-81.8 -13.25,-31.91 -49.88,-47.03 -81.78,-33.77z"/>
  <polygon class="fil2" points="7805.13,39.98 7805.13,39.98 7805.13,39.98 "/>
  <path class="fil2" d="M7293.84 -1269.2c-24.35,24.52 -24.22,64.08 0.3,88.46 63.07,62.59 121.34,130.05 174.21,201.85 20.5,27.77 59.67,33.73 87.5,13.14 27.81,-20.46 33.73,-59.61 13.22,-87.51 -56.68,-76.81 -119.14,-149.15 -186.73,-216.34 -24.53,-24.25 -64.14,-24.12 -88.5,0.4z"/>
  <path class="fil2" d="M7298.75 1270.17c-62.83,62.87 -130.47,120.94 -202.33,173.58 -27.87,20.43 -33.9,59.59 -13.49,87.48 20.43,27.86 59.58,33.9 87.48,13.47 77.01,-56.44 149.52,-118.68 216.86,-186.07 24.43,-24.45 24.43,-64.07 -0.02,-88.49 -24.46,-24.43 -64.07,-24.43 -88.5,0.03z"/>
  <path class="fil2" d="M7674 709.05c-34.26,82.63 -74.72,162.06 -120.85,237.68 -17.99,29.5 -8.67,68 20.84,86 29.51,17.99 68.01,8.66 86,-20.85 49.46,-81.07 92.88,-166.27 129.62,-254.91 13.23,-31.93 -1.94,-68.54 -33.85,-81.77 -31.92,-13.24 -68.54,1.92 -81.76,33.85z"/>
  <path class="fil2" d="M7704.89 -703.24c-31.86,13.35 -46.89,50.02 -33.52,81.88 34.1,81.38 62.16,165.9 83.63,253.03 8.26,33.55 42.15,54.05 75.71,45.79 33.55,-8.27 54.06,-42.17 45.79,-75.73 -23.02,-93.47 -53.13,-184.16 -89.71,-271.45 -13.35,-31.87 -50.03,-46.88 -81.9,-33.52z"/>
  <path class="fil2" d="M5050.15 -1347.63c27.84,-20.59 33.8,-59.74 13.31,-87.51 -20.48,-27.91 -59.65,-33.87 -87.48,-13.28 -76.9,56.49 -149.28,118.94 -216.52,186.4 -24.35,24.52 -24.27,64.22 0.23,88.6 24.5,24.38 64.11,24.25 88.48,-0.27l0 0c62.72,-62.99 130.23,-121.24 201.98,-173.94z"/>
  <path class="fil2" d="M4317.95 413c-33.58,8.2 -54.14,42.05 -45.95,75.63 22.84,93.53 52.77,184.28 89.17,271.64 13.28,31.9 49.93,46.98 81.81,33.68 31.91,-13.29 47,-49.92 33.7,-81.82 -33.94,-81.43 -61.83,-166.02 -83.1,-253.19 -8.2,-33.57 -42.06,-54.14 -75.63,-45.94z"/>
  <path class="fil2" d="M6074.71 1777.45c-89.85,0 -178.03,-6.84 -264.11,-20.03 -34.16,-5.22 -66.09,18.24 -71.33,52.39 -5.23,34.16 18.22,66.09 52.38,71.32 92.32,14.13 186.87,21.46 283.06,21.46l1.86 0c34.55,-0.04 62.55,-28.08 62.51,-62.64 -0.04,-34.56 -28.08,-62.54 -62.62,-62.5l-1.75 0z"/>
  <path class="fil2" d="M4311.56 -286.64c-34.17,-5.19 -66.09,18.28 -71.27,52.46 -13.95,91.73 -21.18,185.63 -21.18,281.19l0 3.75c0.09,34.55 28.15,62.51 62.71,62.44 34.54,-0.06 62.52,-28.14 62.44,-62.69l-0.01 -3.5c0,-89.24 6.77,-176.85 19.76,-262.37 5.2,-34.16 -18.29,-66.08 -52.45,-71.28z"/>
  <path class="fil2" d="M4591.51 1056.74c-27.86,20.46 -33.85,59.62 -13.4,87.47 56.52,76.97 118.82,149.42 186.3,216.69 24.46,24.41 64.09,24.36 88.49,-0.12 24.41,-24.47 24.34,-64.09 -0.11,-88.49 -62.95,-62.76 -121.08,-130.36 -173.82,-202.14 -20.44,-27.86 -59.61,-33.87 -87.46,-13.41z"/>
  <path class="fil2" d="M4487.45 -914.68c-49.28,81.18 -92.53,166.46 -129.09,255.19 -13.17,31.96 2.06,68.54 34,81.7 31.96,13.17 68.55,-2.07 81.7,-34.02 34.09,-82.71 74.4,-162.22 120.37,-237.98 17.93,-29.53 8.53,-68.01 -21.03,-85.89 -29.53,-17.88 -68.02,-8.53 -85.95,21z"/>
  <path class="fil2" d="M5631.26 -1755.25c-93.5,22.89 -184.22,52.97 -271.56,89.41 -31.89,13.41 -46.92,49.98 -33.61,81.95 13.33,31.84 49.98,46.88 81.88,33.6 81.4,-34.14 165.93,-62.04 253.1,-83.45 33.56,-8.26 54.1,-42.13 45.86,-75.59 -8.23,-33.59 -42.12,-54.18 -75.67,-45.92z"/>
  <path class="fil2" d="M5176.47 1526.38c-29.53,-17.97 -68.02,-8.61 -85.98,20.91 -17.96,29.52 -8.59,68.02 20.92,85.98 81.13,49.38 166.36,92.7 255.07,129.36 31.94,13.19 68.53,-1.99 81.72,-33.94 13.21,-31.94 -1.99,-68.51 -33.93,-81.72 -82.67,-34.17 -162.14,-74.56 -237.8,-120.59z"/>
  <polygon class="fil2" points="4344.26,50.51 4344.26,50.51 4344.26,50.51 "/>
  <path class="fil3" d="M11600.29 8053.05c-33.94,33.96 -33.93,89 0.05,122.93l12.06 12.05c33.96,33.93 89,33.91 122.95,-0.05 33.92,-33.97 33.89,-89.02 -0.07,-122.94l-12.06 -12.06c-33.96,-33.92 -89.02,-33.89 -122.93,0.07z"/>
  <path class="fil3" d="M12287.09 8739.78c-33.94,33.96 -33.94,88.99 0,122.95l23.09 23.08c33.94,33.95 88.99,33.95 122.94,0 33.95,-33.94 33.95,-88.98 0,-122.93l-23.08 -23.1c-33.95,-33.95 -89.01,-33.95 -122.95,0z"/>
  <path class="fil3" d="M12112.65 8565.33c-33.95,33.96 -33.95,89 0,122.94l23.08 23.08c33.94,33.96 88.99,33.96 122.94,0 33.94,-33.94 33.94,-88.98 0,-122.94l-23.09 -23.08c-33.95,-33.95 -89,-33.95 -122.93,0z"/>
  <path class="fil3" d="M12461.54 8914.25c-33.93,33.95 -33.93,88.98 0,122.92l23.09 23.09c33.96,33.96 89,33.96 122.95,0 33.94,-33.95 33.94,-88.98 0,-122.94l-23.09 -23.07c-33.95,-33.96 -88.99,-33.96 -122.95,0z"/>
  <path class="fil3" d="M11938.19 8390.88c-33.94,33.96 -33.94,89 0,122.93l23.09 23.1c33.96,33.95 88.98,33.95 122.93,0 33.95,-33.95 33.95,-89.01 0,-122.95l-23.08 -23.08c-33.95,-33.95 -88.99,-33.95 -122.94,0z"/>
  <path class="fil3" d="M11763.74 8216.42c-33.95,33.96 -33.95,89 0,122.95l23.08 23.08c33.95,33.95 88.99,33.95 122.94,0 33.94,-33.94 33.94,-89 0,-122.95l-23.09 -23.08c-33.96,-33.95 -88.98,-33.95 -122.93,0z"/>
  <path class="fil3" d="M12984.9 9437.61c-33.94,33.95 -33.94,88.99 0,122.92l23.09 23.1c33.96,33.95 89,33.95 122.93,0 33.95,-33.95 33.95,-88.99 0,-122.93l-23.08 -23.09c-33.94,-33.96 -88.97,-33.96 -122.94,0z"/>
  <path class="fil3" d="M13159.37 9612.07c-33.96,33.95 -33.96,88.97 0,122.93l23.08 23.09c33.95,33.94 88.99,33.94 122.93,0 33.96,-33.97 33.96,-88.99 0,-122.94l-23.09 -23.08c-33.95,-33.95 -88.97,-33.95 -122.92,0z"/>
  <path class="fil3" d="M12636.01 9088.7c-33.96,33.95 -33.96,88.98 0,122.94l23.07 23.08c33.96,33.95 89,33.95 122.95,0 33.95,-33.96 33.95,-88.98 0,-122.93l-23.09 -23.09c-33.95,-33.96 -89,-33.96 -122.93,0z"/>
  <path class="fil3" d="M12810.45 9263.16c-33.95,33.95 -33.95,88.97 0,122.93l23.08 23.09c33.95,33.94 89.02,33.94 122.97,0 33.92,-33.97 33.92,-88.99 0,-122.94l-23.12 -23.08c-33.93,-33.95 -88.97,-33.95 -122.93,0z"/>
  <path class="fil3" d="M13333.85 9786.48c-33.97,33.95 -34,88.97 -0.07,122.95l12.06 12.07c33.95,33.95 88.99,33.97 122.94,0.04 33.97,-33.92 34,-88.97 0.07,-122.93l-12.06 -12.06c-33.94,-33.96 -88.98,-33.99 -122.94,-0.07z"/>
  <path class="fil4" d="M10121.83 10093.2c0,401.26 325.31,726.65 726.59,726.65 401.29,0 726.6,-325.39 726.6,-726.65 0,-401.32 -325.31,-726.63 -726.6,-726.63 -401.28,0 -726.59,325.31 -726.59,726.63z"/>
  <path class="fil5" d="M13848.21 4881.76c0,1470.87 -572.82,2853.66 -1612.86,3893.73 -1040.01,1040.02 -2422.84,1612.76 -3893.69,1612.76 -1470.87,0 -2853.64,-572.74 -3893.71,-1612.76 -1040.04,-1040.07 -1612.82,-2422.86 -1612.82,-3893.73 0,-1470.84 572.78,-2853.66 1612.82,-3893.69 1040.07,-1040.02 2422.84,-1612.81 3893.71,-1612.81 1470.85,0 2853.68,572.79 3893.69,1612.81 1040.04,1040.03 1612.86,2422.85 1612.86,3893.69zm-11348.26 0c0,3226.29 2615.41,5841.77 5841.71,5841.77 3226.27,0 5841.69,-2615.48 5841.69,-5841.77 0,-3226.26 -2615.42,-5841.69 -5841.69,-5841.69 -3226.3,0 -5841.71,2615.43 -5841.71,5841.69z"/>
  <path class="fil6" d="M12351.49 7931.93c-52.27,52.29 -52.27,137.06 0,189.35l525.69 525.68c52.28,52.28 137.07,52.28 189.36,0 52.27,-52.29 52.27,-137.08 0,-189.36l-525.68 -525.67c-52.29,-52.28 -137.07,-52.28 -189.37,0z"/>
  <polygon class="fil7" points="12350.01,9712.65 12425.72,9636.94 11725.83,8937.06 11650.12,9012.76 "/>
  <polygon class="fil7" points="12600.45,9963.09 12676.16,9887.37 12535.49,9746.71 12459.78,9822.42 "/>
  <polygon class="fil7" points="13375.82,10738.43 13451.52,10662.7 12751.64,9962.84 12675.93,10038.61 "/>
  <polygon class="fil8" points="12317.99,10451.24 12403.86,10365.35 10796.02,8757.55 10710.15,8843.43 "/>
  <path class="fil6" d="M4121.43 -1376.76c-61.04,-60.96 -159.98,-60.96 -221.03,0 -61.02,61.1 -61.02,159.99 0,221.08l613.6 613.56c61.03,61.03 159.98,61.03 221.02,0 61.03,-61.03 61.03,-159.99 0,-221.01l-613.59 -613.63z"/>
  <path class="fil9" d="M3247.95 -95.31c-102.62,102.63 -102.62,269.04 0,371.67l1767.86 1767.85c102.63,102.63 269.03,102.63 371.66,0 102.63,-102.64 102.63,-269.05 0,-371.68l-1767.85 -1767.84c-102.63,-102.63 -269.04,-102.63 -371.67,0z"/>
  <path class="fil10" d="M5280.6 2791.73c0,139.43 113.02,252.47 252.47,252.47 139.42,0 252.47,-113.04 252.47,-252.47 0,-139.44 -113.05,-252.47 -252.47,-252.47 -139.45,0 -252.47,113.03 -252.47,252.47z"/>
  <path class="fil4" d="M3597.42 1282.8c-377.91,0 -684.26,306.36 -684.26,684.26 0,377.91 306.35,684.27 684.26,684.27 377.91,0 684.27,-306.36 684.27,-684.27 0,-377.9 -306.36,-684.26 -684.27,-684.26z"/>
  <path class="fil11" d="M1410.39 1675.87c-46.19,46.16 -46.25,121.02 -0.11,167.22l16.39 16.42c46.16,46.21 121.03,46.26 167.24,0.11 46.21,-46.15 46.26,-121.02 0.11,-167.22l-16.4 -16.42c-46.15,-46.2 -121.02,-46.24 -167.23,-0.11z"/>
  <path class="fil12" d="M3131.02 3396.59c-46.18,46.18 -46.18,121.05 0,167.23l32.84 32.82c46.18,46.19 121.03,46.19 167.21,0 46.2,-46.18 46.2,-121.04 0,-167.22l-32.82 -32.83c-46.18,-46.17 -121.05,-46.17 -167.23,0z"/>
  <path class="fil13" d="M1890.23 2155.82c-46.18,46.17 -46.18,121.04 0,167.22l32.83 32.84c46.18,46.18 121.06,46.18 167.24,0 46.16,-46.18 46.16,-121.06 0,-167.24l-32.85 -32.82c-46.17,-46.18 -121.04,-46.18 -167.22,0z"/>
  <path class="fil14" d="M2138.39 2403.97c-46.18,46.18 -46.18,121.05 0,167.23l32.84 32.83c46.18,46.17 121.03,46.17 167.22,0 46.18,-46.18 46.18,-121.05 0,-167.23l-32.83 -32.83c-46.18,-46.18 -121.05,-46.18 -167.23,0z"/>
  <path class="fil15" d="M1642.08 1907.66c-46.18,46.16 -46.18,121.04 0,167.22l32.82 32.84c46.18,46.18 121.05,46.18 167.23,0 46.19,-46.18 46.19,-121.04 0,-167.22l-32.82 -32.84c-46.21,-46.18 -121.06,-46.18 -167.23,0z"/>
  <path class="fil16" d="M2882.87 3148.44c-46.18,46.18 -46.18,121.05 0,167.22l32.82 32.84c46.18,46.18 121.06,46.18 167.24,0 46.18,-46.19 46.18,-121.04 0,-167.24l-32.84 -32.82c-46.18,-46.18 -121.05,-46.18 -167.22,0z"/>
  <path class="fil17" d="M2386.53 2652.12c-46.16,46.18 -46.16,121.05 0,167.23l32.86 32.83c46.18,46.19 121.05,46.19 167.22,0 46.18,-46.17 46.18,-121.05 0,-167.23l-32.84 -32.83c-46.18,-46.17 -121.04,-46.17 -167.24,0z"/>
  <path class="fil18" d="M2634.7 2900.28c-46.17,46.18 -46.17,121.05 0,167.22l32.85 32.83c46.18,46.18 121.04,46.18 167.2,0 46.18,-46.16 46.18,-121.04 0,-167.22l-32.82 -32.83c-46.18,-46.18 -121.05,-46.18 -167.23,0z"/>
  <path class="fil19" d="M3379.22 3644.68c-46.21,46.15 -46.25,121.01 -0.11,167.23l16.4 16.41c46.15,46.21 121.01,46.26 167.21,0.11 46.21,-46.14 46.27,-121.02 0.11,-167.22l-16.39 -16.42c-46.14,-46.21 -121.01,-46.25 -167.22,-0.11z"/>
  <polygon class="fil7" points="3550,-871.06 4366.95,-54.11 4455.33,-142.48 3638.38,-959.38 "/>
  <polygon class="fil7" points="4659.27,238.21 4747.65,149.84 4583.47,-14.34 4495.09,74.02 "/>
  <polygon class="fil7" points="5564.33,1143.27 5652.69,1054.9 4835.76,237.95 4747.38,326.31 "/>
  <polygon class="fil10" points="3377.31,1138.42 3468.26,1047.47 2467.79,47.01 2376.85,137.96 "/>
  <polygon class="fil10" points="3509.95,1271.05 4510.41,2271.52 4601.36,2180.57 3600.88,1180.1 "/>
  <polygon class="fil3" points="3759.17,2225.56 5635.91,4102.3 5736.14,4002.05 3859.4,2125.31 "/>
  <path class="fil20" d="M2689.4 2044.05c-102.63,102.63 -102.63,269.03 0,371.66l1767.84 1767.84c102.64,102.64 269.05,102.64 371.68,0 102.63,-102.63 102.63,-269.02 0,-371.66l-1767.85 -1767.84c-102.64,-102.65 -269.03,-102.65 -371.67,0z"/>
 </g>
</svg>
