<?xml version="1.0" encoding="UTF-8"?>
<!DOCTYPE svg PUBLIC "-//W3C//DTD SVG 1.1//EN" "http://www.w3.org/Graphics/SVG/1.1/DTD/svg11.dtd">
<!-- Creator: CorelDRAW 2020 (64-Bit) -->
<svg xmlns="http://www.w3.org/2000/svg" xml:space="preserve" width="76.1998mm" height="91.2334mm" version="1.1" style="shape-rendering:geometricPrecision; text-rendering:geometricPrecision; image-rendering:optimizeQuality; fill-rule:evenodd; clip-rule:evenodd"
viewBox="0 0 7619.98 9123.34"
 xmlns:xlink="http://www.w3.org/1999/xlink"
 xmlns:xodm="http://www.corel.com/coreldraw/odm/2003">
 <defs>
  <style type="text/css">
   <![CDATA[
    .fil0 {fill:black;fill-rule:nonzero}
   ]]>
  </style>
 </defs>
 <g id="Слой_x0020_1">
  <metadata id="CorelCorpID_0Corel-Layer"/>
  <g id="_2108085437888">
   <path class="fil0" d="M4362.66 3130.32c-350.76,-0.77 -704.24,-12.76 -1052.06,17.76 -167.14,14.7 -407.19,-191.35 -166.18,-272.43 99.61,-33.33 210.32,-35.18 314.25,-43.58 79.01,-6.55 161.73,-14.83 230.36,-56.77 83.89,-51 67.89,-162.69 67.89,-244.08 0,-360.33 89.36,-723.42 59.06,-1084.09 -2.28,-25.61 -30.73,-39.11 -50.44,-20.91 -114.75,105.35 -219.45,273.47 -279.62,415.68 -38.46,90.87 -74.1,20.48 -116.57,-33.11 -65.05,-82.16 -142.43,-157.99 -205.31,-241.26 74.31,-119.42 213.46,-222.61 311,-321.02 112.13,-113.08 191.88,-259.42 344.53,-322.53 94.05,-38.79 320.7,-70.82 285.49,146.35 -10.69,65.48 -8.49,133.49 -8.62,199.62 -0.31,182.86 -25.91,365.47 -15.13,548.85 9.26,159.96 25.51,318.08 42.38,477.4 10.25,96.09 -34.1,262.82 28.13,346.28 47.51,64.06 109.28,86.18 184.03,109.93 90.44,28.66 105.48,111.47 104.84,193.2 -0.56,43.27 -14.74,183.94 -78.03,184.71zm77.81 -392.61c-29.87,-28.11 -80.09,-39.45 -117.9,-51.43 -153.76,-48.71 -135.56,-165.41 -134.48,-298.56 1.97,-244.97 -64.19,-487.72 -47.39,-733.77 7.42,-108.97 1.64,-218.68 9.36,-327.87 7.63,-108.33 24.96,-226.22 17.24,-333.87 -8.4,-117.46 -141.47,-167.04 -242.56,-153.2 -164.23,22.55 -272.22,101.22 -372.14,231.53 -73.88,96.65 -164.41,188.85 -252.23,272.96 -75.86,72.68 -154.74,127.38 -203.89,221.65 -11.64,22.21 6.65,42.5 25.52,44.01 55.35,73.11 114.84,147.55 178.37,213.25 29.97,30.95 95.11,139.37 143.38,141 64.62,2.07 85.44,-73.32 106.57,-123.24 43.27,-102.55 127.72,-233.2 210.74,-324.84 16.13,368.98 -82.81,736.95 -61.03,1106.33 9.48,162.9 -234.59,150.27 -344.74,159.75 -101.9,8.8 -206.73,21.04 -299.11,67.12 -201.82,101.34 10.34,315.89 144.37,350.33 46.51,11.98 103.96,13.62 150.57,4.23 115.83,-23.1 229.59,-15.35 346.75,-13.62 230.88,3.4 462.45,0 693.89,0 12.08,0 19.92,-6.3 24.28,-14.49 117.68,-68.2 105.6,-361.32 24.43,-437.27z"/>
   <path class="fil0" d="M7417.49 1538.43c-170.41,310.33 -515.52,482.5 -826.71,618.4 -189.28,82.69 -382.15,152.53 -579.58,213.13 -176,53.83 -391.62,93.28 -536.89,215.62 -251.15,211.83 -100.45,477.5 -181.87,745.11 -25.69,84.44 -94.45,91.42 -159.19,68.01 5.13,-2.75 10.13,-5.47 15.38,-8.18 28.97,-15.91 45.96,-46.95 77.9,-59.4 34.87,-13.62 19.74,-70.83 -15.78,-56.99 -28.36,11.12 -51.34,28.45 -73.58,48.93 -16.89,15.6 -42.16,36.51 -66.25,38.7 -1.73,0.09 -2.94,0.87 -4.67,1.42 -12.75,-9.17 -24.64,-19.09 -34.65,-28.88 -12.54,-12.76 -23.54,-27.03 -33.58,-42.07 49.49,-22.55 86.64,-73.33 139.71,-89.14 36.6,-10.78 21.03,-67.67 -15.6,-56.86 -34.75,10.22 -62.08,30.17 -90.66,51.52 -16,11.89 -39.44,35.73 -60.78,42.93 -12.11,-27.98 -21.69,-57.42 -28.54,-87.16 28.75,-5.13 49.88,-32.81 68.07,-53.41 9.61,-10.87 23.88,-19.49 35,-29.28 16.12,-14.39 32.25,-28.45 53.28,-35 36.29,-11.12 20.91,-68.2 -15.81,-56.86 -36.82,11.3 -63.85,36.6 -92.17,61.56 -10.47,9.05 -20.82,16.34 -29.75,26.69 -7.97,8.92 -17.67,22.02 -29.09,27.24 -0.78,-5.78 -1.64,-11.65 -2.41,-17.21 -24.5,-223.5 148.84,-393.38 314.25,-511.5 340.41,-243.3 760.14,-329.94 1133.02,-508.1 138.84,-66.47 263.47,-157 372.35,-264.33 4.23,8.49 12.2,14.61 25.05,13.06 37.72,-4.45 62.33,-26.47 96.43,-40.43 42.16,-17.21 83.89,-31.69 125.1,-52.17 34.31,-17.02 4.26,-67.89 -29.75,-51 -36.17,18.07 -72.03,35.31 -111.13,46.18 -18.01,5.04 -33.58,17.33 -50.13,26.72 56.21,-61.68 107.86,-127.51 153.42,-197.47 77.03,-11.64 142.64,-66.25 217.6,-87.25 36.6,-10.26 21.13,-67.25 -15.69,-56.9 -33.36,9.14 -64.62,22.77 -95.57,37.5 -20.17,9.57 -40.21,21.68 -61.03,31.6 35.55,-61.81 68.01,-125.22 94.39,-191.14 1.52,-3.83 2.29,-7.63 3.68,-11.33 40.99,-24.62 75.64,-60.91 123.46,-75.52 36.41,-11.12 20.81,-68.11 -15.69,-56.87 -31.6,9.58 -57.21,26.69 -83.25,46.3 11.99,-59.61 14.71,-118.88 8.62,-177.38 52.29,-9.27 96.65,-47.08 149.37,-58.2 37.16,-7.72 21.47,-64.71 -15.69,-56.86 -48.89,10.35 -93.15,49.02 -142.51,56.77 -9.58,-50.04 -24.31,-99.7 -43.93,-148.1 45.01,-19.93 82.85,-58.63 133.38,-68.42 37.28,-6.98 21.37,-63.97 -15.79,-56.77 -50.99,9.7 -92.72,56.12 -140.78,72.03 -16.34,-34.44 -34.23,-68.45 -53.84,-101.68 21.59,-15.79 45.99,-25.18 69.75,-39.02 13.52,-7.72 25.72,-17.54 39.22,-25.05 12.85,-7.19 27.37,-11.21 39.57,-19.73 30.83,-21.78 1.42,-72.99 -29.87,-51 -12.2,8.62 -27.12,11.03 -39.44,19.86 -12.54,8.71 -26.26,16.65 -39.35,25.05 -23.63,15.35 -48.16,25.05 -71.05,40 -105.69,-156.17 -304.42,-320.7 -501.67,-278.42 -268.69,57.76 -464.62,308.17 -677.43,464.3 -19.4,14.06 -45.53,30.61 -74.41,43.93 45.44,-35 94.24,-65.61 139.67,-100.91 30.09,-23.54 -11.98,-64.96 -41.6,-41.73 -45.13,34.87 -93.28,65.36 -139.37,99.05 -22.79,16.87 -49.48,51 -78.79,64.16 -30.06,-7.38 -55.91,-28.33 -72.03,-70.4 -1.42,-3.67 -2.07,-7.84 -3.15,-11.64 1.85,-2.07 3.15,-4.7 4.57,-7.2 35.86,-21.77 68.66,-53.59 100.69,-79.22 60.05,-48.16 130.1,-81.92 190.36,-130.32 29.63,-23.75 -12.41,-65.36 -41.94,-41.6 -53.5,42.93 -113.67,76.04 -171.09,113.54 -29.31,18.84 -58.5,53.06 -89.45,76.48 3.15,-61.56 25.39,-129.76 47.51,-185.45 6.2,5.56 14.7,8.49 25.39,5.22 17.63,-5.22 29.31,-14.49 42.5,-27.12 20.14,-19.4 49.36,-30.09 72.77,-44.7 40.43,-25.05 61.47,-62.98 111.04,-75.7 36.94,-9.61 21.25,-66.6 -15.69,-56.9 -40.87,10.47 -73.54,33.02 -104.83,60.7 -20.27,17.97 -39.23,32.58 -63.42,45.43 -13.06,6.98 -28.1,22.77 -42.37,32.9 34.65,-77.04 104.92,-209.08 191.13,-273.7 3.03,18.97 22.11,34.97 42.25,21.25 206.95,-142.33 459.74,-134.48 700.32,-118.24 238.85,16.47 465.17,48.37 665.78,188.64 415.38,290.28 458.75,858.86 227.31,1279.98zm-276.32 -1382.75c-182,-113.32 -408.87,-129.14 -616.77,-144.92 -207.35,-15.48 -424.74,-19.62 -615.19,63.1 -252.91,-42.93 -414.85,404.26 -443.95,586.43 -11.64,74.1 2.63,190.8 83.8,223.94 4.35,8.37 11.98,15.35 23.88,16.56 10.78,1.08 21.12,-0.34 31.16,-3.16 115.4,11.22 228.72,-77.37 314.56,-145.91 180.45,-143.84 362.1,-368.52 605.74,-389.89 214.58,-18.85 381.71,196.13 474.13,389.24 -13.84,15.57 -6.65,48.93 21.56,51.21 0.43,0.22 0.98,0 1.32,0 11.31,26.82 21.25,52.64 29.19,76.91 9.27,27.37 15.91,55.05 20.7,82.6 -0.87,6.33 0,13.19 2.84,19.18 10.78,80 4.35,159.75 -15.91,237.65 -9.14,3.71 -18.41,6.42 -28.23,7.1 -37.9,2.07 -38.24,61.13 0,59.06 2.72,-0.22 5.03,-0.99 7.75,-1.42 -24.52,68.63 -59.27,135.44 -100.91,199.41 -17.63,3.58 -25.39,20.14 -23.19,34.87 -148.97,212.57 -373.34,390.21 -566.95,489.02 -454.29,231.87 -1640.16,430.85 -1457.74,1178.45 40,163.89 247.47,392.83 417.75,236.02 62.77,-57.86 64.87,-170.63 66.6,-248.65 4.48,-187.73 -38.8,-360.46 106.25,-514.31 96.43,-102.33 261.19,-143.84 389.43,-183.6 140.57,-43.27 281.79,-84.69 420.82,-133.15 187.3,-65.39 372.66,-147.12 550.17,-235.71 354.99,-177.08 628.5,-429.09 739.11,-817.35 126.95,-446.11 -47.84,-890.33 -437.92,-1132.68z"/>
   <path class="fil0" d="M6300.8 8693.19c-11.64,114.84 -8.71,228.81 -15.13,342.79 -389.56,-7.72 -779.42,-47.72 -1170.4,-43.58 -430.73,4.48 -861.45,44.13 -1292,44.13 -200.49,0 -398.79,15.7 -600.39,8.5 -200.71,-7.29 -402.41,-23.1 -602.99,-23.1 -410.93,0 -815.28,-62.12 -1226.09,-18.85 -1.3,-248.46 -28.66,-494.69 -29.1,-743.59 -0.64,-303.78 -11.64,-607.37 -0.86,-910.81 4.23,-2.63 7.85,-6.12 10.56,-10.38 12.33,-0.09 24.62,-0.74 36.95,-0.96 -1.43,3.15 -2.2,6.86 -2.2,11.09 0,392.74 68.88,780.1 68.88,1171.39 0,29.43 43.37,39.44 55.01,15.81 17.45,-7.97 16.25,-30.86 3.4,-44.36 -3.27,-382.26 -68.23,-759.71 -68.23,-1142.84 0,-5 -1.17,-9.14 -2.94,-12.85 37.16,-1.3 74.1,-3.49 111.17,-5.56 -3.27,141.22 15.35,275.37 29.4,415.81 17.43,172.94 19.83,344.55 19.83,518.14 0,38.15 54.27,37.04 58.85,0.99 11.67,-12.66 9.35,-30.52 0,-41.51 -0.31,-159.88 -2.72,-318.52 -19.62,-477.62 -14.7,-141.53 -33.02,-277.18 -29.31,-419.39 46.42,-3.27 92.72,-7.75 139.06,-11.89 12.29,260.97 55.35,519.34 57.73,782.04 0.33,38.03 59.39,38.03 59.05,0 -2.38,-264.46 -45.87,-524.56 -58.07,-787.05 43.06,-3.92 85.75,-8.49 128.68,-12.85 7.32,104.16 34.44,204.2 47.41,307.71 14.71,116.38 9.92,237.21 9.92,354.25 0,38.36 59.06,38.36 59.06,0 0,-118.24 -1.42,-236.23 -9.92,-354.25 -7.5,-105.92 -40.96,-207.26 -47.84,-313.48 42.41,-4.26 84.88,-8.62 127.16,-12.63 3.49,90.74 21.68,186.65 40,275.02 7.51,37.16 64.62,21.25 57.08,-15.82 -8.06,-38.02 -13.5,-76.38 -18.07,-115.27 -6.11,-50.01 -18.41,-98.93 -20.17,-149.62 44.79,-4.35 89.92,-8.06 134.8,-11.86 -6.21,6.3 -9.7,15.48 -6,26.69 10.47,32.89 17.67,65.48 18.54,100.35 1.08,33.11 9.91,65.05 9.91,98.5 0,38.15 59.06,38.15 59.06,0 0,-33.76 -8.06,-65.26 -9.92,-98.5 -1.97,-40.09 -8.49,-77.8 -20.69,-115.95 -2.07,-6.86 -6.12,-11.21 -10.6,-14.58 60.27,-4.69 120.53,-8.18 181.01,-11.03 -7.29,4.48 -12.54,12.02 -11.9,23.45 1.55,26.9 7.63,53.16 17.12,78.45 12.32,33.24 11.55,82.69 12.54,118.46 0.98,37.9 60.04,38.02 59.05,0 -1.2,-39.57 -8.61,-78.58 -9.91,-118.15 -0.77,-26.04 -18.19,-51.43 -19.71,-78.76 -0.77,-12.98 -8.31,-21.25 -17.54,-25.3 0.21,0 0.52,-0.09 0.86,-0.09 136.65,-5.22 273.61,-5.01 410.69,-2.29 -28.76,7.63 -22.68,45.78 1.08,54.58 0.12,0.56 -0.1,0.65 0,1.11 -0.31,5.01 -0.65,10.01 -1.08,14.8 -1.42,18.75 7.19,38.14 8.71,57.11 3.39,36.82 -0.53,67.46 14.82,102.08 15.48,34.66 66.35,4.61 51,-29.96 -9.92,-21.99 -5.65,-48.71 -6.64,-72.12 -0.99,-24.4 -9.49,-47.51 -7.76,-71.91 2.07,-27.58 -9.26,-48.49 -30.39,-55.16 136.52,3.06 273.29,8.31 409.82,13.4 11.43,55.91 22.76,115.18 22.76,171.31 0,38.14 59.06,38.14 59.06,0 0,-56.56 -9.79,-113.42 -21.13,-169.24 46.64,1.76 93.5,2.53 140.14,3.92 -0.22,10.26 4.79,19.53 15.69,24.1 0.22,0.65 -0.12,0.43 0.31,1.63 1.2,4.7 1.98,9.58 2.19,14.61 0.99,10.66 -1.54,23.85 1.86,34.32 11.33,35.64 20.38,72.03 29.4,108.32 9.27,36.82 66.26,21.22 56.99,-15.69 -10.56,-41.76 -26.78,-84.14 -29.19,-126.95 -0.65,-12.41 -2.93,-26.03 -7.41,-38.36 41.42,0.99 82.93,2.72 124.1,3.28 17.46,0.21 34.78,0.52 52.08,0.74 2.53,36.41 10.38,71.38 7.75,108.1 -1.85,28.88 -3.36,61.69 15.26,85.87 22.98,29.62 74.19,0.31 51,-29.87 -15.17,-19.7 -7.42,-51.86 -5.99,-75.05 1.73,-29.66 -6.21,-58.84 -8.71,-88.28 48.8,0.65 97.82,0.99 146.87,1.2 0.86,28.67 7.19,56.87 9.48,85.44 2.16,30.27 0.21,61.22 0.21,91.52 0,38.15 59.06,38.15 59.06,0 0,-30.52 0.34,-61 -0.21,-91.52 -0.87,-28.57 -8.62,-56.34 -9.58,-85.1 52.51,0.31 104.93,0.31 157.56,0l0 88.03c0,32.9 8.71,65.39 9.7,98.5 1.17,38.03 60.26,38.15 59.05,0 -0.98,-33.11 -8.49,-65.38 -9.82,-98.5 -1.2,-29.53 -0.31,-59.27 -0.09,-88.92 42.81,-0.43 85.19,-1.08 128.03,-2.38 4.57,-0.22 9.14,-0.22 13.84,-0.34 -5.56,12.76 -2.41,28.66 9.26,37.16 2.81,18.75 6.52,37.8 6.52,57.54l0 95.44c0,38.15 58.96,38.15 58.96,0l0 -95.44c0,-28.23 -7.96,-54.05 -9.82,-81.73 -0.21,-5.22 -2.16,-9.91 -4.57,-14.48 46.09,-1.12 92.51,-2.07 139.15,-2.97 -8.49,12.88 -6.52,31.94 6.33,41.42 3.06,21.34 6.77,42.72 6.77,64.62l0 88.58c0,38.15 59.05,38.15 59.05,0l0 -88.58c0,-30.18 -8.06,-58.72 -9.82,-88.59 -0.31,-7.19 -3.27,-13.74 -7.41,-18.84 45,-1.11 90.01,-2.75 134.92,-4.6 -0.99,5.77 0,12.11 4.57,18.66 12.41,17.54 15.69,64.49 15.69,85.09l0 96.86c0,38.15 59.06,38.15 59.06,0 0,-39.78 2.28,-80.52 -1.09,-120.09 -2.31,-25.91 -5.89,-59.58 -18.74,-83.76 39.75,-2.2 79.53,-4.27 118.76,-7.76 16.89,-1.51 33.88,-2.28 50.9,-3.49 1.61,3.93 3.8,7.32 6.74,9.82 21.68,62.43 19.52,127.82 23.44,193.21 1.94,34.19 1.3,84.66 38.33,99.46 35.55,14.39 50.56,-42.72 15.82,-56.78 19.05,7.76 5.99,-27.76 4.91,-42.68 -1.98,-24.74 -2.41,-49.48 -2.72,-74.23 -0.77,-45.31 -8.19,-90.43 -22.36,-133.25 54.05,-3.39 108.2,-5.46 162.46,-6.98 0.65,1.64 0.65,3.37 1.43,5.13 54.7,101.78 42.5,285.37 55.13,398.58 16.12,144.49 34.32,287.56 39.44,433.13 1.21,37.93 60.27,38.03 58.97,0 -5.69,-163.76 -27.15,-323.51 -45.34,-486.08 -11.22,-101.89 -5.44,-251.92 -47.08,-352.18 60.6,-1.2 121.08,-1.29 181.65,-1.42 3.49,168.8 26.81,336.15 28.88,504.95 0.44,38.15 59.49,38.15 59.06,0 -2.07,-168.89 -25.39,-336.27 -28.88,-505.04 49.05,0.09 97.98,0.31 146.9,0.52 -2.84,184.59 5.65,370.6 29.62,553.76 13.84,104.74 27.59,209.97 39.45,315.02 8.49,74.23 -25.18,165.19 13.83,231.44 19.31,32.81 70.3,3.06 51,-29.83 -33.33,-56.78 -3.92,-185.79 -11.43,-251.61 -11.55,-103.2 -26.04,-206.49 -39.57,-309.47 -22.11,-167.81 -26.9,-339.86 -23.84,-509.09 47.5,0.12 94.89,-0.22 142.39,-0.43 -0.96,1.98 -1.73,3.92 -2.07,5.9 -0.43,2.81 -0.86,5.77 -1.3,8.71 -1.73,11.21 2.72,20.17 9.36,26.69 1.86,279.71 28.88,558.44 28.88,837.51 0,38.12 59.18,38.12 59.18,0 0,-288.76 -29.52,-576.85 -29.52,-866.18 0,-5 -1.3,-9.14 -2.94,-12.85 70.15,-0.77 140.45,-2.28 210.28,-5.22 5.56,326.24 28.79,653.12 28.79,979.05 0,165.53 6.43,328.43 -10.38,491.98zm-4720.01 -1664.66c82.04,-124.33 182.83,-248.65 277.41,-362.96 35.73,-43.49 64.83,-91.31 103.19,-132.94 44.7,-48.16 106.47,-72.81 155.06,-115.28 58.96,-51.76 121.73,-127.72 160.4,-201.48 26.9,-0.21 53.5,-1.54 80.43,-2.19 -23.44,83.46 -80.43,168.15 -122.16,239.63 -36.6,62.98 -90.87,146.99 -106.35,217.82 -8.06,37.15 48.81,53.06 57.08,15.78 8.41,-39.75 41.86,-86.08 58.84,-123.46 21.16,-46.73 47.76,-90.65 72.81,-135.22 36.72,-65.05 83.89,-141.01 100.57,-216.19 29.74,-1.08 59.39,-2.59 89.02,-3.92 -31.17,109.74 -91.31,212.48 -112.56,325.37 -7.07,37.16 49.92,52.97 56.99,15.6 22.24,-118.58 88.49,-227.09 117.9,-343.78 38.79,-2.07 77.68,-3.83 116.47,-5.9 -3.7,4.48 -6.42,9.92 -6.95,16.99 -2.62,34.65 -27.79,64.83 -29.52,98.53 -2.07,41.17 -17.89,80.28 -28.45,120.06 -9.92,36.94 46.95,52.42 56.86,15.69 10.69,-40 27.8,-80.74 29.96,-122.38 1.42,-29.4 16.81,-56.98 25.08,-86.17 2.94,-4.26 5.01,-9.27 5.01,-15.91l0 -9.82c0,-8.37 -2.94,-14.58 -7.07,-19.15 100.35,-5.13 200.83,-9.61 301.92,-10.04 -7.94,8.18 -15.9,16.25 -24.06,23.54 -69.65,63.1 -144.18,101.43 -203.02,176.74 -7.39,9.48 -7.73,22.02 -3.8,32.46 -25.73,104.4 33.45,200.61 144.49,240.61 240.71,86.74 496.12,127.17 751.53,122.57 265.32,-4.89 504.83,-20.58 761.66,-88.47 123.46,-32.8 240.92,-99.15 254.42,-231.22 21.16,-11.21 25.17,-47.63 -4.36,-53.93 -123.55,-26.94 -204.5,-117.16 -261.4,-223.6 109.41,-4.35 218.81,-6.98 328.31,-9.05 0.65,18.53 2.07,36.73 6.42,54.92 6.89,29.96 19.95,62.55 22.36,92.94 2.81,37.59 61.87,37.93 59.06,0 -2.19,-26.16 -10.69,-49.36 -17.76,-74.31 -6.89,-23.97 -9.61,-49.49 -10.81,-74.63 24.43,-0.55 48.83,-0.25 73.14,-0.68 27.34,55.35 42.38,111.91 77.47,163.24 41.39,60.48 91.21,156.91 94.45,232.53 1.64,37.8 60.7,38.02 59.06,0 -3.15,-73.33 -43.03,-147 -70.05,-214.55 -13.41,-33.54 -44.02,-63.85 -61.9,-95.78 -14.92,-26.17 -24.19,-56.65 -35.4,-85.87 46.21,-0.53 92.39,-0.65 138.59,-0.96 0.22,0.43 0,0.74 0.22,1.3 51.34,128.24 156.26,233.17 177.17,374.08 5.69,37.47 62.55,21.56 57.11,-15.6 -20.48,-136.86 -117.8,-237.96 -171.08,-360.24 42.62,-0.43 85.09,-0.96 127.72,-1.08 4.69,1.54 9.36,3.92 14.27,5.68 5.12,4.79 11.98,7.29 19.27,7.63 94.61,46.08 175.44,157.56 235.92,231.97 69.31,84.88 145.48,159.1 220.23,239.41 98.59,105.35 208.77,191.56 310.11,292.87 62.43,62.46 120.4,136.87 183.51,199.2 -1.98,4.48 -2.75,9.26 -2.63,14.18 -399.9,17.85 -802,-4.36 -1201.56,22.98 -412.23,28.23 -829.64,28.23 -1243.08,22.11 -116.6,-1.73 -233.07,-4.91 -349.64,-8.28 -9.95,-11.33 -27.93,-10.47 -39.7,-1.08 -285.15,-8.4 -570.43,-18.1 -855.68,-13.62 -396.53,6.3 -789.58,84.66 -1186.95,93.16 38.02,-90.32 123.12,-172.05 174.45,-249.85zm1502.94 -805.92c71.6,-64.84 126.08,-176.53 160.74,-265.98 36.17,-93.37 46.42,-197.86 49.45,-297.14 4.14,-126.73 -44.67,-234.93 -53.93,-358.48 -0.65,-6.98 -3.37,-12.45 -6.98,-16.8 152.55,37.37 321.57,28.11 473.35,41.08 101.34,8.71 200.71,8.62 301.19,6.86 -0.77,272.86 -32.81,565.12 70.17,823.12 14.06,34.87 71.26,19.74 56.99,-15.69 -100.69,-252.23 -68.75,-541.34 -67.89,-808.39 9.7,-0.22 19.61,-0.56 29.62,-0.65 17.02,-0.34 34.13,-0.56 51.34,-0.77 -1.08,3.06 -2.2,6.55 -2.2,10.56 0,150.58 -20.69,314.16 20.82,460.6 10.35,36.72 67.34,21.13 57.11,-15.69 -39.78,-140.02 -18.74,-300.42 -18.74,-444.91 0,-4.48 -1.09,-8.4 -2.51,-11.86 42.29,-1.33 84.67,-3.83 126.09,-10.16 -49.15,216.95 -78.92,473.04 -16.68,686.38 52.72,180.23 152.64,387.8 344.33,451.21 -14.39,153.67 -218.59,185.7 -341.74,220.14 -166.36,46.39 -340.81,39.66 -511.9,44.54 -177.73,5.03 -349.34,3.83 -525,-30.61 -78.33,-15.35 -153.08,-43.92 -229.89,-64.19 -40.13,-3.7 -77.5,-16 -112.37,-36.6 29.22,15.04 -133.04,-107.89 -116.48,-151.04 6.86,2.41 14.7,1.76 22.89,-4.23 5.77,-4.26 10.25,-7.63 14.27,-10.69 0.12,0 0.21,0 0.21,0 20.73,0 29.75,-17.2 28.11,-33.11 60.91,-61.9 134.7,-108.88 199.63,-167.5zm9.91 -1056.52c-150.23,-83.15 -78.98,-261.18 -10.44,-367.19 7.94,11.52 22.77,18.72 38.8,10.78 64.92,-32.37 188.94,9.36 276.1,41.51 2.16,25.61 30.74,31.82 48.5,17.86 2.16,0.89 5,1.85 7.07,2.62 133.71,47.51 272.52,60.14 410.25,45.87 141.22,-14.49 273.39,-14.05 410.03,-59.37 43.71,-14.51 126.61,-51.42 152.99,-101.89 44.23,52.07 97.33,99.15 146.9,148.41 4.67,26.81 10.78,53.5 11.43,82.5 2.07,107.65 -74.31,195.37 -161.39,245.93 -90.22,52.42 -227.18,27.34 -327.44,38.36 -79.63,8.59 -164.75,7.38 -244.6,5.1 -171.95,-5.1 -360.02,-6.09 -529.13,-35.95 -78.68,-14.06 -158.89,-35.62 -229.07,-74.54zm331.8 -750.54c16.03,-109.74 -1.18,-216.39 -8.37,-325.27 -7.54,-119.2 -73.24,-227.74 -96.65,-344.43 52.08,13.53 105.36,23.23 159.5,30.39 -2.28,5.04 -3.58,10.38 -2.59,16.59 45.96,320.98 141.09,703.9 -49.36,1001.04 -75.74,-27.68 -153.88,-55.88 -227.42,-57.42 122.16,-67.25 200.27,-153.42 224.89,-320.9zm-344.99 -842.18c18.75,-15.6 35.31,-32.58 51.46,-51.21 18.29,-20.94 49.14,-31.51 69.93,-51 27.8,-26.16 -14.05,-67.79 -41.73,-41.76 -19.49,18.32 -46.42,26.29 -64.49,45.13 -19.18,19.71 -34.87,42.38 -57.54,58.63 -2.63,1.73 -3.93,3.92 -5.78,6.08 -35.3,-27.33 -68.97,-57.85 -99.27,-93.03 42.07,-32.28 83.36,-65.73 121.08,-102.98 27.12,-26.81 -14.49,-68.42 -41.73,-41.73 -36.2,35.61 -75.43,67.98 -115.83,98.72 -8.53,-11.77 -17.02,-23.42 -25.08,-35.96 -20.7,-32.71 -37.25,-67.67 -52.08,-103.63 2.84,-1.51 5.78,-3.15 8.4,-5.99 25.82,-27.46 52.17,-52.07 78.77,-78.79 26.9,-26.91 -14.92,-68.76 -41.73,-41.82 -22.98,22.85 -45.66,44.88 -68.11,67.98 -17.42,-52.29 -30.83,-106.35 -42.07,-160.4 15.17,-7.51 26.16,-22.12 36.63,-35.09 19.71,-23.97 44.02,-45 66.04,-66.9 27,-27.03 -14.82,-68.76 -41.76,-41.73l-59.06 59.06c-4.14,4.04 -7.5,8.71 -11.33,13.28 -4.36,-35.62 -11.65,-69.84 -22.77,-102.43 -5.22,-29.96 -10.56,-59.7 -16,-89.66 7.73,4.14 16.99,4.91 26.78,-1.3 47.63,-30.3 80.44,-78.15 127.94,-108.23 32.15,-20.35 2.5,-71.47 -29.74,-50.87 -47.73,30.18 -80.44,78.02 -127.94,108.1 -2.29,1.52 -3.8,3.37 -5.34,5.01 -9.92,-55.91 -19.62,-112.03 -28.76,-168.25 27.15,-4.91 60.04,-28.23 79.66,-46.08 33.02,-30.64 75.95,-48.4 112.12,-74.32 30.61,-22.02 1.42,-73.23 -29.74,-50.99 -32.81,23.41 -69.1,41.17 -101.9,64.83 -16.22,11.65 -34.97,30.3 -54.8,41.39 -4.14,-1.08 -8.49,-1.51 -13.4,-0.86 -1.08,0.12 -1.52,0.55 -2.5,0.77 -8.07,-53.5 -15.6,-107.24 -21.81,-160.74 8.31,0.99 16.68,-0.22 23.44,-7.41 24.19,-25.15 48.93,-49.02 73.76,-73.55 14.27,-14.05 29.22,-26.81 48.06,-34.31 13.62,-5.44 24.53,-10.48 35.65,-20.05 29.19,-24.53 -12.88,-66.16 -41.64,-41.64 -8.71,7.2 -23.32,10.26 -33.57,15.05 -16.44,7.62 -31.17,21.37 -44.57,33.45 -22,20.38 -42.48,41.29 -63.2,62.76 -1.64,0.22 -3.24,0.34 -4.79,0.77 -6.76,-65.05 -13.06,-130 -18.75,-194.93 4.6,3.71 10.47,5.99 18.32,5.31 37.5,-3.67 59.49,-25.05 83.8,-51.73 29.96,-32.59 63.41,-63.2 98.5,-90.13 29.87,-22.89 0.43,-74.2 -29.96,-51 -28.67,22.02 -55.79,45.78 -82.07,71.04 -16.99,16.47 -45.31,60.17 -70.27,62.67 -10.04,1.08 -17.21,6.21 -21.9,12.85 -5.22,-60.78 -10.35,-121.69 -16.12,-182.51 9.48,3.27 20.13,2.5 29.52,-6.3 44.36,-42.41 103.08,-65.39 147.43,-108.33 27.68,-26.37 -14.18,-67.98 -41.73,-41.73 -42.07,40.65 -96.55,63.76 -140.01,102.3 -6.89,-69.18 -14.52,-138.25 -23.97,-207.01 10.56,8.16 25.61,10.44 38.45,-1.11 21.35,-19.39 48.28,-32.03 73.55,-45.43 37.5,-19.83 73.33,-42.94 107.55,-68.11 30.3,-22.33 0.99,-73.54 -29.87,-51 -53.37,39.23 -117.25,65.73 -170.19,105.61 -4.48,1.08 -8.83,3.15 -12.97,7.29 -3.15,3.27 -6.52,6.55 -9.92,9.82 -0.99,0.96 -1.2,2.16 -1.94,3.24 -11.77,-78.45 -25.61,-156.66 -43.59,-234.46 4.88,4.01 10.88,6.73 17.21,6.08 37.03,-3.8 64.62,-25.82 91.52,-50.22 36.29,-33.15 80.31,-53.5 116.6,-86.43 28.11,-25.69 -13.84,-67.33 -41.85,-41.73 -26.91,24.53 -62.55,36.08 -89.24,60.61 -17.2,15.56 -38.89,42.71 -62.76,53.49 -14.83,-7.41 -35.96,-2.28 -41.73,15.35 -4.26,-16.21 -7.41,-32.58 -11.77,-48.71 -11.21,-41.08 -24.4,-82.59 -37.93,-123.98 3.06,1.73 6.21,3.28 10.35,3.92 36.2,6.31 60.26,-13.09 84.91,-37.49 37.37,-37.04 82.9,-71.04 124.85,-103.29 29.65,-22.77 0.43,-74.1 -29.75,-50.9 -31.6,23.96 -61.22,50.13 -91.74,75.42 -12.84,10.66 -26.81,19.49 -39.13,30.92 -5.99,5.78 -24.06,30.09 -33.45,28.45 -17.98,-3.15 -30.7,8.49 -35.31,22.24 -18.06,-55.04 -37.59,-109.96 -58.16,-164.11 36.05,-11.33 67.34,-30.51 96.96,-54.14 24.09,-19.09 51.89,-31.51 79.87,-43.59 19.31,-8.4 46.65,-34.56 66.26,-37.15 37.37,-4.7 37.71,-63.88 0,-59.06 -20.05,2.72 -37.5,6.52 -52.73,21.13 -22.58,21.59 -59.39,30.3 -86.85,43.92 -43.59,21.77 -76.05,59.8 -124.23,73.88 -0.1,0.09 -0.31,0.22 -0.44,0.22 -13.71,-34.35 -27.55,-68.54 -42.06,-101.78 -1.09,-2.96 -2.6,-5.77 -4.02,-8.74 4.02,0.77 8.28,0.99 13.07,-0.09 19.52,-4.91 31.59,-13.19 44.78,-28.45 19.09,-21.77 49.27,-37.47 72.81,-54.14 48.58,-34.66 106.22,-53.07 155.27,-87.73 30.73,-21.8 1.42,-73.01 -29.87,-50.87 -39.97,28.11 -84.23,47.38 -127.91,68.76 -25.29,12.2 -48.4,33.88 -71.16,50.1 -9.7,6.89 -27.37,24.18 -42.5,35.52 -9.79,-0.43 -19.4,3.71 -24.62,13.31 -4.79,2.72 -7.85,6.3 -10.04,10.23 -76.04,-156.02 -179.46,-291.92 -257.79,-445.65 258.78,48.15 528.37,27.33 790.76,27.33 327.96,0 655.53,-14.7 983.83,-14.7 273.61,0 543.41,31.17 816.8,23.2 151.69,-4.36 301.61,26.59 454.51,22.89 140.66,-3.49 296.06,-35.62 438.02,-22.34 -88.68,157.35 -192,306.32 -281.36,462.55 -3.37,0.77 -7.07,2.19 -10.78,4.91 -55.01,40.09 -112.89,75.3 -165.74,118.45 -29.41,24.19 -53.72,48.59 -89.24,63.2 -17.11,7.29 -33.02,18.62 -40.95,35.64 -16.25,34.32 34.65,64.28 50.87,29.84 8.18,-16.9 31.6,-13.5 44.57,-23.54 26.25,-20.26 51.33,-41.94 76.6,-63.29 24.09,-20.5 49.91,-38.48 76.17,-56.24 -21.25,42.16 -41.73,85 -59.61,129.02 -12.95,1.63 -20.57,10.47 -23.2,21.15 -41.85,34.32 -89.88,59.8 -131.3,94.89 -49.58,42.07 -88.5,95.13 -141.65,133.16 -30.74,22.02 -1.3,73.23 29.74,51.12 52.85,-37.81 93.37,-87.29 140.45,-131.43 27.15,-25.05 58.19,-45 88.92,-65.48 -0.43,2.07 -1.42,3.92 -1.97,6.11 -20.05,64.71 -35.74,130.97 -49.36,197.99 -51.65,16.99 -80.1,73.21 -131.83,86.4 -36.85,9.48 -21.25,66.34 15.69,56.98 42.04,-10.78 68.42,-47.93 102.08,-71.25 -9.36,54.05 -16.89,108.75 -22.98,163.76 -15.9,8.5 -31.16,17.76 -46.76,27.46 -17.21,10.78 -39.45,36.85 -60.02,38.58 -37.59,3.37 -37.93,62.55 0,59.06 38.58,-3.28 67.86,-29.65 98.81,-52.42 -17.63,186.22 -22.42,374.21 -27.67,555.82 -5.22,187.34 -62.77,357.41 -85.87,540.04 -25.39,201.36 -53.71,436.29 -149.16,618.16 -91.64,174.79 -259.24,240.58 -434.43,298.13 -71.82,23.53 -154.63,25.17 -228.94,40.09 -100.26,20.29 -213.16,77.5 -316.45,63.54 -12.84,-1.73 -22.76,4.04 -29.18,12.2 -224.71,-7.42 -457.02,-42.38 -640.31,-160.93zm-925.98 -2913.08c-8.28,-52.84 -28.2,-128.24 -57.94,-207.25 0.52,0.77 1.17,1.85 1.73,2.5 61.25,87.2 108.41,178.59 152.77,275.58 86.42,188.41 161.91,403.39 207.47,605.74 95.87,424.95 86.86,861.7 162.99,1288.94 4.7,26.69 9.27,53.84 13.53,81.08 -284.63,-373.86 -1024.6,-527.93 -1361.74,-700.22 -370.81,-189.38 -857.45,-667.3 -703.81,-1127.47 69.31,-208.55 261.53,-540.56 526.2,-517.36 243.55,21.37 425.3,246.05 605.53,389.89 99.14,79.1 235.02,185.23 368.52,133.25 82.37,-32.25 96.52,-150.14 84.75,-224.68zm536.24 2416.96c-9.82,88.9 -37.06,191.32 -102.45,257.05 -67.99,68.2 -219.67,131.4 -260.85,-3.61 -81.39,-267.61 69.53,-533.28 -181.65,-745.11 -145.23,-122.34 -360.77,-161.79 -536.86,-215.62 -106.34,-32.68 -211.05,-68.45 -314.68,-107.21 21,-13.41 38.67,-32.71 56.99,-51.56 26.56,-27.36 -15.17,-69.18 -41.76,-41.85 -14.37,14.83 -35.74,48.28 -57.95,50.47 -12.2,1.3 -20.17,8.59 -24.43,17.55 -49.88,-19.31 -99.46,-39.14 -148.82,-59.96 2.38,-1.85 4.88,-3.49 7.17,-5.65 18.65,-17.54 40.43,-31.6 59.18,-49.14 27.8,-26.04 -14.18,-67.77 -41.95,-41.85 -9.7,9.39 -20.17,17.45 -30.73,25.6 -10.78,8.06 -23.54,24.62 -36.94,24.84 -12.97,0.34 -20.91,7.53 -25.05,16.67 -40.22,-17.97 -80.53,-36.5 -120.96,-55.78 30.52,-17.42 56.99,-56 78.33,-77.8 26.72,-27.25 -15.13,-69.07 -41.82,-41.73 -13.31,13.49 -25.94,27.89 -39.01,41.51 -8.96,9.39 -22.79,27.8 -36.42,29.65 -12.94,1.73 -19.05,9.79 -20.69,18.97 -49.02,-24.53 -97.95,-49.83 -146.01,-77.38 30.3,-13.96 52.51,-43.8 77.16,-69.53 26.56,-27.33 -15.17,-69.09 -41.64,-41.63 -14.48,15.04 -45.22,65.39 -69.74,61.37 -13.28,-2.19 -23.54,3.71 -29.96,12.2 -38.89,-24.43 -77.38,-49.79 -114.1,-77.03 15.91,-6.55 29.65,-18.53 41.64,-34.13 24.74,-32.9 65.91,-50.01 95.78,-78.24 27.8,-26.13 -14.06,-67.77 -41.73,-41.61 -24.74,23.11 -54.7,39.32 -80.52,61.35 -7.76,6.33 -28.67,41.42 -38.49,39.32 -13.38,-2.94 -23.75,2.75 -30.18,11.33 -46.85,-38.45 -91.3,-79.19 -131.09,-124.2 55.05,-15.59 93.41,-77.59 138.84,-108.88 31.17,-21.34 1.64,-72.67 -29.86,-50.99 -25.05,17.33 -47.73,36.94 -69.41,58.41 -9.26,9.05 -25.39,29.87 -40.43,39.9 -14.05,-6.02 -32.46,-2.1 -39.54,12.73 -28.66,-36.94 -54.7,-75.83 -77.71,-117.25 -0.22,-0.31 -0.31,-0.86 -0.43,-1.17 21.37,-5.9 38.92,-20.82 56.46,-37.84 42.59,-41.73 94.15,-74.75 141.87,-110.58 30.05,-22.45 0.74,-73.67 -29.96,-50.99 -40.56,30.51 -80,64.61 -122.94,91.73 -15.13,9.61 -48.06,55.04 -60.91,53.07 -3.92,-0.65 -7.5,-0.22 -11.12,0.34 -20.69,-43.15 -39.53,-87.42 -54.58,-132.85 0.44,-0.65 1.21,-0.87 1.64,-1.73 12.2,-20.82 34.23,-32.25 54.49,-45.13 50.34,-31.6 101.87,-63.84 154.41,-91.61 33.88,-17.67 3.92,-68.66 -29.87,-50.9 -48.28,25.51 -95.23,55.04 -141.78,83.8 -19.49,12.1 -39.22,23.75 -57.08,38.23 0,0 -0.34,0.34 -0.43,0.44 -11.68,-44.45 -21.68,-89.24 -27.89,-134.67 30.48,-23.11 60.78,-46.09 92.51,-67.56 27.76,-18.87 66.56,-59.27 100.44,-62.11 37.72,-3.15 37.93,-62.21 0,-59.06 -44.57,3.71 -68.85,28.23 -103.41,53.28 -32.03,23.11 -64.15,45.44 -96.31,68.33 -4.91,-63.63 -4.69,-127.38 1.95,-190.27 29.99,-54.15 112.25,-96.65 162.59,-129.45 51.77,-33.54 104.16,-84.32 161.05,-108.2 34.75,-14.36 19.61,-71.35 -15.6,-56.86 -70.05,29.09 -131.18,85.43 -194.59,126.6 -29.74,19.28 -65.61,40.44 -97.54,64.96 8.52,-40 20.29,-78.89 33.91,-117.25 17.76,6.64 41.08,-1.85 39.66,-26.16 -0.65,-10.35 141.65,-88.37 157.34,-100.57 59.59,-46.21 134.58,-86.3 202.22,-119.97 33.89,-17.11 4.05,-67.98 -29.96,-50.99 -87.5,43.67 -169.42,99.05 -250.28,154.28 -18.32,12.54 -48.83,25.39 -76.29,40.77 31.07,-62.02 70.17,-120.09 116.82,-173.8 4.91,19.92 30.51,34.65 48.61,15.25 52.94,-56.33 124.2,-81.41 193.85,-110.51 69.41,-29.07 131.18,-72.68 208.65,-77.68 37.71,-2.51 37.93,-61.56 0,-59.15 -91.52,6.2 -163.12,54.24 -245.71,88.8 -35.86,15.04 -71.48,29.62 -104.93,47.5 16.68,-13.62 32.47,-27.58 50.44,-40.3 200.83,-140.27 426.84,-172.17 666,-188.64 240.49,-16.24 493.4,-24.09 700.1,118.24 20.27,13.72 39.45,-2.28 42.5,-21.25 90.66,68.11 164.33,211.4 196.79,286.15 34.87,80.83 91.95,222.39 57.2,313.13 -51.08,133.38 -200.27,54.61 -266.62,5.9 -212.72,-156.13 -408.74,-406.54 -677.46,-464.3 -208.12,-44.79 -418.19,141 -518.54,304.24 -123.46,200.93 -199.53,430.39 -107.12,660.1 135.32,336.71 391.29,627.98 721.01,785.63 372.79,178.16 792.52,264.8 1133.15,508.1 114.93,82.17 233.6,189.5 287.01,322.53 8.49,51.25 17.85,102.77 29.09,153.33 -0.34,11.77 -0.77,23.54 -2.07,35.64zm1641.99 953.88c0,157 3.93,314.59 -3.4,471.5 -3.58,79.19 20.05,143.59 57.55,200.49 -5.78,5 -9.92,12.08 -9.92,21.99 0,34.32 -139.36,82.93 -158.64,89.36 -73.35,24.31 -148.63,28.76 -225.23,28.76 -50.47,0 -113.76,13.74 -166.39,19.08 -80.86,8.37 -144.49,-5.9 -224.49,-16.68 -36.82,-5 -76.48,-17.32 -117.34,-31.5 72.46,-122.9 98.93,-275.24 114.4,-413.83 23.88,-212.91 -33.88,-410.81 -64.06,-617.08 30.09,3.06 60.14,5.35 90.23,7.2 13.18,140.88 55.56,272.95 57.54,417.75 1.3,97.86 -8.83,191.48 -28.45,287.69 -6.42,31.48 -12.54,109.72 -31.81,134.58 -23.11,29.62 18.5,71.69 41.73,41.73 58.4,-75.18 61.56,-226.56 72.89,-319.5 11.65,-96.87 5.34,-197.99 -1.2,-295.07 -6,-91.21 -40,-174.67 -50.57,-264.68 26.17,0.99 51.99,1.3 77.93,1.64 -1.2,3.06 -1.85,6.33 -1.85,10.13 2.38,60.69 13.93,119.32 26.04,178.81 16.77,83.15 6.08,178.93 13.4,264.24 3.37,37.5 62.43,37.93 59.15,0 -6.42,-72.55 -9.79,-142.73 -9.79,-215.53 0,-76.7 -26.72,-150.49 -29.74,-227.52 0,-3.58 -1.11,-6.55 -2.2,-9.48 28.98,0 57.76,0 85.87,-0.31 20.91,-0.34 29.87,-18.23 28.02,-34.01 82.9,-20.48 165.83,-49.79 245.8,-63.1 86.64,-14.58 172.17,-30.83 252.82,-59.37 -21.16,132.51 -98.29,256.71 -98.29,392.71zm2037.63 4170.08c0,-328.21 -23.84,-657.6 -28.88,-986.03 9.18,-6.42 13.62,-17.42 12.54,-28.01 16.25,-8.93 23.63,-32.78 7.72,-46.64 -88.24,-76.82 -167.25,-182.06 -251.05,-265.64 -53.16,-53.4 -121.91,-95.13 -177.17,-147.76 -56.56,-54.06 -103.2,-118 -158.55,-173.47 -124.63,-124.54 -243.21,-341.62 -410.56,-420.5 -1.11,-2.94 -2.75,-5.66 -4.82,-8.37 -0.65,-0.99 -1.08,-2.07 -2.07,-2.97 -0.09,-0.09 -0.21,-0.22 -0.3,-0.31 -4.7,-4.91 -11.46,-8.4 -20.39,-8.4l-29.62 0c-0.34,0 -0.56,0.12 -0.9,0.12 -277.96,0.1 -554.74,2.29 -831.93,12.85 -4.57,-7.41 -12.1,-12.97 -23.53,-12.97l-29.53 0c-2.41,0 -4.79,0.77 -7.11,1.42 -22.98,-54.92 -41.29,-111.04 -56.52,-163.12 -32.49,-111.47 -10.26,-254.54 -10.26,-369.82 0,-90.22 22.68,-185.26 43.25,-272.73 0.34,-1.42 0,-2.41 0.12,-3.62 21.34,-5.56 42.5,-12.41 62.98,-21.12 71.91,-30.95 139.71,-106.91 165.4,-180.45 32.16,-92.08 8.84,-154.41 8.84,-245.71 0,-24.09 -23.75,-32.8 -41.08,-26.38 -19.49,-21.59 -39.66,-43.27 -62.21,-58.07 -145.26,-95.9 -132.94,-261.09 -132.94,-411.58 0,-144.37 -8.28,-289.72 21.13,-431.93 20.91,-102.08 65.05,-195.8 78.79,-298.68 2.07,-4.02 3.49,-8.37 3.49,-13.72l0 -5.34c43.37,-20.26 85.19,-44.79 124.11,-77.16 278.61,-230.33 266.31,-602.99 342.7,-929.25 43.46,-185.24 61.65,-367.75 64.4,-557.56 3.15,-231.44 28.2,-459.08 65.48,-687.68 34.66,-211.92 99.03,-400.98 205.71,-587.55 95.57,-167.04 209.11,-322.74 300.85,-492.28 8.28,-15.26 1.97,-40.09 -17.55,-43.37 -112.12,-18.32 -232.74,0.22 -344.86,11.43 -149.83,14.83 -297.26,0.86 -445.55,-12.42 -150.05,-13.74 -301.19,11.86 -450.47,-7.5 -135.87,-17.55 -269.25,-22.03 -405.99,-22.03 -162.68,0 -1875.31,34.54 -1875.31,0 0,-38.24 -58.93,-38.24 -58.93,0l-14.83 0c-6.52,0 -11.55,2.07 -15.69,4.92 -69.75,-92.51 -156.48,-155.28 -258.56,-137.95 -190.49,-82.72 -407.75,-78.58 -615.01,-63.1 -207.9,15.78 -434.86,31.6 -616.73,144.92 -390.21,242.35 -565,686.57 -438.05,1132.68 4.05,14.18 8.83,28.11 13.4,42.17 -6.54,14.51 -0.34,33.14 13.41,40.12 124.11,342.02 383.13,570.96 712.3,735.06 177.51,88.59 362.62,170.32 550.26,235.71 138.94,48.46 279.94,89.88 420.63,133.15 128.47,39.76 293.1,81.27 389.65,183.6 145.02,153.85 101.65,326.58 106.13,514.31 1.85,78.02 3.71,190.79 66.69,248.65 170.19,156.81 377.57,-72.13 417.54,-236.02 39.66,123.68 96.43,239.63 188.29,336.37 95.91,101.13 212.72,165.53 338.78,206.27 20.81,148.75 88.36,287.35 107.55,438.17 14.39,112.34 9.6,227.09 -17.21,337.23 -27.89,115.61 -152.89,179.03 -258.9,223.51 -1.98,0.09 -3.49,0.64 -5.34,0.95 -11.12,-2.38 -23.66,0.56 -31.94,11.99 -1.42,1.97 -2.59,3.92 -3.92,5.77 -5.22,4.05 -8.84,9.61 -11,15.91 -80.74,122.81 -146.44,326.58 -5.77,431.75 50.99,38.02 107.11,63.63 165.95,81.48 -9.91,3.49 -17.45,12.2 -16.46,26.5 6.64,88.37 40.31,169.11 49.58,257.26 12.41,115.06 -1.64,228.48 -30.3,340.08 -21.22,82.81 -69.29,172.04 -127.69,244.2 -4.36,-8.31 -12.11,-14.61 -24.41,-14.61 -253.89,0 -503.96,25.82 -757.52,28.44 -10.59,-17.66 -38.48,-15.9 -50.56,3.03 -13.53,5.25 -19.09,19.4 -17.02,32.59 -56,105.14 -171.61,198.11 -260.29,261.83 -87.5,62.89 -151.81,171.43 -215.01,255.66 -82.68,110.05 -170.31,216.92 -246.05,331.79 -52.08,78.98 -128.25,149.07 -158.73,239.94 -17.24,-4.48 -36.42,7.94 -37.28,27.89 -12.64,298.56 -3.15,597.68 -0.44,896.33 2.51,270.58 29.32,538.4 29.87,808.08 -21.03,16.03 -16.46,56.56 15.01,52.64 402.19,-49.89 823.13,-23.2 1225.54,14.82 195.39,18.41 396.41,14.06 592.88,21.04 200.84,7.19 403.06,18.31 603.02,-6.34 99.93,-12.29 209.42,0 310.12,0 113.97,0 230.79,-19.27 345.51,-21.25 212.6,-3.58 424.42,-19.49 636.47,-22.85 402.31,-6.77 801.87,33.97 1203.41,42.93l0 1.17c0,16.04 13.41,29.53 29.41,29.53l14.73 0c17.21,0 28.11,-13.62 29.62,-29.53 13.84,-143.38 -8.06,-293.09 28.45,-435.08 34.97,-136.74 1.08,-317.31 1.08,-459.39z"/>
   <path class="fil0" d="M5031.81 8482.22c-124.01,29.53 -272.09,4.48 -397.4,-1.94 -144.58,-7.54 -289.63,-4.7 -434.65,-4.7 -299.11,0 -591.9,2.29 -889.47,36.17 -248.25,28.23 -713.72,138.6 -883.17,-107.55 -80.53,-116.91 -63.32,-294.08 -66.91,-428.87 -2.84,-105.39 -10.34,-208.68 -27.67,-311.88l6.86 0c6.54,0 11.89,-2.28 16.24,-5.34 282.75,-25.05 565.19,-52.29 848.61,-67.43 301.93,-16.24 601.6,3.8 903.22,5.44 147.74,0.86 295.41,-3.15 443.05,-5.22 145.24,-2.19 295.41,-24.31 437.8,10.78 194.29,47.94 233.42,320.46 247.91,482.62 15.04,169.33 -14.49,352.58 -204.42,397.92zm200.71 -702.94c-108.07,-289.07 -371.45,-250.16 -626.55,-248.09 -373.1,2.94 -745.32,-9.91 -1118.08,-8.31 -390.42,1.77 -779.76,45.13 -1168.32,79.36 -14.71,-24.65 -60.05,-8.75 -52.98,24.71 0.25,1.32 0.34,2.74 0.68,4.04 -0.89,6.55 0.22,13.19 3.37,18.75 32.59,175.44 27.68,352.83 39.1,530.56 6.89,104.27 24.1,214.64 96.25,296.37 180.66,204.32 558.11,131.08 793.35,106.56 373.09,-39.11 737.04,-48.59 1111.9,-48.59 177.82,0 354.46,8.4 532.07,14.06 100.01,3.36 239.16,10.99 322.31,-57.33 196.79,-161.92 146.44,-499.83 66.9,-712.09z"/>
   <path class="fil0" d="M2599.29 7738.33c-3.28,-10.35 -6.86,-20.39 -11.77,-29.53 -14.95,-29.01 -49.79,-34.01 -79.11,-29.31 -8.83,1.42 -14.82,6.3 -20.29,12.75 -5.1,-0.21 -10.44,0.74 -16.12,4.79 -10.35,7.41 -20.48,16.9 -29.84,27.24 -10.25,2.84 -19.61,7.08 -24.96,13.62 -21.59,26.13 -31.07,79.66 -8.06,108.64 0.77,1.94 0.99,3.79 1.95,5.65 28.44,61.37 116.17,68.45 162.68,25.3 6.33,-5.9 11.55,-12.42 16.13,-19.4 0.89,-0.65 1.76,-1.21 2.74,-1.98 31.91,-28.11 34.85,-87.94 6.65,-117.77z"/>
   <path class="fil0" d="M2714.56 8292.2c-2.16,-1.85 -4.7,-3.27 -6.98,-5.03 0.21,-2.38 0,-4.66 0,-7.07 0.12,-1.21 0.46,-2.2 0.46,-3.49 5,-13.07 5.65,-27.34 0.43,-41.95 22,-13.62 17.33,-55.04 -14.73,-54.36 -11.55,0.21 -22.21,2.38 -32.56,5.31 -5.12,-1.73 -10.47,-3.15 -15.9,-3.8 -2.84,-0.65 -5.56,-1.3 -8.53,-1.3l-0.31 -0.21c-43.8,-6.77 -80,21.9 -85.65,63.5 -5.13,12.11 -8.92,24.87 -10.13,39.57 -3.71,43.15 17.64,84.97 58.41,100.66 37.16,14.61 75.95,-10.65 93.71,-42.68 23.76,-0.34 44.11,-29.53 21.78,-49.15z"/>
   <path class="fil0" d="M4808 7724.8c-10.69,-56.22 -95.01,-88.68 -145.05,-71.57 -34.41,11.77 -62.08,53.71 -66,94.02 -3.93,8.93 -6.68,18.63 -6.24,28.45 2.31,49.48 61.15,102.08 110.61,93.06 68.44,-12.88 119.75,-74.22 106.68,-143.96z"/>
   <path class="fil0" d="M4913.92 8226.17c-4.05,1.85 -7.63,4.66 -11.25,7.41 -1.17,0.22 -2.07,0 -3.24,0.22 -52.42,10.99 -64.74,64.92 -49.27,108.07 -4.01,4.7 -8.06,9.17 -11.42,15.38 -9.92,17.98 -0.22,36.61 17.63,43.46 20.26,7.76 42.84,5.04 63.54,-3.92 8.71,0 17.85,-0.87 27.77,-4.45 93.28,-32.37 68.32,-211.08 -33.76,-166.17z"/>
   <path class="fil0" d="M4066.91 7840.63c-146.22,0 -285.46,15.81 -431.93,2.31 -157.22,-14.39 -312.83,18.29 -468.87,10.13 -74.2,-3.92 -330.38,-67.67 -339.52,61.44 -2.72,38.02 56.34,37.71 59.06,0 1.85,-27.03 125.18,-15.48 147.64,-14.8 110.92,3.37 210.96,13.84 322.53,2.17 128.46,-13.07 261.96,-1.3 389.99,10.25 106.34,9.79 214.33,-12.42 321.1,-12.42 38.15,0 38.15,-59.08 0,-59.08z"/>
   <path class="fil0" d="M4140.7 8106.41c-211.3,-13.74 -441.32,17.55 -648.11,-23.75 -181.65,-36.41 -392.52,-5.77 -577.54,-5.77 -38.12,0 -38.12,59.05 0,59.05 207.81,0 414.08,-8.4 620.13,14.83 186.22,20.91 379.09,4.57 567.25,12.94 2.85,0.9 5.35,1.76 8.62,1.76l29.65 0c38.46,0 37.69,-56.55 0,-59.06z"/>
   <path class="fil0" d="M3402.67 8331.86c-53.15,-29.52 -119.41,-19.39 -178.03,-15.9 -89.02,5.22 -175.78,11.86 -265.24,11.86 -38.02,0 -38.02,59.18 0,59.18 59.06,0 126.95,9.36 185.02,-1.11 58.97,-10.44 171.95,-34.54 228.29,-3.03 33.33,18.72 63.11,-32.37 29.96,-51z"/>
   <path class="fil0" d="M2845.21 7330.79c-3.58,-24.3 -12.75,-49.14 -19.73,-68.97 -12.42,-35.64 -69.5,-20.26 -56.87,15.69 7.29,20.91 12.42,39.79 18.75,61.99 4.23,16.34 -0.22,40.99 -0.22,58.2l0 59.05c0,38.15 58.94,38.15 58.94,0 0,-41.08 5.13,-85.43 -0.87,-125.96z"/>
   <path class="fil0" d="M3289.25 7279.58c-0.34,-38.02 -59.39,-38.14 -59.05,0 0.52,56 9.14,111.26 9.79,167.26 0.34,38.15 59.4,38.15 59.06,0 -0.53,-56 -9.27,-111.26 -9.8,-167.26z"/>
  </g>
 </g>
</svg>
