<?xml version="1.0" encoding="UTF-8"?>
<!DOCTYPE svg PUBLIC "-//W3C//DTD SVG 1.1//EN" "http://www.w3.org/Graphics/SVG/1.1/DTD/svg11.dtd">
<!-- Creator: CorelDRAW 2020 (64-Bit) -->
<svg xmlns="http://www.w3.org/2000/svg" xml:space="preserve" width="76.1998mm" height="88.8712mm" version="1.1" style="shape-rendering:geometricPrecision; text-rendering:geometricPrecision; image-rendering:optimizeQuality; fill-rule:evenodd; clip-rule:evenodd"
viewBox="0 0 7619.98 8887.12"
 xmlns:xlink="http://www.w3.org/1999/xlink"
 xmlns:xodm="http://www.corel.com/coreldraw/odm/2003">
 <defs>
  <style type="text/css">
   <![CDATA[
    .fil0 {fill:black;fill-rule:nonzero}
   ]]>
  </style>
 </defs>
 <g id="Слой_x0020_1">
  <metadata id="CorelCorpID_0Corel-Layer"/>
  <g id="_2194276644656">
   <path class="fil0" d="M4945.37 7139.01c-11.14,-13.64 -35.4,-17.99 -47.44,-3.67 -2.41,2.96 -5.49,6.07 -8.12,9.03 -134.28,-36.08 -262.22,-51.31 -404.07,-73.2 -114.56,-17.76 -228.31,-88.88 -334.27,-134.73 -57.97,-24.97 -121.32,-40.75 -181.01,-63.68 174.38,-20.62 326.49,-85.01 483.56,-163.69 182.73,-91.42 379.06,-148.93 561.56,-240.34 9.74,6.3 19.12,13.15 28.31,21.17 62.55,54.43 94.05,145.03 116.71,221.11 59.36,198.74 -110.99,297.26 -215.23,428zm31.14 315.48c155.13,222.6 -55.66,362.01 -251.21,402.57 -0.13,0 -0.23,0.23 -0.58,0.23 -2.18,-0.46 -4.13,-1.4 -6.63,-1.4 -71.05,0 -139.08,-47.18 -211.14,-54.3 -124.86,-12.24 -236.21,-29.09 -355.03,-68.71 -64.59,-21.56 -197.01,-79.07 -269.88,-136.45 14.41,-3.09 28.86,-6.3 43.41,-9.39 139.86,-30.81 292.23,-36.11 428.32,-75.63 124.9,-36.53 236.93,-72.38 350.23,-138.14 61.86,-35.75 135.74,-90.96 192.56,-145.96 -19.81,80.79 36.44,164.63 79.95,227.18zm-291.9 521c-33.67,31.98 -71.34,56.6 -112.49,73 -28.86,-4.61 -54.42,0.91 -76.28,12.47 -30.13,-13.28 -73.22,-9.84 -104.95,9.74 -100.7,-6.2 -204.58,-28.19 -301.06,-48.68 -108,-23.02 -212.6,-9.19 -319.6,-46.76 -67.71,-23.8 -95.67,-42.47 -147.92,-94.72 -8.8,-8.71 -19.9,-9.06 -31.27,-9.06 -7.43,-29.55 -15,-58.55 -22.89,-85.8 -12.83,-44.91 -27.96,-89.14 -44,-132.88 96.35,-4.84 190.84,-21.33 284.79,-40.78 17.63,12.82 64.17,51.43 76.99,58.77 79.72,44.56 163.34,91.87 249.49,121.87 106.78,37.48 203.35,56.15 315.61,65.63 89.82,7.57 170.71,55.69 257.42,59.14 4.12,16.36 6.3,31.95 9.15,47.76 -12.01,0.59 -24.16,1.82 -32.99,10.3zm-961.6 248.03c4.94,-2.63 9.52,-5.94 12.83,-10.3 1.72,-2.53 2.99,-4.93 4.71,-7.33 3.21,3.31 5.84,6.85 9.74,10.06 6.17,5.04 14.55,9.52 22.9,9.39 5.06,7.01 10.42,13.41 16.04,19.16 -39.07,-4.36 -64.59,-9.65 -64.59,-16.05 0,-2.07 -1.27,-3.11 -1.63,-4.93zm853.92 292.58c-3.09,5.04 -6.53,9.97 -9.74,15.13 -13.97,-10.65 -36.86,-8.02 -46.37,7.54 -116.97,-0.23 -231.54,-3.64 -347.6,-11.79 -30.1,-2.99 -60.23,-4.94 -89.92,-5.39 -16.72,-1.01 -33.44,-2.27 -50.17,-3.08 -29.32,-8.84 -59.23,-14.2 -91.31,-10.53 -3.77,0.33 -6.98,1.69 -10.3,2.96 -54.29,-6.3 -103.78,-28.64 -157.98,-33.68 -30.68,-63.22 -56.37,-130.6 -78.13,-199.67 130.38,50.52 297.07,53.84 434.62,46.86 97.16,-5.04 194.32,-1.95 291.35,-10.79 91.06,-8.11 174.12,-47.18 265.67,-54.16 5.13,-0.23 9.93,-2.08 14.32,-4.35 -25.79,87.16 -68.65,171.94 -124.44,260.95zm-376.43 301.74c-1.95,-9.28 -4.48,-19.25 -7.34,-29.42 2.31,-0.26 4.71,0 6.89,-0.35 9.61,8.7 19.8,15.91 31.4,19.8 10.75,3.58 22.31,-0.78 30.23,-8.02 5.39,-4.9 8.7,-11.56 12.14,-18.08 34.13,-8.48 68.26,-26.02 99.08,-48.68 10.78,-2.31 21.34,-5.62 31.86,-9.97 -61.05,52.22 -129.8,89.11 -204.26,94.72zm-698.69 -1224.5c-41.34,-108.13 -85.47,-215.36 -114.34,-328.11 -78.68,-307.45 231.76,-359.12 467.29,-381.23 52.7,33.09 108.62,52.44 172.07,71.47 123.82,37.12 234.27,119.15 356.98,154.18 71.02,20.4 167.14,47.68 241.12,47.68 79.39,0 146.29,14.77 215.71,34.81 -55.56,48.93 -126.58,100.83 -167.91,127.62 -121.68,78.71 -247.58,94.53 -382.08,133.69 -102.52,29.91 -220.63,37.57 -325.91,62.09 -46.72,10.91 -93.81,21.43 -141.03,31.63 -6.39,-1.5 -13.51,-1.72 -21.53,-1.72 -10.55,0 -18.21,4.48 -23.15,10.78 -89.79,18.08 -180.52,32.4 -271.83,35.85 -2.08,0 -3.54,0.91 -5.39,1.26zm-218.13 -1033.65c-15.58,-28.55 -28.51,-58.23 -38.93,-89.14 -42.51,-118.46 89.01,-170.68 182.95,-175.97 98.3,-5.49 205.49,15.13 301.06,36.66 155.32,35.07 308.85,77.9 466.8,98.75 187.67,24.87 384.36,-3.54 572.8,-8.7 59.46,-1.72 118.01,-0.91 172.53,14.32 -120.74,56.14 -246.54,100.02 -370.71,148.6 -129.67,50.49 -248.49,125.99 -378.61,176.75 -101.38,39.52 -214.13,47.54 -326.62,55.56 -3.31,-2.53 -6.62,-4.48 -9.83,-7.11 -19.03,-15.59 -43.19,-4.68 -51.34,11.82 -99.21,7.99 -196.7,19.9 -284.66,58.29 -111.36,-71.61 -173.12,-206.89 -235.44,-319.83zm205.3 -2065.17c-0.68,0 -1.36,0.23 -2.05,0.23 -182.63,2.76 -362.36,-68.71 -501.54,-184.42 -81.67,-67.93 -141.36,-176.55 -91.77,-281.93 73.68,-156.49 291.54,-59.59 378.5,13.51 127.4,106.54 180.88,292 216.86,452.61zm1479.28 -182.82c0.59,-3.31 0.69,-6.76 1.27,-9.97 12.37,-83.75 38.71,-168.96 76.05,-245.04 68.42,-42.06 84.56,-22.8 48.71,57.64 -15.71,69.16 -67.12,132.97 -112.74,184.18 -4.36,4.81 -8.8,8.48 -13.29,13.19zm-968.12 -513.21c-13.96,-139.76 86.15,-260.99 224.52,-272.55 182.27,-15.45 202.08,212.51 173.93,333.83 -26.37,114.21 -94.53,219.48 -185.72,310.44 -110.44,-97.94 -197.37,-216.63 -212.73,-371.72zm-245.4 1801.29c-21.98,-237.25 -72.61,-475.99 -120.96,-708.89 -21.53,-104.01 -39.16,-220.4 -63.36,-336.78 18.45,-1.72 36.57,-4.12 54.07,-7.34 193.61,-34.58 416.89,-142.52 585.62,-294.08 203.02,174.71 453.56,293.17 684.28,180.91 -8.15,139.51 -3.22,279.04 -7.11,419.26 -5.04,188.8 -69.89,377.6 -121.55,557.57 -89.11,310.9 -190.39,615.17 -319.83,911.07 -12.27,2.89 -22.8,12.27 -22.8,28.64l0 23.74c-152.59,6.98 -300.05,-14.55 -449.88,-49.27 -61.63,-14.09 -126.26,-31.4 -192.34,-47.31 4.22,-4.84 6.85,-11.36 5.85,-20.39 -26.92,-217.9 -11.69,-438.42 -31.99,-657.13zm-533.01 659.86c-40.34,-65.86 -80.44,-131.75 -120.77,-197.51 2.99,0.49 5.75,1.04 8.83,0.59 40.43,-5.62 68.84,-51.44 91.19,-81.22 33.9,-45.14 83.97,-74.23 124.4,-113.2 28.87,-27.6 -15.1,-71.47 -43.97,-43.74 -36.43,35.04 -83.42,61.73 -115.25,100.93 -18.12,21.98 -42.28,73.19 -72.87,77.32 -10.65,1.49 -16.82,7.11 -19.93,14.09 -76.51,-124.86 -153.15,-249.62 -229.23,-374.84 5.26,-0.91 10.55,-2.53 15.58,-6.53 47.77,-38.25 83.3,-87.64 126.36,-130.7 51.21,-50.89 115.93,-84.11 168.5,-133.24 29.36,-27.28 -14.64,-71.15 -43.87,-43.77 -47.18,43.77 -104.11,80.08 -154.64,120.54 -52.34,42.02 -87.64,101.15 -140.22,143.3 -0.68,0.46 -0.81,1.14 -1.39,1.59 -30.24,-49.81 -60.7,-99.43 -90.73,-149.37 4.02,0.45 8.6,-0.1 13.64,-2.18 45.81,-18.9 78.81,-52.35 111.93,-88.65 45.59,-50.21 86.7,-93.62 143.76,-131.88 33.12,-21.98 2.08,-75.82 -31.27,-53.48 -43.97,29.42 -86.61,59.2 -120.74,99.99 -33.12,39.42 -71.24,93.94 -120.28,114.11 -11.82,4.93 -17.66,14.77 -19.48,25.1 -70.57,-117.65 -140.45,-235.56 -209.07,-354.22 13.64,1.5 28.19,-4.25 33.91,-20.62 14.09,-40.56 77.45,-74.69 106.64,-101.74 61.18,-56.92 119.95,-112.03 189.48,-159.12 32.99,-22.47 1.95,-76.31 -31.27,-53.74 -67.81,45.95 -129.12,97.39 -187.4,154.9 -44.33,43.41 -112.04,78.81 -135.55,139.08 -0.78,-1.49 -1.69,-3.12 -2.73,-4.71 -35.16,-61.18 -69.33,-123.49 -102.87,-185.94 59.56,-8.93 95.18,-53.61 131.06,-99.53 52.45,-67.71 133.34,-98.52 195.43,-156.85 29.22,-27.37 -14.78,-71.11 -44.01,-43.87 -26.92,25.33 -56.24,45.82 -87.51,65.53 -20.85,13.29 -50.53,24.98 -67.58,43.19 -30.59,32.41 -66.11,102.2 -111.71,124.08 -13.63,-12.27 -38.25,-9.97 -48.12,6.4 -33.09,-63.22 -65.73,-126.71 -96.32,-191.07 10.75,6.3 24.52,6.85 36.08,-4.26 116.74,-111.8 254.79,-200.45 372.53,-310.31 29.46,-27.5 -14.64,-71.15 -43.87,-44 -117.75,109.86 -255.92,198.77 -372.53,310.44 -4.81,4.71 -7.11,9.87 -8.25,15.01 -30.13,-64.72 -59.13,-130.12 -85.34,-196.24 4.58,-1.27 9.03,-3.54 13.28,-7.66 68.26,-68.3 137.01,-143.44 218.35,-196.47 69.89,-45.26 124.51,-110.21 194.52,-155.8 33.45,-21.66 2.27,-75.5 -31.27,-53.52 -77.81,50.43 -139.77,120.18 -217.31,170.71 -74.01,48 -138.05,120.06 -200.27,182.96 -23.38,-62.22 -45.23,-125.12 -64.13,-188.71 151.78,-148.92 319.47,-279.85 472.65,-426.82 28.99,-27.61 -15.01,-71.48 -43.88,-43.87 -144.92,138.82 -302.19,263.94 -447.22,402.76 -19.93,-74.92 -37.7,-150.38 -50.07,-227.51 4.58,-1.23 9.16,-3.31 13.41,-7.08 88.78,-79.98 160.71,-175.38 242.97,-261.67 94.49,-99.2 202.43,-185.68 300.37,-281.7 28.64,-28.06 -15.36,-71.93 -43.87,-43.87 -89.46,87.51 -182.04,173.11 -274.95,256.73 -90.27,81.22 -160.48,181.69 -248.03,265.99 -4.45,-36.4 -8.25,-72.97 -10.88,-109.95 -4.12,-58.78 -4.67,-116.52 -2.63,-173.22 7.34,0.23 14.91,-2.3 21.53,-9.38 88.56,-94.08 170.13,-187.31 269.69,-270.83 54.39,-45.49 108.27,-93.59 164.84,-136.32 40.78,-30.49 95.89,-90.86 133.46,-115.83 33.35,-21.89 2.18,-75.73 -31.27,-53.49 -90.6,59.79 -167.27,145.94 -252.71,214.33 -110.89,88.91 -204.16,186.85 -300.15,288.91 10.65,-118.69 34.26,-232.31 69.75,-340.12 0.72,-0.46 1.4,-0.33 2.08,-0.91 128.66,-84.53 238.97,-221.89 347.92,-330.84 75.14,-75.27 150.97,-149.28 232.77,-217.31 41.24,-34.39 87.87,-91.9 136.68,-130.61 11.92,18.9 48.22,21.21 57.61,-7.34 5.16,-15.45 10.42,-31.04 15.58,-46.63 6.89,-20.72 -16.36,-47.18 -38.25,-38.12 -119.6,49.72 -237.61,193.7 -331.88,281.67 -75.95,70.7 -147.91,145.84 -221.2,219.16 -48.13,48.13 -104.28,110.54 -160.97,161.43 229.68,-553.54 771.79,-944.65 1381.8,-1095.88 381.36,-94.62 787.7,-80.3 1159.68,45.95 410.01,139.28 718.96,459.6 909.48,840.51 440.37,880.25 149.73,1981.74 -185.72,2843.55 -102.87,264.3 -220.85,522.52 -342.39,778.67 -13.29,2.18 -25.2,11.56 -25.2,28.97l0 29.09c-26.37,-9.15 -54.66,-15.68 -85.25,-18.44 -125.89,-11.33 -261.76,-2.5 -388.34,8.38 135.41,-307.59 228.64,-622.51 332.78,-942.15 54.88,-168.37 97.84,-343.3 119.5,-519.05 20.95,-170.35 2.63,-341.72 14.65,-512.75 22.11,-15.59 44.1,-32.54 65.66,-52.84 47.77,-45.23 248,-357.85 100.34,-398.41 -164.28,-45.27 -216.76,321.55 -225.46,404.16 -0.68,7.11 -0.78,14.19 -1.49,21.53 -173.22,111.94 -374.35,25.43 -543.44,-89.69 -33.45,-22.7 -66.22,-47.09 -97.97,-72.41 83.87,-85.12 150.31,-181.69 185.58,-285.57 82.16,-242.32 -48.55,-552.41 -341.72,-426.64 -320.64,137.46 -108.72,554.81 58.42,711.98 2.31,2.08 4.71,4.12 6.89,6.2 -173.12,151.33 -409.1,254.07 -610.27,276.41 -54.07,-232.31 -142.95,-455.47 -353.63,-570.03 -205.4,-111.81 -479.54,68.39 -363.38,302.65 112.03,225.69 409.33,338.17 663.17,335.09 37.12,174.12 72.74,349.28 106.22,524.44 40.07,208.61 77.87,419.98 93.36,632.03 13.28,181.1 0.23,362.33 22.57,542.79 0.32,3.08 1.59,5.36 2.5,7.89 -149.83,-33.22 -304.5,-52.8 -445.5,-6.66 -15.46,5.07 -28.64,11.47 -40.69,18.8 -3.31,-9.28 -10.65,-14.9 -19.22,-17.3zm1855.71 834.23c141.49,-133.36 184.67,-288.81 119.37,-471.77 -29.78,-83.03 -75.82,-149.37 -137.59,-195.19 -1.95,-16.63 -17.63,-31.18 -36.53,-27.83 0.45,-0.82 1.14,-1.4 1.59,-2.18 389.52,-817.03 751.53,-1685.39 769.03,-2603.8 14.91,-778.55 -288.69,-1602.46 -1037.32,-1943.13 -633.17,-288.23 -1401.97,-171.62 -1987.14,173.66 -311.8,184.1 -573.34,452.26 -731.42,778.78 -171.98,354.9 -176.33,767.53 -96.12,1146.59 86.15,407.48 293.59,781.18 498.88,1138.61 238.88,416.08 495.12,822.29 745.33,1231.71 1.95,2.99 4.22,5.52 6.75,7.7 -88.55,154.64 141.36,477 267.03,584.35 -8.8,5.49 -17.73,10.65 -26.24,16.82 -144.44,104.73 -124.05,294.99 -80.63,443.36 38.16,130.84 96.12,255.47 141.13,384 47.9,137 74.69,281.7 109.86,422.38 63.58,254.2 272.41,754.58 610.95,707.52 203.34,-28.31 339.99,-216.76 441.96,-379.09 79.49,-126.58 125.8,-244.69 135.05,-371.17 1.5,-2.4 3.22,-4.58 4.48,-6.98 16.37,-35.07 11.01,-66.12 -5.16,-89.24 -3.21,-41.6 -8.93,-84.2 -19.94,-128.75 114.57,-26.92 249.62,-79.17 297.65,-193.51 29.65,-71.15 29.42,-134.38 8.7,-208.25 -12.5,-44 -46.76,-84.89 -72.41,-121.78 -79.4,-114.24 -8.25,-216.63 72.74,-292.81z"/>
   <path class="fil0" d="M1520.19 4751.16l-15.49 0c-20.49,0 -30.33,16.27 -29.87,32.18 -31.99,20.49 -94.4,44.45 -109.99,54.42 -66.44,41.7 -129.21,71.25 -202.31,100.93 -48.58,19.68 -94.17,40.66 -139.99,66.67 -38.48,21.88 -90.27,60.24 -131.51,73.06 -33.22,10.1 -27.51,60.95 8.24,60.95l15.46 0c13.19,0 21.56,-6.98 26.01,-15.91 27.38,-15 51.8,-35.07 81.35,-47.44 78.45,-33.45 153.4,-75.73 232.77,-108.59 65.88,-27.38 112.84,-58.32 172.3,-95.76 43.19,-27.05 98.29,-23.26 119.82,-73.69 8.93,-20.84 -1.03,-46.82 -26.79,-46.82z"/>
   <path class="fil0" d="M898.14 4013.4c-4.71,-18.9 -13.06,-24.65 -29.78,-34.16 -18.58,-10.65 -35.66,-0.23 -42.86,14.67 -116.52,8.93 -232.68,27.74 -349.42,27.74 -150.28,0 -296.8,-5.85 -446.18,-15.59 -39.97,-2.63 -39.75,59.46 0,62.19 135.28,8.73 267.48,15.36 403.71,15.36 146.52,0 288.46,-23.35 434.62,-31.05 20.39,-0.91 35.07,-18.9 29.91,-39.16z"/>
   <path class="fil0" d="M1085.54 3090.15c-153.96,-2.95 -306.9,-14.19 -461.22,-15.1 -0.55,0 -1,-0.45 -1.59,-0.45l-18.44 0c-39.98,0 -39.98,62.18 0,62.18 161.06,0 320.54,12.38 481.25,15.46 40.1,0.81 40.1,-61.28 0,-62.09z"/>
   <path class="fil0" d="M1281.55 2110.7c-98.4,-61.77 -200.69,-113.08 -304.6,-164.97 -80.76,-40.43 -155.9,-94.98 -240.24,-127.39 -19.12,-7.34 -39.29,11.33 -39.29,30l0 15.46c0,27.86 29.78,35.88 48.13,25.1 131.38,54.75 259.13,140 386.39,203.45 40.89,20.52 304.15,232.34 341.49,210.46 -34.48,20.16 -3.18,73.78 31.4,53.48 4.81,-2.73 9.75,-5.72 14.42,-8.48 9.06,-5.26 15.95,-16.04 15.36,-26.79 -4.45,-90.27 -192.11,-172.4 -253.06,-210.32z"/>
   <path class="fil0" d="M2069.93 1748.68c-66.76,-55.2 -142.39,-104.69 -216.4,-149.6 -44.65,-27.05 -79.36,-90.28 -139.73,-75.63 -13.41,3.12 -22.8,16.4 -22.8,29.81l0 15.68c0,31.96 39.52,38.03 55.31,18.55 26.59,13.86 66.34,59.46 84.2,70.37 66.47,40.3 135.54,85.11 195.55,134.83 30.59,25.19 74.82,-18.35 43.87,-44.01z"/>
   <path class="fil0" d="M2943.24 1260.55c-27.15,-155.58 -132.2,-309.86 -197.28,-449.08 -51.21,-109.27 -108.85,-215.59 -177.11,-315.02 -50.98,-74.13 -131.97,-143.53 -173.44,-225.91 10.88,-11.11 14.65,-28.97 0.55,-43.06l-31.04 -31.05c-22.89,-23.02 -58.19,0.55 -51.89,30.23 33.22,159.03 202.31,290.51 283.42,428.78 54.07,92.22 98.66,192.14 142.76,289.4 48.45,107.23 134.24,226.11 147.07,344.58 1.72,16.85 12.73,31.04 31.04,31.04l15.59 0c35.98,0 39.29,-50.04 10.33,-59.91z"/>
   <path class="fil0" d="M3553.7 777.22c-2.86,-39.75 -65.08,-39.98 -62.09,0 9.16,121.09 100.47,222.01 108.72,341.39 2.76,39.87 64.95,40.1 62.09,0 -8.35,-120.87 -99.56,-220.85 -108.72,-341.39z"/>
   <path class="fil0" d="M5029.57 23.77c-44,211.6 -122.36,418.03 -166.81,629.98 -35.75,170.78 -130.35,338.63 -144.67,511.62 -3.34,39.84 58.87,39.39 62.09,0 6.98,-84.66 52.22,-179.06 76.73,-262.22 28.42,-96.48 56.7,-189.61 77.32,-288.46 40.56,-193.28 115.02,-381.14 155.35,-574.42 8.03,-38.94 -51.76,-55.66 -60.01,-16.5z"/>
   <path class="fil0" d="M5718.07 1143.35c-24.65,-31.6 -68.42,12.83 -44,43.87 28.74,36.66 -35.85,85.37 -59.82,106.09 -33.09,28.42 -50.95,40.66 -78.58,76.18 -48.09,61.87 -108.59,118.24 -119.02,199.45 -5.16,39.52 57.06,39.07 62.09,0 8.48,-67.02 77.09,-124.76 116.39,-175.51 24.87,-31.83 60.95,-53.26 90.5,-80.99 50.4,-47.64 78.36,-110.31 32.44,-169.09z"/>
   <path class="fil0" d="M7273.08 1686.73c-61.63,55.88 -185.35,83.84 -257.64,119.24 -152.14,74.59 -306.9,141.81 -450.11,232.76 -110.77,70.47 -228.32,135.32 -341.62,201.99 -69.88,40.88 -157.53,60.14 -185.13,142.62 -12.6,38.16 47.31,54.3 59.91,16.59 24.42,-72.83 217.09,-141.35 279.66,-180.51 118.56,-73.91 239.75,-145.03 362.7,-211.5 113.39,-61.28 232.99,-114.67 350.77,-166.91 70.21,-31.28 168.38,-58.75 225.33,-110.41 29.65,-27.05 -14.45,-70.83 -43.87,-43.87z"/>
   <path class="fil0" d="M6689.64 2810.75c-84.79,5.98 -159.61,43.19 -241.15,63.36 -46.31,11.23 -91.9,41.11 -139.76,54.07 -9.75,2.63 -70.93,22.21 -84.89,22.21 -40.1,0 -40.1,62.09 0,62.09 51.89,0 112.36,-26.66 161.52,-41.8 101.48,-31.17 196.01,-90.27 304.28,-97.84 39.61,-2.63 39.84,-64.85 0,-62.09z"/>
   <path class="fil0" d="M7589.92 3509.32c-355.45,-5.72 -726.16,-53.26 -1079.34,1.17 -53.74,8.34 -451.38,-33.35 -360.19,123.26 20.29,34.46 73.91,3.19 53.74,-31.53 -7.44,-12.47 206.07,-17.05 207.93,-17.18 133.23,-4.8 263.35,-29.19 397.86,-29.19 260.5,0 519.73,11.33 780,15.69 40.11,0.45 40.01,-61.64 0,-62.22z"/>
   <path class="fil0" d="M6410.11 4332.09c-79.63,-0.13 -148.15,-15 -224.56,-35.62 -62.54,-17.08 -130.47,-10.88 -194.61,-10.88 -18.44,0 -28.87,14.19 -30.94,31.04 -2.18,2.96 -4.36,6.08 -6.53,9.03 -26.24,29.91 17.53,74.14 44,43.9 7.79,-9.06 12.7,-15.36 16.27,-22.01 60.46,-0.33 119.47,-1.14 178.93,15.13 74.81,20.26 139.53,31.37 217.44,31.5 40.1,0.13 40.1,-61.99 0,-62.09z"/>
   <path class="fil0" d="M2899.69 4965.94c-30.14,22.34 -60.5,44.45 -90.37,67.25 -24.29,18.8 -46.54,45.46 -72.29,61.5 -36.11,22.34 -57.74,61.18 -90.5,87.06 -18.22,-5.71 -41.7,3.57 -41.7,28.19l0 15.72c0,25.52 25.88,35.72 46.73,26.56 48.35,-20.72 78.23,-67.03 115.02,-102.29 50.53,-48.13 108.49,-88.78 164.38,-130.48 31.73,-23.74 0.81,-77.58 -31.27,-53.51z"/>
   <path class="fil0" d="M3172.79 5591.66c-31.5,26.47 -71.83,43.87 -104.47,70.21 -42.28,34.03 -75.14,77.35 -112.84,116.19 -27.96,28.64 15.94,72.61 43.87,43.87 38.84,-39.98 72.28,-86.96 117.88,-119.37 32.08,-22.8 69.42,-41.6 99.56,-67.03 30.59,-25.78 -13.64,-69.42 -44,-43.87z"/>
  </g>
 </g>
</svg>
