<?xml version="1.0" encoding="UTF-8"?>
<!DOCTYPE svg PUBLIC "-//W3C//DTD SVG 1.1//EN" "http://www.w3.org/Graphics/SVG/1.1/DTD/svg11.dtd">
<!-- Creator: CorelDRAW 2020 (64-Bit) -->
<svg xmlns="http://www.w3.org/2000/svg" xml:space="preserve" width="194.381mm" height="194.028mm" version="1.1" style="shape-rendering:geometricPrecision; text-rendering:geometricPrecision; image-rendering:optimizeQuality; fill-rule:evenodd; clip-rule:evenodd"
viewBox="0 0 19438.06 19402.78"
 xmlns:xlink="http://www.w3.org/1999/xlink"
 xmlns:xodm="http://www.corel.com/coreldraw/odm/2003">
 <defs>
  <style type="text/css">
   <![CDATA[
    .str0 {stroke:black;stroke-width:67.73;stroke-miterlimit:22.9256}
    .fil0 {fill:#FEFEFE;fill-rule:nonzero}
   ]]>
  </style>
 </defs>
 <g id="Слой_x0020_1">
  <metadata id="CorelCorpID_0Corel-Layer"/>
  <path class="fil0 str0" d="M13942.7 16740.33c-657.09,-50.05 -1546.9,-44.8 -1546.9,-44.8 -966.93,16.51 -1933.01,116.52 -2888.05,300.85l-0.99 0 0 0c-185.21,-958.64 -285.33,-1928.46 -301.2,-2899.13 -38.21,-16.93 -76.31,-32.88 -115.25,-47.2 -217.07,246.73 -539.12,398.18 -893.62,385.72 -595.56,-20.84 -1083.88,-514.59 -1096.33,-1110.47 -13.8,-655.28 522.53,-1180.53 1169.63,-1161.59 226.04,6.62 434.77,78.92 608.46,198.04 405.23,1358.95 1095.05,2638.63 1903.5,3700.86 -481.77,-2569.5 -653.16,-4642.07 -659.17,-6281.95 816.18,186.41 1643.14,310.7 2474.35,373.17 14.78,39.12 28.58,77.96 40.46,117.72 -258.9,202.25 -428.8,514.74 -437.26,869.24 -14.15,595.71 450.03,1112.17 1043.97,1159.73 653.52,52.31 1209.61,-452.48 1228.44,-1099.65 10.3,-351.89 -140.65,-671.19 -385.9,-886.92 14.25,-38.94 30.27,-76.97 47.27,-115.18 970.18,-15.98 1939.47,-115.99 2897.75,-300.92l1.38 0 -0.11 2.54c184.82,957.87 284.7,1926.73 300.68,2896.52 38.2,17.04 76.16,32.91 115.25,47.2 217.2,-246.77 539.36,-398.18 893.9,-385.65 585.94,20.82 1067.91,499.14 1095.1,1082.02l0 104.26c-27.35,619.42 -546.75,1103.99 -1168.65,1085.82 -351.83,-10.31 -661.81,-179.71 -862.75,-437.13 -39.83,11.99 -78.67,25.68 -117.87,40.36 -72.56,967.28 -229.02,1928.63 -469.54,2874.04l0 2.51 -0.6 -0.05 -0.5 0c-945.76,-240.72 -1907.71,-397.26 -2875.45,-469.96z"/>
  <path class="fil0 str0" d="M6842.69 9213.85c-14.78,-39.19 -28.47,-77.96 -40.39,-117.72 259.11,-202.39 429.04,-515.2 437.26,-869.84 13.83,-595.67 -450.53,-1111.89 -1044.54,-1159.16 -653.23,-51.97 -1209.04,452.58 -1227.94,1099.68 -10.31,351.79 140.68,671.12 385.93,886.88 -14.28,38.95 -30.23,76.94 -47.27,115.18 -970.31,16.02 -1939.69,115.93 -2898.02,301.03l-1.05 -0.07 0 0c-185.2,-958.68 -285.25,-1928.39 -301.18,-2899.02 -38.21,-16.97 -76.25,-32.99 -115.19,-47.24 -217.09,246.66 -538.99,398.04 -893.39,385.73 -595.57,-20.75 -1083.94,-514.39 -1096.65,-1110.13 -13.89,-655.35 522.49,-1180.95 1169.64,-1161.97 351.81,10.3 661.73,179.7 862.83,437.12 39.69,-11.99 78.57,-25.68 117.71,-40.39 72.69,-968.06 229.24,-1930.33 470.16,-2876.52l1.41 0c945.81,240.74 1907.55,397.23 2875.15,469.9 614.33,59.91 1551.52,44.74 1551.52,44.74 965.27,-16.76 1929.73,-116.6 2883.07,-300.68l1.34 0 0 2.54c71.8,372.1 130.8,745.9 177.04,1120.77 -121.7,116.71 -233.28,257.93 -326.76,419.85 -373.13,646.22 -316.68,1377.35 126.16,1633.01 19.29,11.15 39.16,20.81 59.26,29.81 -364.49,454.41 -654.08,928.79 -876.65,1416.54 -1367.29,-260.14 -2987.74,-1065.35 -4859.94,-2787.12 0,0 1925.75,3203.54 4406.2,4177.88 -71.27,343.4 -115.18,690.01 -134.51,1037.72 -550.53,-97.26 -1104.94,-166.74 -1661.2,-208.52zm4483.99 -4275.77c556.88,61.9 1000.53,536.88 1012.32,1104.41 4.48,215.06 -50.29,416.13 -148.78,588.55 -449.48,210.47 -961.72,369.6 -1536.45,432.32 -125.19,-69.19 -235.74,-161.26 -326.19,-270.38 77.58,-494.67 168.31,-899.75 256.14,-1222.12 270.96,-103.11 540.3,-324.33 742.96,-632.78z"/>
  <path class="fil0 str0" d="M16776.84 5461.57c-23.21,278.3 -57.33,1330.43 -44.91,1536.91 16.02,970.28 116,1939.71 301.06,2898.14l-0.1 0.92c0,0 0,0 0,0.14 -958.68,185.1 -1928.46,285.15 -2899.02,301.09 -16.97,38.21 -33.02,76.17 -47.28,115.25 245.25,215.66 396.24,534.96 385.94,886.85 -18.38,627.59 -541.86,1121.27 -1169.42,1102.82 -627.56,-18.34 -1121.27,-541.69 -1102.89,-1169.32 10.3,-351.89 179.7,-661.81 437.13,-862.75 -12.03,-39.83 -25.65,-78.67 -40.43,-117.79 -831.2,-62.43 -1658.09,-186.65 -2474.14,-373.02 -1.46,-399.04 6.82,-772.57 22.86,-1121.28 1473.34,-58.06 3035.65,-1136.86 4450.05,-4176.39 0,0 -804.43,1397.51 -2403.71,2147.06 89.3,-156.53 142.62,-336.6 148.26,-529.33 17.5,-597.32 -428.87,-1100.39 -1013.24,-1163.28 20.71,-31.54 40.72,-63.97 59.96,-97.3 372.99,-646.25 316.55,-1377.39 -126.29,-1633.04 -331.41,-191.37 -785.35,-62.05 -1149.19,286.15 -46.28,-374.93 -105.31,-748.78 -177.15,-1120.93l0.14 -0.81 0 -0.57 2.47 0.14c957.93,-184.89 1926.69,-284.83 2896.55,-300.7 16.97,-38.28 32.95,-76.28 47.27,-115.26 -245.28,-215.69 -396.24,-535.06 -385.94,-886.85 18.09,-617.88 525.61,-1105.8 1140.09,-1103.41 9.75,0.04 19.53,0.2 29.34,0.49 627.55,18.38 1121.27,541.73 1102.89,1169.42 -10.3,351.83 -179.78,661.78 -437.13,862.79 11.89,39.72 25.65,78.6 40.43,117.72 967.07,72.64 1928.56,228.99 2873.8,469.59l2.61 0.07 0 0.98c-240.77,945.87 -397.2,1907.86 -470.01,2875.5zm-6448.99 1329.7c90.7,109.8 201.75,202.42 327.57,271.93 -121.02,13.24 -244.67,22.43 -371.24,26.68 13.98,-102.96 28.58,-202.47 43.67,-298.61z"/>
  <path class="fil0 str0" d="M8878.34 12361.4c-173.68,-119.09 -382.41,-191.39 -608.49,-198.01 -627.62,-18.34 -1150.97,475.33 -1169.32,1102.89 -18.37,627.56 475.23,1151.04 1102.86,1169.42 351.89,10.31 671.19,-140.75 886.92,-385.97 38.94,14.36 76.9,30.27 115.11,47.27 16.01,970.25 116.13,1939.76 301.09,2898.07l0 0.99c0,0 0,0 0,0.07 -958.67,185.14 -1928.46,285.26 -2899.09,301.2 -17.11,38.17 -32.98,76.12 -47.23,115.18 245.18,215.66 396.2,534.95 385.9,886.85 -18.38,627.55 -541.83,1121.31 -1169.35,1102.92 -627.67,-18.34 -1121.27,-541.83 -1102.89,-1169.39 10.26,-351.92 179.6,-661.88 437.02,-862.74 -11.93,-39.83 -25.68,-78.67 -40.39,-117.8 -968.06,-72.7 -1930.3,-229.3 -2876.49,-470.19l0 0 0.05 -1.4c240.66,-945.73 397.16,-1907.54 469.84,-2875.14 20.59,-160.8 50.85,-1439.3 44.96,-1536.91 -15.93,-970.25 -115.98,-1939.5 -300.92,-2897.72l0.05 -0.84 0 -0.53 2.48 0.07c957.83,-184.89 1926.85,-284.73 2896.6,-300.64 16.93,-38.24 32.91,-76.27 47.23,-115.29 -245.18,-215.65 -396.27,-534.95 -385.97,-886.81 18.42,-627.63 541.87,-1121.27 1169.42,-1102.93 627.56,18.35 1121.27,541.8 1102.93,1169.39 -10.3,351.86 -179.78,661.81 -437.16,862.76 11.96,39.82 25.68,78.66 40.42,117.86 555.87,41.7 1109.85,111.11 1659.98,208.26 -54.84,986.88 89.25,1982.62 374.44,2939.11z"/>
 </g>
</svg>
