<?xml version="1.0" encoding="UTF-8"?>
<!DOCTYPE svg PUBLIC "-//W3C//DTD SVG 1.1//EN" "http://www.w3.org/Graphics/SVG/1.1/DTD/svg11.dtd">
<!-- Creator: CorelDRAW 2020 (64-Bit) -->
<svg xmlns="http://www.w3.org/2000/svg" xml:space="preserve" width="44.8732mm" height="5.0798mm" version="1.1" style="shape-rendering:geometricPrecision; text-rendering:geometricPrecision; image-rendering:optimizeQuality; fill-rule:evenodd; clip-rule:evenodd"
viewBox="0 0 4487.32 507.98"
 xmlns:xlink="http://www.w3.org/1999/xlink"
 xmlns:xodm="http://www.corel.com/coreldraw/odm/2003">
 <defs>
  <style type="text/css">
   <![CDATA[
    .fil5 {fill:#FEFEFE;fill-rule:nonzero}
    .fil1 {fill:#99C665;fill-rule:nonzero}
    .fil2 {fill:#56C0D3;fill-rule:nonzero}
    .fil4 {fill:#4DB79D;fill-rule:nonzero}
    .fil3 {fill:#28A8DE;fill-rule:nonzero}
    .fil0 {fill:#333333;fill-rule:nonzero}
   ]]>
  </style>
 </defs>
 <g id="Слой_x0020_1">
  <metadata id="CorelCorpID_0Corel-Layer"/>
  <g id="_2108809332512">
   <path class="fil0" d="M683.12 -0.01l70.18 198.55 69.79 -198.55 73.91 0 0 273.76 -56.49 0 0 -74.83 5.64 -129.18 -73.71 204.01 -38.67 0 -73.51 -203.81 5.63 128.98 0 74.83 -56.28 0 0 -273.76 73.51 0zm250.95 170.25c0,-20.22 3.9,-38.18 11.66,-53.97 7.74,-15.79 18.89,-28.04 33.49,-36.71 14.53,-8.66 31.44,-12.96 50.71,-12.96 27.41,0 49.75,8.4 67.11,25.22 17.29,16.75 26.96,39.6 28.94,68.41l0.39 13.92c0,31.26 -8.71,56.28 -26.07,75.15 -17.41,18.87 -40.72,28.3 -69.99,28.3 -29.26,0 -52.63,-9.43 -70.05,-28.23 -17.48,-18.81 -26.19,-44.35 -26.19,-76.69l0 -2.44zm54.24 3.85c0,19.32 3.58,34.08 10.88,44.28 7.24,10.2 17.61,15.34 31.12,15.34 13.14,0 23.38,-5.07 30.74,-15.15 7.43,-10.07 11.08,-26.25 11.08,-48.45 0,-18.93 -3.65,-33.62 -11.08,-44.02 -7.36,-10.4 -17.73,-15.59 -31.12,-15.59 -13.26,0 -23.5,5.19 -30.74,15.53 -7.3,10.32 -10.88,26.37 -10.88,48.06zm255.88 59.62c9.99,0 18.12,-2.76 24.39,-8.28 6.28,-5.52 9.49,-12.84 9.74,-22.01l50.84 0c-0.12,13.8 -3.84,26.44 -11.27,37.92 -7.36,11.49 -17.42,20.41 -30.29,26.77 -12.8,6.35 -26.95,9.49 -42.45,9.49 -29.01,0 -51.93,-9.24 -68.71,-27.72 -16.71,-18.48 -25.1,-44.03 -25.1,-76.62l0 -3.59c0,-31.38 8.32,-56.36 24.97,-75.02 16.59,-18.68 39.45,-28.05 68.46,-28.05 25.35,0 45.72,7.25 61.01,21.69 15.37,14.44 23.13,33.69 23.38,57.76l-50.84 0c-0.25,-10.53 -3.46,-19.13 -9.74,-25.68 -6.27,-6.6 -14.53,-9.87 -24.78,-9.87 -12.61,0 -22.16,4.61 -28.62,13.8 -6.4,9.23 -9.61,24.18 -9.61,44.91l0 5.58c0,20.99 3.14,36.01 9.55,45.18 6.4,9.19 16.07,13.74 29.07,13.74zm195.55 -35.04l-21.7 0 0 75.08 -54.23 0 0 -203.3 54.23 0 0 76.23 19.28 0 44.3 -76.23 68.46 0 -66.41 96.58 72.61 106.72 -72.22 0 -44.32 -75.08zm117.76 -28.43c0,-20.22 3.91,-38.18 11.66,-53.97 7.75,-15.79 18.89,-28.04 33.49,-36.71 14.53,-8.66 31.44,-12.96 50.71,-12.96 27.41,0 49.76,8.4 67.11,25.22 17.29,16.75 26.96,39.6 28.95,68.41l0.38 13.92c0,31.26 -8.71,56.28 -26.06,75.15 -17.42,18.87 -40.73,28.3 -69.99,28.3 -29.27,0 -52.64,-9.43 -70.06,-28.23 -17.48,-18.81 -26.19,-44.35 -26.19,-76.69l0 -2.44zm54.24 3.85c0,19.32 3.59,34.08 10.88,44.28 7.24,10.2 17.61,15.34 31.13,15.34 13.13,0 23.38,-5.07 30.74,-15.15 7.42,-10.07 11.07,-26.25 11.07,-48.45 0,-18.93 -3.65,-33.62 -11.07,-44.02 -7.36,-10.4 -17.74,-15.59 -31.13,-15.59 -13.25,0 -23.5,5.19 -30.74,15.53 -7.29,10.32 -10.88,26.37 -10.88,48.06zm175.13 99.66l0 -203.3 84.79 0c27.65,0 48.85,4.88 63.58,14.63 14.79,9.82 22.16,23.81 22.16,42.1 0,9.37 -3.07,17.84 -9.29,25.29 -6.21,7.44 -15.23,13.15 -27.08,17.12 14.47,2.77 25.93,8.22 34.19,16.31 8.32,8.08 12.49,17.97 12.49,29.78 0,18.93 -7.11,33.3 -21.27,43.25 -14.21,9.88 -34.83,14.82 -61.85,14.82l-97.72 0zm54.24 -84.32l0 40.81 43.67 0c19.15,0 28.75,-6.67 28.75,-20.02 0,-13.6 -9.16,-20.53 -27.4,-20.79l-45.02 0zm0 -36.58l33.55 0c19.02,-0.26 28.57,-6.36 28.57,-18.22 0,-7.33 -2.63,-12.52 -7.82,-15.66 -5.19,-3.08 -13.12,-4.62 -23.75,-4.62l-30.55 0 0 38.5zm243.98 80.86c9.99,0 18.12,-2.76 24.39,-8.28 6.28,-5.52 9.48,-12.84 9.74,-22.01l50.84 0c-0.13,13.8 -3.84,26.44 -11.27,37.92 -7.36,11.49 -17.42,20.41 -30.29,26.77 -12.8,6.35 -26.95,9.49 -42.45,9.49 -29.01,0 -51.93,-9.24 -68.72,-27.72 -16.7,-18.48 -25.09,-44.03 -25.09,-76.62l0 -3.59c0,-31.38 8.32,-56.36 24.97,-75.02 16.59,-18.68 39.45,-28.05 68.46,-28.05 25.35,0 45.72,7.25 61.01,21.69 15.37,14.44 23.13,33.69 23.38,57.76l-50.84 0c-0.26,-10.53 -3.46,-19.13 -9.74,-25.68 -6.27,-6.6 -14.53,-9.87 -24.78,-9.87 -12.61,0 -22.16,4.61 -28.62,13.8 -6.4,9.23 -9.61,24.18 -9.61,44.91l0 5.58c0,20.99 3.14,36.01 9.55,45.18 6.4,9.19 16.07,13.74 29.07,13.74zm195.56 -35.04l-21.71 0 0 75.08 -54.23 0 0 -203.3 54.23 0 0 76.23 19.28 0 44.31 -76.23 68.46 0 -66.41 96.58 72.61 106.72 -72.22 0 -44.32 -75.08zm259.28 -128.22l54.24 0 0 203.3 -54.24 0 0 -125.52 -67.88 125.52 -54.43 0 0 -203.3 54.43 0 0 125.33 67.88 -125.33zm189.22 207.15c-29.78,0 -54.04,-9.17 -72.74,-27.46 -18.7,-18.29 -28.05,-42.68 -28.05,-73.16l0 -5.26c0,-20.41 3.97,-38.7 11.85,-54.81 7.87,-16.11 19.01,-28.56 33.49,-37.22 14.47,-8.73 30.92,-13.09 49.43,-13.09 27.79,0 49.63,8.79 65.58,26.31 15.94,17.59 23.88,42.48 23.88,74.7l0 22.2 -129.22 0c1.72,13.29 7.04,23.88 15.81,31.9 8.84,8.02 19.99,12 33.5,12 20.93,0 37.2,-7.57 48.99,-22.66l26.63 29.91c-8.13,11.49 -19.15,20.54 -33.04,26.96 -13.83,6.47 -29.27,9.68 -46.11,9.68zm-6.21 -167.1c-10.75,0 -19.46,3.65 -26.19,10.97 -6.66,7.31 -10.95,17.77 -12.8,31.38l75.37 0 0 -4.37c-0.26,-12.06 -3.46,-21.43 -9.74,-28.04 -6.27,-6.61 -15.11,-9.94 -26.64,-9.94zm293.08 -110.51l70.18 198.55 69.8 -198.55 73.9 0 0 273.76 -56.48 0 0 -74.83 5.63 -129.18 -73.7 204.01 -38.68 0 -73.51 -203.81 5.63 128.98 0 74.83 -56.27 0 0 -273.76 73.5 0zm377.1 273.76c-2.49,-4.88 -4.28,-10.9 -5.44,-18.15 -13.12,14.69 -30.22,22 -51.22,22 -19.86,0 -36.38,-5.77 -49.44,-17.33 -13.06,-11.54 -19.6,-26.12 -19.6,-43.7 0,-21.56 8.01,-38.11 23.95,-49.67 15.95,-11.55 39,-17.39 69.1,-17.52l24.97 0 0 -11.55c0,-9.37 -2.44,-16.81 -7.23,-22.39 -4.81,-5.59 -12.42,-8.41 -22.8,-8.41 -9.1,0 -16.27,2.18 -21.46,6.48 -5.18,4.3 -7.8,10.27 -7.8,17.78l-54.18 0c0,-11.75 3.59,-22.65 10.82,-32.6 7.3,-10.02 17.55,-17.84 30.81,-23.55 13.25,-5.72 28.11,-8.54 44.62,-8.54 25.05,0 44.89,6.29 59.55,18.86 14.74,12.65 22.1,30.3 22.1,53.14l0 88.18c0.13,19.25 2.82,33.89 8.07,43.76l0 3.21 -54.82 0zm-44.82 -37.74c8,0 15.37,-1.79 22.15,-5.32 6.73,-3.59 11.72,-8.4 14.99,-14.37l0 -34.98 -20.24 0c-27.14,0 -41.62,9.38 -43.35,28.17l-0.19 3.21c0,6.74 2.37,12.32 7.11,16.76 4.74,4.35 11.27,6.53 19.53,6.53zm217.53 -2.3c9.99,0 18.12,-2.76 24.39,-8.28 6.28,-5.52 9.48,-12.84 9.74,-22.01l50.84 0c-0.13,13.8 -3.84,26.44 -11.27,37.92 -7.36,11.49 -17.42,20.41 -30.29,26.77 -12.8,6.35 -26.95,9.49 -42.45,9.49 -29.01,0 -51.93,-9.24 -68.72,-27.72 -16.7,-18.48 -25.09,-44.03 -25.09,-76.62l0 -3.59c0,-31.38 8.32,-56.36 24.97,-75.02 16.59,-18.68 39.45,-28.05 68.46,-28.05 25.35,0 45.72,7.25 61.01,21.69 15.37,14.44 23.13,33.69 23.38,57.76l-50.84 0c-0.26,-10.53 -3.46,-19.13 -9.74,-25.68 -6.27,-6.6 -14.53,-9.87 -24.78,-9.87 -12.61,0 -22.16,4.61 -28.62,13.8 -6.4,9.23 -9.61,24.18 -9.61,44.91l0 5.58c0,20.99 3.14,36.01 9.55,45.18 6.4,9.19 16.07,13.74 29.07,13.74zm284.5 -119.36l-65.05 0 0 159.4 -54.43 0 0 -159.4 -63.98 0 0 -43.9 183.46 0 0 43.9zm108.73 163.25c-29.77,0 -54.04,-9.17 -72.74,-27.46 -18.7,-18.29 -28.04,-42.68 -28.04,-73.16l0 -5.26c0,-20.41 3.96,-38.7 11.84,-54.81 7.88,-16.11 19.02,-28.56 33.49,-37.22 14.47,-8.73 30.93,-13.09 49.44,-13.09 27.79,0 49.62,8.79 65.57,26.31 15.94,17.59 23.88,42.48 23.88,74.7l0 22.2 -129.22 0c1.73,13.29 7.04,23.88 15.81,31.9 8.84,8.02 19.99,12 33.5,12 20.93,0 37.2,-7.57 48.99,-22.66l26.63 29.91c-8.13,11.49 -19.14,20.54 -33.04,26.96 -13.83,6.47 -29.26,9.68 -46.11,9.68zm-6.21 -167.1c-10.75,0 -19.46,3.65 -26.19,10.97 -6.66,7.31 -10.94,17.77 -12.8,31.38l75.37 0 0 -4.37c-0.26,-12.06 -3.46,-21.43 -9.74,-28.04 -6.27,-6.61 -15.11,-9.94 -26.64,-9.94zm303.08 63.46c0,31.38 -7.11,56.47 -21.33,75.34 -14.15,18.87 -33.36,28.3 -57.5,28.3 -20.48,0 -37.07,-7.12 -49.69,-21.43l0 95.75 -54.23 0 0 -281.47 50.27 0 1.92 19.89c13.12,-15.85 30.22,-23.74 51.41,-23.74 24.98,0 44.45,9.3 58.34,27.85 13.84,18.55 20.81,44.09 20.81,76.69l0 2.82zm-54.23 -4.1c0,-19 -3.33,-33.64 -10.06,-43.9 -6.66,-10.33 -16.4,-15.46 -29.14,-15.46 -17.03,0 -28.68,6.54 -35.09,19.57l0 83.49c6.6,13.41 18.45,20.15 35.48,20.15 25.87,0 38.81,-21.31 38.81,-63.85zm205.42 103.89c-2.5,-4.88 -4.29,-10.9 -5.45,-18.15 -13.12,14.69 -30.22,22 -51.22,22 -19.86,0 -36.37,-5.77 -49.43,-17.33 -13.07,-11.54 -19.6,-26.12 -19.6,-43.7 0,-21.56 8,-38.11 23.95,-49.67 15.94,-11.55 38.99,-17.39 69.09,-17.52l24.98 0 0 -11.55c0,-9.37 -2.44,-16.81 -7.24,-22.39 -4.8,-5.59 -12.42,-8.41 -22.8,-8.41 -9.1,0 -16.27,2.18 -21.45,6.48 -5.19,4.3 -7.81,10.27 -7.81,17.78l-54.17 0c0,-11.75 3.58,-22.65 10.82,-32.6 7.29,-10.02 17.54,-17.84 30.8,-23.55 13.25,-5.72 28.11,-8.54 44.63,-8.54 25.04,0 44.89,6.29 59.55,18.86 14.73,12.65 22.09,30.3 22.09,53.14l0 88.18c0.13,19.25 2.82,33.89 8.07,43.76l0 3.21 -54.81 0zm-44.82 -37.74c8,0 15.36,-1.79 22.15,-5.32 6.72,-3.59 11.72,-8.4 14.99,-14.37l0 -34.98 -20.24 0c-27.15,0 -41.63,9.38 -43.36,28.17l-0.19 3.21c0,6.74 2.38,12.32 7.11,16.76 4.74,4.35 11.27,6.53 19.54,6.53z"/>
   <g>
    <path class="fil0" d="M628.87 454.03l-8.09 0 0 27.72 -11.17 0 0 -65.05 11.17 0 0 27.48 7.25 0 21.86 -27.48 13.44 0 -25.69 31.24 27.87 33.81 -14.12 0 -22.52 -27.72zm41.97 -5.4c0,-6.39 1.25,-12.11 3.75,-17.2 2.5,-5.12 5.98,-9.04 10.45,-11.81 4.45,-2.77 9.54,-4.15 15.27,-4.15 8.84,0 15.99,3.06 21.46,9.2 5.45,6.14 8.18,14.31 8.18,24.5l0 0.77c0,6.35 -1.21,12.04 -3.63,17.06 -2.42,5.04 -5.88,8.96 -10.39,11.78 -4.49,2.81 -9.66,4.2 -15.51,4.2 -8.8,0 -15.94,-3.05 -21.39,-9.2 -5.47,-6.14 -8.19,-14.26 -8.19,-24.37l0 -0.78zm11.17 1.29c0,7.21 1.65,13.03 4.99,17.39 3.34,4.38 7.83,6.55 13.42,6.55 5.64,0 10.12,-2.21 13.45,-6.65 3.32,-4.43 4.97,-10.63 4.97,-18.62 0,-7.15 -1.67,-12.91 -5.06,-17.35 -3.37,-4.44 -7.87,-6.65 -13.47,-6.65 -5.48,0 -9.9,2.17 -13.26,6.55 -3.36,4.37 -5.04,10.63 -5.04,18.78zm114.97 31.83l-11.11 0 0 -27.72 -29.83 0 0 27.72 -11.17 0 0 -65.05 11.17 0 0 28.22 29.83 0 0 -28.22 11.11 0 0 65.05zm38.04 -27.72l-8.09 0 0 27.72 -11.17 0 0 -65.05 11.17 0 0 27.48 7.25 0 21.86 -27.48 13.45 0 -25.7 31.24 27.87 33.81 -14.12 0 -22.52 -27.72zm67.42 11.42l15.12 -48.75 11.88 0 -26.1 75.07c-4.06,10.82 -10.47,16.22 -19.28,16.22l-2.09 -0.18 -4.14 -0.78 0 -9.02 3 0.25c3.76,0 6.69,-0.76 8.78,-2.28 2.11,-1.51 3.84,-4.31 5.2,-8.35l2.47 -6.6 -23.18 -64.33 12.13 0 16.21 48.75zm91.79 -15.51c0,9.92 -2.27,17.89 -6.79,23.95 -4.52,6.06 -10.64,9.09 -18.37,9.09 -7.87,0 -14.08,-2.5 -18.61,-7.51l0 31.29 -11.1 0 0 -90.06 10.14 0 0.55 7.19c4.51,-5.6 10.8,-8.42 18.84,-8.42 7.8,0 13.98,2.95 18.52,8.85 4.55,5.89 6.82,14.08 6.82,24.6l0 1.02zm-11.11 -1.25c0,-7.33 -1.56,-13.12 -4.69,-17.37 -3.12,-4.25 -7.39,-6.37 -12.85,-6.37 -6.71,0 -11.75,2.98 -15.12,8.96l0 31.07c3.32,5.93 8.41,8.88 15.25,8.88 5.33,0 9.57,-2.1 12.7,-6.34 3.14,-4.23 4.71,-10.49 4.71,-18.83zm51.23 25.17c3.97,0 7.44,-1.18 10.39,-3.59 2.96,-2.4 4.61,-5.4 4.91,-9.01l10.51 0c-0.2,3.74 -1.47,7.29 -3.83,10.66 -2.37,3.37 -5.53,6.06 -9.46,8.06 -3.93,2 -8.11,3 -12.52,3 -8.83,0 -15.88,-2.95 -21.11,-8.87 -5.19,-5.91 -7.82,-14.02 -7.82,-24.29l0 -1.87c0,-6.32 1.17,-11.97 3.48,-16.9 2.32,-4.92 5.66,-8.76 10,-11.5 4.34,-2.72 9.47,-4.08 15.39,-4.08 7.29,0 13.33,2.18 18.17,6.55 4.82,4.37 7.37,10.06 7.7,17.02l-10.51 0c-0.3,-4.21 -1.9,-7.68 -4.77,-10.38 -2.84,-2.72 -6.39,-4.07 -10.59,-4.07 -5.63,0 -10,2.03 -13.11,6.1 -3.1,4.08 -4.65,9.95 -4.65,17.67l0 2.1c0,7.5 1.54,13.28 4.63,17.33 3.07,4.05 7.47,6.07 13.19,6.07zm121.89 7.89l-11.1 0 0 -55.81 -29.9 0 0 55.81 -11.17 0 0 -65.05 52.17 0 0 65.05zm72.7 -31.81c0,9.92 -2.27,17.89 -6.79,23.95 -4.52,6.06 -10.64,9.09 -18.37,9.09 -7.87,0 -14.08,-2.5 -18.61,-7.51l0 31.29 -11.1 0 0 -90.06 10.15 0 0.54 7.19c4.52,-5.6 10.8,-8.42 18.84,-8.42 7.8,0 13.99,2.95 18.52,8.85 4.55,5.89 6.82,14.08 6.82,24.6l0 1.02zm-11.11 -1.25c0,-7.33 -1.55,-13.12 -4.68,-17.37 -3.13,-4.25 -7.4,-6.37 -12.85,-6.37 -6.72,0 -11.76,2.98 -15.13,8.96l0 31.07c3.32,5.93 8.41,8.88 15.25,8.88 5.33,0 9.57,-2.1 12.7,-6.34 3.14,-4.23 4.71,-10.49 4.71,-18.83zm22.26 -0.06c0,-6.39 1.25,-12.11 3.75,-17.2 2.5,-5.12 5.98,-9.04 10.45,-11.81 4.45,-2.77 9.54,-4.15 15.27,-4.15 8.84,0 16,3.06 21.46,9.2 5.46,6.14 8.18,14.31 8.18,24.5l0 0.77c0,6.35 -1.21,12.04 -3.63,17.06 -2.42,5.04 -5.87,8.96 -10.39,11.78 -4.48,2.81 -9.66,4.2 -15.5,4.2 -8.81,0 -15.95,-3.05 -21.4,-9.2 -5.47,-6.14 -8.19,-14.26 -8.19,-24.37l0 -0.78zm11.17 1.29c0,7.21 1.65,13.03 4.99,17.39 3.34,4.38 7.83,6.55 13.43,6.55 5.63,0 10.11,-2.21 13.44,-6.65 3.32,-4.43 4.97,-10.63 4.97,-18.62 0,-7.15 -1.67,-12.91 -5.06,-17.35 -3.37,-4.44 -7.87,-6.65 -13.47,-6.65 -5.48,0 -9.9,2.17 -13.26,6.55 -3.36,4.37 -5.04,10.63 -5.04,18.78zm59.5 0.48c0,-10.86 2.09,-19.41 6.29,-25.61 4.2,-6.22 9.97,-9.32 17.29,-9.32 3.4,0 6.4,0.57 8.96,1.75l0 -27.87 11.1 0 0 28.23c2.79,-1.41 6.07,-2.11 9.83,-2.11 7.36,0 13.16,3.1 17.37,9.32 4.2,6.2 6.29,15.17 6.29,26.88 0,9.57 -2.09,17.19 -6.27,22.83 -4.19,5.65 -9.95,8.48 -17.26,8.48 -3.89,0 -7.21,-0.64 -9.96,-1.93l0 25.71 -11.1 0 0 -25.52c-2.64,1.17 -5.68,1.74 -9.08,1.74 -7.28,0 -13.01,-2.83 -17.19,-8.48 -4.18,-5.64 -6.27,-13.39 -6.27,-23.2l0 -0.9zm66.01 -0.02c0,-8.17 -1.39,-14.52 -4.2,-19.03 -2.8,-4.51 -6.65,-6.76 -11.57,-6.76 -2.53,0 -4.74,0.39 -6.6,1.18l0 47.07c1.78,0.68 4.04,1.02 6.72,1.02 4.96,0 8.81,-1.92 11.56,-5.76 2.72,-3.84 4.09,-9.76 4.09,-17.72zm-54.91 1.25c0,7.29 1.3,12.81 3.9,16.59 2.6,3.76 6.35,5.64 11.23,5.64 2.31,0 4.42,-0.36 6.31,-1.08l0 -47.17c-1.71,-0.68 -3.75,-1.02 -6.19,-1.02 -4.9,0 -8.65,2.17 -11.29,6.55 -2.64,4.37 -3.96,11.19 -3.96,20.49zm107.41 31.35c-8.79,0 -15.96,-2.89 -21.49,-8.68 -5.51,-5.81 -8.27,-13.55 -8.27,-23.26l0 -2.06c0,-6.44 1.23,-12.22 3.68,-17.29 2.46,-5.07 5.9,-9.05 10.33,-11.91 4.42,-2.87 9.22,-4.31 14.38,-4.31 8.44,0 15,2.79 19.69,8.36 4.67,5.58 7.03,13.57 7.03,23.96l0 4.64 -44.01 0c0.16,6.4 2.03,11.58 5.61,15.52 3.59,3.94 8.14,5.91 13.67,5.91 3.92,0 7.23,-0.79 9.96,-2.4 2.72,-1.6 5.09,-3.72 7.15,-6.34l6.78 5.3c-5.45,8.38 -13.62,12.56 -24.51,12.56zm-1.37 -58.39c-4.49,0 -8.24,1.64 -11.28,4.92 -3.04,3.29 -4.93,7.89 -5.65,13.8l32.55 0 0 -0.84c-0.33,-5.69 -1.85,-10.08 -4.57,-13.2 -2.73,-3.12 -6.42,-4.68 -11.05,-4.68zm65.58 49.27c3.96,0 7.43,-1.18 10.38,-3.59 2.97,-2.4 4.61,-5.4 4.91,-9.01l10.51 0c-0.2,3.74 -1.47,7.29 -3.83,10.66 -2.37,3.37 -5.53,6.06 -9.46,8.06 -3.93,2 -8.11,3 -12.51,3 -8.84,0 -15.88,-2.95 -21.12,-8.87 -5.19,-5.91 -7.82,-14.02 -7.82,-24.29l0 -1.87c0,-6.32 1.17,-11.97 3.48,-16.9 2.32,-4.92 5.66,-8.76 10,-11.5 4.34,-2.72 9.47,-4.08 15.39,-4.08 7.29,0 13.33,2.18 18.17,6.55 4.82,4.37 7.38,10.06 7.7,17.02l-10.51 0c-0.3,-4.21 -1.9,-7.68 -4.77,-10.38 -2.84,-2.72 -6.39,-4.07 -10.59,-4.07 -5.63,0 -10,2.03 -13.11,6.1 -3.1,4.08 -4.65,9.95 -4.65,17.67l0 2.1c0,7.5 1.54,13.28 4.63,17.33 3.07,4.05 7.47,6.07 13.2,6.07zm64.35 0c3.97,0 7.44,-1.18 10.38,-3.59 2.97,-2.4 4.62,-5.4 4.92,-9.01l10.51 0c-0.2,3.74 -1.47,7.29 -3.83,10.66 -2.38,3.37 -5.53,6.06 -9.47,8.06 -3.93,2 -8.1,3 -12.51,3 -8.83,0 -15.88,-2.95 -21.11,-8.87 -5.2,-5.91 -7.83,-14.02 -7.83,-24.29l0 -1.87c0,-6.32 1.18,-11.97 3.49,-16.9 2.32,-4.92 5.66,-8.76 10,-11.5 4.34,-2.72 9.46,-4.08 15.39,-4.08 7.29,0 13.33,2.18 18.17,6.55 4.81,4.37 7.37,10.06 7.7,17.02l-10.51 0c-0.3,-4.21 -1.9,-7.68 -4.77,-10.38 -2.85,-2.72 -6.4,-4.07 -10.59,-4.07 -5.64,0 -10,2.03 -13.12,6.1 -3.09,4.08 -4.65,9.95 -4.65,17.67l0 2.1c0,7.5 1.54,13.28 4.64,17.33 3.06,4.05 7.47,6.07 13.19,6.07zm80.36 -57.16l11.11 0 0 65.05 -11.11 0 0 -47.43 -29.96 47.43 -11.1 0 0 -65.05 11.1 0 0 47.5 29.96 -47.5zm25.99 31.93c0,-6.39 1.24,-12.11 3.75,-17.2 2.5,-5.12 5.97,-9.04 10.44,-11.81 4.45,-2.77 9.55,-4.15 15.27,-4.15 8.85,0 16,3.06 21.47,9.2 5.45,6.14 8.17,14.31 8.17,24.5l0 0.77c0,6.35 -1.2,12.04 -3.62,17.06 -2.42,5.04 -5.88,8.96 -10.39,11.78 -4.49,2.81 -9.67,4.2 -15.51,4.2 -8.81,0 -15.94,-3.05 -21.39,-9.2 -5.47,-6.14 -8.19,-14.26 -8.19,-24.37l0 -0.78zm11.16 1.29c0,7.21 1.66,13.03 5,17.39 3.34,4.38 7.82,6.55 13.42,6.55 5.63,0 10.12,-2.21 13.44,-6.65 3.32,-4.43 4.98,-10.63 4.98,-18.62 0,-7.15 -1.68,-12.91 -5.06,-17.35 -3.38,-4.44 -7.87,-6.65 -13.48,-6.65 -5.48,0 -9.9,2.17 -13.26,6.55 -3.35,4.37 -5.04,10.63 -5.04,18.78zm114.97 31.83l-11.11 0 0 -27.72 -29.83 0 0 27.72 -11.16 0 0 -65.05 11.16 0 0 28.22 29.83 0 0 -28.22 11.11 0 0 65.05zm57.92 0c-0.63,-1.27 -1.15,-3.55 -1.56,-6.84 -5.16,5.38 -11.33,8.07 -18.48,8.07 -6.41,0 -11.66,-1.8 -15.75,-5.44 -4.1,-3.63 -6.16,-8.23 -6.16,-13.8 0,-6.78 2.57,-12.05 7.71,-15.79 5.14,-3.75 12.38,-5.62 21.7,-5.62l10.8 0 0 -5.12c0,-3.88 -1.15,-6.98 -3.47,-9.29 -2.33,-2.31 -5.75,-3.46 -10.26,-3.46 -3.97,0 -7.29,1.01 -9.98,3 -2.68,2.02 -4.01,4.43 -4.01,7.27l-11.17 0c0,-3.25 1.15,-6.38 3.44,-9.42 2.31,-3.02 5.43,-5.43 9.39,-7.19 3.93,-1.77 8.25,-2.65 12.98,-2.65 7.48,0 13.34,1.87 17.58,5.63 4.24,3.73 6.45,8.91 6.6,15.48l0 29.96c0,5.97 0.78,10.72 2.29,14.25l0 0.96 -11.65 0zm-18.42 -8.25c3.48,0 6.78,-0.9 9.9,-2.74 3.13,-1.8 5.39,-4.18 6.78,-7.07l0 -13.47 -8.69 0c-13.61,0 -20.4,4.02 -20.4,12.07 0,3.51 1.14,6.26 3.45,8.23 2.34,1.99 5.31,2.98 8.96,2.98zm98.46 -56.8l0 65.05 -11.16 0 0 -55.81 -22.13 0 -1.31 24.33c-0.72,11.17 -2.57,19.16 -5.61,23.97 -3.01,4.8 -7.81,7.3 -14.38,7.51l-4.43 0 0 -9.86 3.17 -0.24c3.62,-0.4 6.19,-2.48 7.75,-6.24 1.56,-3.76 2.56,-10.72 2.99,-20.9l1.21 -27.81 43.9 0zm29.95 22.43l16.86 0c7.38,0.08 13.2,2.01 17.48,5.77 4.28,3.77 6.41,8.86 6.41,15.33 0,6.49 -2.19,11.71 -6.6,15.63 -4.4,3.92 -10.33,5.89 -17.76,5.89l-27.49 0 0 -65.05 11.1 0 0 22.43zm0 9.12l0 24.38 16.52 0c4.16,0 7.37,-1.07 9.64,-3.2 2.3,-2.13 3.44,-5.07 3.44,-8.79 0,-3.59 -1.12,-6.53 -3.34,-8.83 -2.23,-2.3 -5.32,-3.48 -9.33,-3.56l-16.93 0zm107.69 33.5l-11.11 0 0 -27.72 -29.83 0 0 27.72 -11.17 0 0 -65.05 11.17 0 0 28.22 29.83 0 0 -28.22 11.11 0 0 65.05zm14.87 -33.12c0,-6.39 1.25,-12.11 3.75,-17.2 2.5,-5.12 5.98,-9.04 10.45,-11.81 4.45,-2.77 9.54,-4.15 15.27,-4.15 8.84,0 16,3.06 21.46,9.2 5.46,6.14 8.18,14.31 8.18,24.5l0 0.77c0,6.35 -1.21,12.04 -3.63,17.06 -2.42,5.04 -5.87,8.96 -10.39,11.78 -4.48,2.81 -9.66,4.2 -15.5,4.2 -8.81,0 -15.95,-3.05 -21.4,-9.2 -5.47,-6.14 -8.19,-14.26 -8.19,-24.37l0 -0.78zm11.17 1.29c0,7.21 1.65,13.03 4.99,17.39 3.34,4.38 7.83,6.55 13.43,6.55 5.63,0 10.11,-2.21 13.44,-6.65 3.32,-4.43 4.97,-10.63 4.97,-18.62 0,-7.15 -1.67,-12.91 -5.06,-17.35 -3.37,-4.44 -7.87,-6.65 -13.47,-6.65 -5.48,0 -9.9,2.17 -13.26,6.55 -3.36,4.37 -5.04,10.63 -5.04,18.78zm103.87 -23.98l-29.96 0 0 55.81 -11.17 0 0 -65.05 41.13 0 0 9.24zm5.45 22.69c0,-6.39 1.24,-12.11 3.75,-17.2 2.5,-5.12 5.97,-9.04 10.44,-11.81 4.45,-2.77 9.55,-4.15 15.27,-4.15 8.85,0 16,3.06 21.47,9.2 5.45,6.14 8.17,14.31 8.17,24.5l0 0.77c0,6.35 -1.2,12.04 -3.62,17.06 -2.42,5.04 -5.88,8.96 -10.39,11.78 -4.49,2.81 -9.67,4.2 -15.51,4.2 -8.81,0 -15.94,-3.05 -21.39,-9.2 -5.47,-6.14 -8.19,-14.26 -8.19,-24.37l0 -0.78zm11.16 1.29c0,7.21 1.66,13.03 5,17.39 3.34,4.38 7.82,6.55 13.42,6.55 5.63,0 10.12,-2.21 13.44,-6.65 3.32,-4.43 4.98,-10.63 4.98,-18.62 0,-7.15 -1.67,-12.91 -5.06,-17.35 -3.38,-4.44 -7.87,-6.65 -13.48,-6.65 -5.48,0 -9.9,2.17 -13.26,6.55 -3.35,4.37 -5.04,10.63 -5.04,18.78zm129.72 17.11l22.1 -50.33 13.85 0 0 65.05 -11.1 0 0 -47.3 -21 47.3 -7.69 0 -21.43 -48.33 0 48.33 -11.1 0 0 -65.05 14.4 0 21.97 50.33zm93.88 14.72c-0.63,-1.27 -1.14,-3.55 -1.55,-6.84 -5.16,5.38 -11.33,8.07 -18.49,8.07 -6.41,0 -11.66,-1.8 -15.76,-5.44 -4.09,-3.63 -6.15,-8.23 -6.15,-13.8 0,-6.78 2.57,-12.05 7.71,-15.79 5.14,-3.75 12.38,-5.62 21.7,-5.62l10.8 0 0 -5.12c0,-3.88 -1.14,-6.98 -3.46,-9.29 -2.33,-2.31 -5.75,-3.46 -10.27,-3.46 -3.97,0 -7.29,1.01 -9.98,3 -2.69,2.02 -4.01,4.43 -4.01,7.27l-11.17 0c0,-3.25 1.15,-6.38 3.44,-9.42 2.31,-3.02 5.42,-5.43 9.38,-7.19 3.93,-1.77 8.27,-2.65 13,-2.65 7.48,0 13.34,1.87 17.58,5.63 4.24,3.73 6.45,8.91 6.6,15.48l0 29.96c0,5.97 0.78,10.72 2.29,14.25l0 0.96 -11.66 0zm-18.42 -8.25c3.49,0 6.78,-0.9 9.9,-2.74 3.14,-1.8 5.39,-4.18 6.78,-7.07l0 -13.47 -8.69 0c-13.61,0 -20.41,4.02 -20.41,12.07 0,3.51 1.15,6.26 3.46,8.23 2.34,1.99 5.31,2.98 8.96,2.98zm71.23 0.36c3.97,0 7.44,-1.18 10.38,-3.59 2.97,-2.4 4.62,-5.4 4.92,-9.01l10.51 0c-0.2,3.74 -1.48,7.29 -3.83,10.66 -2.38,3.37 -5.54,6.06 -9.47,8.06 -3.93,2 -8.1,3 -12.51,3 -8.84,0 -15.88,-2.95 -21.11,-8.87 -5.2,-5.91 -7.83,-14.02 -7.83,-24.29l0 -1.87c0,-6.32 1.18,-11.97 3.49,-16.9 2.32,-4.92 5.66,-8.76 10,-11.5 4.34,-2.72 9.46,-4.08 15.39,-4.08 7.29,0 13.33,2.18 18.17,6.55 4.81,4.37 7.37,10.06 7.7,17.02l-10.51 0c-0.3,-4.21 -1.9,-7.68 -4.77,-10.38 -2.85,-2.72 -6.4,-4.07 -10.59,-4.07 -5.64,0 -10,2.03 -13.12,6.1 -3.09,4.08 -4.65,9.95 -4.65,17.67l0 2.1c0,7.5 1.54,13.28 4.64,17.33 3.06,4.05 7.47,6.07 13.19,6.07zm86.61 -48.17l-21.81 0 0 56.06 -11.1 0 0 -56.06 -21.38 0 0 -8.99 54.29 0 0 8.99zm32.94 57.29c-8.79,0 -15.96,-2.89 -21.5,-8.68 -5.5,-5.81 -8.27,-13.55 -8.27,-23.26l0 -2.06c0,-6.44 1.23,-12.22 3.69,-17.29 2.46,-5.07 5.9,-9.05 10.33,-11.91 4.42,-2.87 9.22,-4.31 14.38,-4.31 8.44,0 14.99,2.79 19.69,8.36 4.67,5.58 7.02,13.57 7.02,23.96l0 4.64 -44.01 0c0.17,6.4 2.03,11.58 5.62,15.52 3.59,3.94 8.14,5.91 13.67,5.91 3.91,0 7.22,-0.79 9.95,-2.4 2.72,-1.6 5.1,-3.72 7.16,-6.34l6.78 5.3c-5.46,8.38 -13.63,12.56 -24.51,12.56zm-1.37 -58.39c-4.49,0 -8.24,1.64 -11.29,4.92 -3.04,3.29 -4.92,7.89 -5.64,13.8l32.54 0 0 -0.84c-0.33,-5.69 -1.85,-10.08 -4.57,-13.2 -2.73,-3.12 -6.41,-4.68 -11.04,-4.68zm94.43 25.35c0,9.92 -2.28,17.89 -6.79,23.95 -4.52,6.06 -10.65,9.09 -18.37,9.09 -7.89,0 -14.09,-2.5 -18.62,-7.51l0 31.29 -11.11 0 0 -90.06 10.15 0 0.55 7.19c4.51,-5.6 10.8,-8.42 18.84,-8.42 7.8,0 13.99,2.95 18.52,8.85 4.55,5.89 6.83,14.08 6.83,24.6l0 1.02zm-11.11 -1.25c0,-7.33 -1.56,-13.12 -4.69,-17.37 -3.12,-4.25 -7.4,-6.37 -12.85,-6.37 -6.72,0 -11.77,2.98 -15.13,8.96l0 31.07c3.32,5.93 8.41,8.88 15.26,8.88 5.32,0 9.56,-2.1 12.69,-6.34 3.14,-4.23 4.72,-10.49 4.72,-18.83zm51.23 25.17c3.97,0 7.43,-1.18 10.38,-3.59 2.97,-2.4 4.62,-5.4 4.92,-9.01l10.51 0c-0.2,3.74 -1.48,7.29 -3.83,10.66 -2.38,3.37 -5.54,6.06 -9.47,8.06 -3.93,2 -8.11,3 -12.51,3 -8.84,0 -15.88,-2.95 -21.11,-8.87 -5.2,-5.91 -7.83,-14.02 -7.83,-24.29l0 -1.87c0,-6.32 1.18,-11.97 3.49,-16.9 2.32,-4.92 5.66,-8.76 10,-11.5 4.34,-2.72 9.46,-4.08 15.39,-4.08 7.29,0 13.33,2.18 18.17,6.55 4.81,4.37 7.37,10.06 7.7,17.02l-10.51 0c-0.3,-4.21 -1.9,-7.68 -4.77,-10.38 -2.85,-2.72 -6.4,-4.07 -10.59,-4.07 -5.64,0 -10,2.03 -13.12,6.1 -3.09,4.08 -4.65,9.95 -4.65,17.67l0 2.1c0,7.5 1.54,13.28 4.63,17.33 3.07,4.05 7.48,6.07 13.2,6.07zm86.61 -48.17l-21.81 0 0 56.06 -11.1 0 0 -56.06 -21.38 0 0 -8.99 54.29 0 0 8.99zm11.79 56.06l0 -65.05 25.33 0c8.64,0 15.28,1.52 19.92,4.54 4.6,3.02 6.92,7.45 6.92,13.31 0,3.02 -0.9,5.72 -2.7,8.15 -1.81,2.42 -4.47,4.27 -7.97,5.56 3.91,0.92 7.06,2.71 9.44,5.4 2.38,2.69 3.56,5.89 3.56,9.63 0,5.98 -2.18,10.54 -6.57,13.72 -4.37,3.16 -10.57,4.74 -18.56,4.74l-29.37 0zm11.11 -28.58l0 19.59 18.37 0c4.64,0 8.12,-0.87 10.41,-2.59 2.3,-1.72 3.44,-4.15 3.44,-7.27 0,-6.48 -4.75,-9.73 -14.27,-9.73l-17.95 0zm0 -8.87l14.34 0c10.41,0 15.61,-3.06 15.61,-9.16 0,-6.1 -4.91,-9.24 -14.77,-9.45l-15.18 0 0 18.61zm98.23 37.45c-0.63,-1.27 -1.15,-3.55 -1.56,-6.84 -5.16,5.38 -11.33,8.07 -18.48,8.07 -6.42,0 -11.67,-1.8 -15.76,-5.44 -4.1,-3.63 -6.15,-8.23 -6.15,-13.8 0,-6.78 2.56,-12.05 7.7,-15.79 5.15,-3.75 12.38,-5.62 21.71,-5.62l10.8 0 0 -5.12c0,-3.88 -1.15,-6.98 -3.47,-9.29 -2.33,-2.31 -5.75,-3.46 -10.26,-3.46 -3.97,0 -7.3,1.01 -9.99,3 -2.68,2.02 -4.01,4.43 -4.01,7.27l-11.16 0c0,-3.25 1.14,-6.38 3.44,-9.42 2.31,-3.02 5.42,-5.43 9.38,-7.19 3.93,-1.77 8.26,-2.65 12.99,-2.65 7.48,0 13.34,1.87 17.58,5.63 4.25,3.73 6.46,8.91 6.6,15.48l0 29.96c0,5.97 0.78,10.72 2.3,14.25l0 0.96 -11.66 0zm-18.42 -8.25c3.48,0 6.78,-0.9 9.9,-2.74 3.13,-1.8 5.39,-4.18 6.78,-7.07l0 -13.47 -8.69 0c-13.61,0 -20.41,4.02 -20.41,12.07 0,3.51 1.14,6.26 3.46,8.23 2.33,1.99 5.3,2.98 8.96,2.98zm128.75 8.25l-11.1 0 0 -55.81 -29.9 0 0 55.81 -11.16 0 0 -65.05 52.16 0 0 65.05zm14.88 -33.12c0,-6.39 1.24,-12.11 3.75,-17.2 2.5,-5.12 5.98,-9.04 10.44,-11.81 4.45,-2.77 9.55,-4.15 15.27,-4.15 8.85,0 16,3.06 21.47,9.2 5.45,6.14 8.17,14.31 8.17,24.5l0 0.77c0,6.35 -1.2,12.04 -3.62,17.06 -2.42,5.04 -5.88,8.96 -10.39,11.78 -4.49,2.81 -9.67,4.2 -15.51,4.2 -8.81,0 -15.94,-3.05 -21.39,-9.2 -5.47,-6.14 -8.19,-14.26 -8.19,-24.37l0 -0.78zm11.16 1.29c0,7.21 1.66,13.03 5,17.39 3.34,4.38 7.83,6.55 13.42,6.55 5.63,0 10.12,-2.21 13.44,-6.65 3.32,-4.43 4.98,-10.63 4.98,-18.62 0,-7.15 -1.67,-12.91 -5.06,-17.35 -3.38,-4.44 -7.87,-6.65 -13.48,-6.65 -5.47,0 -9.9,2.17 -13.26,6.55 -3.35,4.37 -5.04,10.63 -5.04,18.78zm145.46 31.83l-11.1 0 0 -55.81 -29.9 0 0 55.81 -11.17 0 0 -65.05 52.17 0 0 65.05zm72.7 -31.81c0,9.92 -2.27,17.89 -6.79,23.95 -4.52,6.06 -10.65,9.09 -18.37,9.09 -7.87,0 -14.08,-2.5 -18.61,-7.51l0 31.29 -11.1 0 0 -90.06 10.14 0 0.55 7.19c4.51,-5.6 10.8,-8.42 18.84,-8.42 7.8,0 13.98,2.95 18.52,8.85 4.55,5.89 6.82,14.08 6.82,24.6l0 1.02zm-11.11 -1.25c0,-7.33 -1.56,-13.12 -4.69,-17.37 -3.12,-4.25 -7.4,-6.37 -12.85,-6.37 -6.71,0 -11.75,2.98 -15.12,8.96l0 31.07c3.32,5.93 8.41,8.88 15.25,8.88 5.32,0 9.57,-2.1 12.7,-6.34 3.14,-4.23 4.71,-10.49 4.71,-18.83zm22.26 -0.06c0,-6.39 1.25,-12.11 3.75,-17.2 2.5,-5.12 5.98,-9.04 10.44,-11.81 4.45,-2.77 9.55,-4.15 15.27,-4.15 8.85,0 16,3.06 21.47,9.2 5.45,6.14 8.17,14.31 8.17,24.5l0 0.77c0,6.35 -1.2,12.04 -3.62,17.06 -2.42,5.04 -5.88,8.96 -10.39,11.78 -4.49,2.81 -9.66,4.2 -15.51,4.2 -8.81,0 -15.94,-3.05 -21.39,-9.2 -5.47,-6.14 -8.19,-14.26 -8.19,-24.37l0 -0.78zm11.16 1.29c0,7.21 1.66,13.03 5,17.39 3.34,4.38 7.83,6.55 13.42,6.55 5.64,0 10.12,-2.21 13.44,-6.65 3.33,-4.43 4.98,-10.63 4.98,-18.62 0,-7.15 -1.67,-12.91 -5.06,-17.35 -3.37,-4.44 -7.87,-6.65 -13.48,-6.65 -5.47,0 -9.9,2.17 -13.25,6.55 -3.36,4.37 -5.05,10.63 -5.05,18.78zm59.51 0.48c0,-10.86 2.08,-19.41 6.29,-25.61 4.19,-6.22 9.97,-9.32 17.29,-9.32 3.4,0 6.4,0.57 8.95,1.75l0 -27.87 11.11 0 0 28.23c2.79,-1.41 6.07,-2.11 9.83,-2.11 7.36,0 13.17,3.1 17.37,9.32 4.2,6.2 6.28,15.17 6.28,26.88 0,9.57 -2.08,17.19 -6.27,22.83 -4.17,5.65 -9.93,8.48 -17.25,8.48 -3.89,0 -7.22,-0.64 -9.96,-1.93l0 25.71 -11.11 0 0 -25.52c-2.64,1.17 -5.68,1.74 -9.07,1.74 -7.28,0 -13.01,-2.83 -17.19,-8.48 -4.19,-5.64 -6.27,-13.39 -6.27,-23.2l0 -0.9zm66.02 -0.02c0,-8.17 -1.39,-14.52 -4.2,-19.03 -2.81,-4.51 -6.66,-6.76 -11.59,-6.76 -2.52,0 -4.73,0.39 -6.59,1.18l0 47.07c1.78,0.68 4.04,1.02 6.72,1.02 4.96,0 8.82,-1.92 11.57,-5.76 2.72,-3.84 4.09,-9.76 4.09,-17.72zm-54.92 1.25c0,7.29 1.29,12.81 3.9,16.59 2.6,3.76 6.35,5.64 11.23,5.64 2.31,0 4.42,-0.36 6.3,-1.08l0 -47.17c-1.7,-0.68 -3.75,-1.02 -6.18,-1.02 -4.9,0 -8.65,2.17 -11.29,6.55 -2.65,4.37 -3.96,11.19 -3.96,20.49zm107.41 31.35c-8.79,0 -15.96,-2.89 -21.49,-8.68 -5.51,-5.81 -8.28,-13.55 -8.28,-23.26l0 -2.06c0,-6.44 1.23,-12.22 3.69,-17.29 2.46,-5.07 5.9,-9.05 10.33,-11.91 4.42,-2.87 9.22,-4.31 14.38,-4.31 8.44,0 14.99,2.79 19.69,8.36 4.67,5.58 7.03,13.57 7.03,23.96l0 4.64 -44.01 0c0.16,6.4 2.03,11.58 5.61,15.52 3.59,3.94 8.14,5.91 13.67,5.91 3.91,0 7.23,-0.79 9.96,-2.4 2.72,-1.6 5.09,-3.72 7.15,-6.34l6.78 5.3c-5.45,8.38 -13.62,12.56 -24.51,12.56zm-1.37 -58.39c-4.49,0 -8.24,1.64 -11.29,4.92 -3.04,3.29 -4.92,7.89 -5.64,13.8l32.54 0 0 -0.84c-0.32,-5.69 -1.84,-10.08 -4.57,-13.2 -2.73,-3.12 -6.41,-4.68 -11.04,-4.68zm65.57 49.27c3.97,0 7.44,-1.18 10.39,-3.59 2.96,-2.4 4.61,-5.4 4.91,-9.01l10.51 0c-0.2,3.74 -1.47,7.29 -3.83,10.66 -2.38,3.37 -5.53,6.06 -9.46,8.06 -3.94,2 -8.11,3 -12.52,3 -8.83,0 -15.88,-2.95 -21.11,-8.87 -5.2,-5.91 -7.83,-14.02 -7.83,-24.29l0 -1.87c0,-6.32 1.18,-11.97 3.49,-16.9 2.32,-4.92 5.66,-8.76 10,-11.5 4.34,-2.72 9.47,-4.08 15.39,-4.08 7.29,0 13.33,2.18 18.17,6.55 4.82,4.37 7.37,10.06 7.7,17.02l-10.51 0c-0.3,-4.21 -1.9,-7.68 -4.77,-10.38 -2.85,-2.72 -6.4,-4.07 -10.59,-4.07 -5.63,0 -10,2.03 -13.11,6.1 -3.1,4.08 -4.65,9.95 -4.65,17.67l0 2.1c0,7.5 1.53,13.28 4.63,17.33 3.06,4.05 7.47,6.07 13.19,6.07zm64.36 0c3.97,0 7.43,-1.18 10.38,-3.59 2.97,-2.4 4.62,-5.4 4.92,-9.01l10.51 0c-0.2,3.74 -1.48,7.29 -3.83,10.66 -2.38,3.37 -5.54,6.06 -9.47,8.06 -3.93,2 -8.11,3 -12.51,3 -8.84,0 -15.88,-2.95 -21.11,-8.87 -5.2,-5.91 -7.83,-14.02 -7.83,-24.29l0 -1.87c0,-6.32 1.17,-11.97 3.49,-16.9 2.32,-4.92 5.66,-8.76 10,-11.5 4.34,-2.72 9.46,-4.08 15.39,-4.08 7.28,0 13.33,2.18 18.17,6.55 4.81,4.37 7.37,10.06 7.7,17.02l-10.51 0c-0.3,-4.21 -1.91,-7.68 -4.77,-10.38 -2.85,-2.72 -6.4,-4.07 -10.59,-4.07 -5.64,0 -10.01,2.03 -13.12,6.1 -3.09,4.08 -4.65,9.95 -4.65,17.67l0 2.1c0,7.5 1.54,13.28 4.63,17.33 3.07,4.05 7.48,6.07 13.2,6.07zm80.36 -57.16l11.1 0 0 65.05 -11.1 0 0 -47.43 -29.96 47.43 -11.11 0 0 -65.05 11.11 0 0 47.5 29.96 -47.5zm70.96 0l11.1 0 0 65.05 -11.1 0 0 -47.43 -29.96 47.43 -11.1 0 0 -65.05 11.1 0 0 47.5 29.96 -47.5z"/>
    <path class="fil0" d="M3851.72 388.24l6.35 4.34c-3.71,5.07 -5.64,10.55 -5.75,16.44l0 8.17 -11.05 0 0 -6.96c0,-4.08 0.96,-8.13 2.91,-12.14 1.95,-4 4.44,-7.28 7.54,-9.85zm18.93 0l6.35 4.34c-3.71,5.07 -5.64,10.55 -5.76,16.44l0 8.17 -11.04 0 0 -6.96c0,-4.08 0.96,-8.13 2.91,-12.14 1.95,-4 4.45,-7.28 7.54,-9.85zm84.7 93.51l-11.58 0 0 -78.11 -43.1 0 0 78.11 -11.53 0 0 -87.6 66.21 0 0 87.6zm45.23 -7.89c3.96,0 7.43,-1.18 10.38,-3.59 2.97,-2.4 4.61,-5.4 4.91,-9.01l10.51 0c-0.2,3.74 -1.47,7.29 -3.83,10.66 -2.37,3.37 -5.53,6.06 -9.46,8.06 -3.93,2 -8.11,3 -12.51,3 -8.84,0 -15.88,-2.95 -21.12,-8.87 -5.19,-5.91 -7.82,-14.02 -7.82,-24.29l0 -1.87c0,-6.32 1.17,-11.97 3.48,-16.9 2.32,-4.92 5.66,-8.76 10,-11.5 4.34,-2.72 9.47,-4.08 15.39,-4.08 7.29,0 13.33,2.18 18.17,6.55 4.82,4.37 7.38,10.06 7.7,17.02l-10.51 0c-0.3,-4.21 -1.9,-7.68 -4.77,-10.38 -2.84,-2.72 -6.39,-4.07 -10.59,-4.07 -5.63,0 -10,2.03 -13.11,6.1 -3.1,4.08 -4.65,9.95 -4.65,17.67l0 2.1c0,7.5 1.54,13.28 4.63,17.33 3.07,4.05 7.47,6.07 13.2,6.07zm80.35 -57.16l11.1 0 0 65.05 -11.1 0 0 -47.43 -29.96 47.43 -11.1 0 0 -65.05 11.1 0 0 47.5 29.96 -47.5zm50.73 23.74l14.41 -23.74 12.97 0 -21.27 32.16 21.92 32.89 -12.85 0 -15.01 -24.35 -15 24.35 -12.91 0 21.92 -32.89 -21.27 -32.16 12.85 0 14.24 23.74zm34.98 8.19c0,-6.39 1.24,-12.11 3.74,-17.2 2.51,-5.12 5.98,-9.04 10.45,-11.81 4.45,-2.77 9.55,-4.15 15.27,-4.15 8.85,0 16,3.06 21.47,9.2 5.46,6.14 8.18,14.31 8.18,24.5l0 0.77c0,6.35 -1.2,12.04 -3.62,17.06 -2.42,5.04 -5.89,8.96 -10.4,11.78 -4.49,2.81 -9.67,4.2 -15.51,4.2 -8.81,0 -15.94,-3.05 -21.39,-9.2 -5.47,-6.14 -8.19,-14.26 -8.19,-24.37l0 -0.78zm11.16 1.29c0,7.21 1.66,13.03 5,17.39 3.34,4.38 7.82,6.55 13.42,6.55 5.63,0 10.12,-2.21 13.44,-6.65 3.32,-4.43 4.98,-10.63 4.98,-18.62 0,-7.15 -1.68,-12.91 -5.06,-17.35 -3.38,-4.44 -7.87,-6.65 -13.48,-6.65 -5.48,0 -9.9,2.17 -13.26,6.55 -3.36,4.37 -5.04,10.63 -5.04,18.78zm114.2 -33.22l0 65.05 -11.17 0 0 -55.81 -22.11 0 -1.31 24.33c-0.72,11.17 -2.58,19.16 -5.62,23.97 -3.01,4.8 -7.8,7.3 -14.37,7.51l-4.44 0 0 -9.86 3.18 -0.24c3.61,-0.4 6.19,-2.48 7.74,-6.24 1.57,-3.76 2.57,-10.72 3,-20.9l1.21 -27.81 43.89 0zm14.87 31.93c0,-6.39 1.25,-12.11 3.75,-17.2 2.5,-5.12 5.98,-9.04 10.44,-11.81 4.45,-2.77 9.55,-4.15 15.27,-4.15 8.85,0 16,3.06 21.47,9.2 5.45,6.14 8.17,14.31 8.17,24.5l0 0.77c0,6.35 -1.2,12.04 -3.62,17.06 -2.42,5.04 -5.88,8.96 -10.39,11.78 -4.49,2.81 -9.66,4.2 -15.51,4.2 -8.81,0 -15.94,-3.05 -21.39,-9.2 -5.47,-6.14 -8.19,-14.26 -8.19,-24.37l0 -0.78zm11.16 1.29c0,7.21 1.66,13.03 5,17.39 3.34,4.38 7.83,6.55 13.42,6.55 5.64,0 10.12,-2.21 13.44,-6.65 3.33,-4.43 4.98,-10.63 4.98,-18.62 0,-7.15 -1.67,-12.91 -5.06,-17.35 -3.37,-4.44 -7.87,-6.65 -13.48,-6.65 -5.47,0 -9.9,2.17 -13.25,6.55 -3.36,4.37 -5.05,10.63 -5.05,18.78zm103.86 -23.98l-29.95 0 0 55.81 -11.17 0 0 -65.05 41.12 0 0 9.24zm11.15 -7.14l-6.29 -4.34c3.71,-5.19 5.64,-10.69 5.76,-16.47l0 -8.64 10.98 0 0 7.81c-0.04,4.02 -1.02,8 -2.97,11.99 -1.95,3.97 -4.43,7.2 -7.48,9.65zm18.44 0l-6.29 -4.34c3.71,-5.19 5.63,-10.69 5.76,-16.47l0 -8.64 10.98 0 0 7.81c-0.04,4.02 -1.02,8 -2.97,11.99 -1.95,3.97 -4.42,7.2 -7.48,9.65z"/>
   </g>
  </g>
  <g id="_2108809333904">
   <path class="fil1" d="M364.38 438.41c-17.17,-1.31 -40.42,-1.17 -40.42,-1.17 -25.27,0.43 -50.52,3.04 -75.48,7.86l-0.03 0 0 0c-4.84,-25.05 -7.45,-50.4 -7.87,-75.77 -1,-0.44 -1.99,-0.86 -3.01,-1.23 -5.67,6.45 -14.09,10.4 -23.36,10.08 -15.56,-0.55 -28.32,-13.45 -28.65,-29.02 -0.36,-17.13 13.66,-30.86 30.57,-30.36 9.19,0.27 17.29,4.69 22.55,11.42 1.03,-0.31 2.05,-0.67 3.07,-1.05 1.9,-25.3 6,-50.45 12.29,-75.18 0,0 0,0 0,0l0.04 0c24.72,6.29 49.85,10.38 75.14,12.28 0.38,1.02 0.75,2.04 1.06,3.08 -6.77,5.28 -11.21,13.45 -11.43,22.72 -0.37,15.56 11.76,29.06 27.28,30.3 17.08,1.37 31.62,-11.82 32.11,-28.73 0.27,-9.2 -3.68,-17.55 -10.09,-23.18 0.37,-1.02 0.79,-2.02 1.24,-3.01 25.35,-0.42 50.68,-3.04 75.73,-7.87l0.04 0 -0.01 0.07c4.83,25.03 7.44,50.35 7.86,75.7 1,0.44 1.99,0.86 3.01,1.23 5.68,-6.45 14.1,-10.4 23.36,-10.08 15.32,0.55 27.91,13.05 28.62,28.28l0 2.73c-0.71,16.18 -14.28,28.85 -30.54,28.37 -9.19,-0.27 -17.29,-4.69 -22.55,-11.42 -1.04,0.31 -2.05,0.67 -3.08,1.05 -1.89,25.28 -5.98,50.41 -12.27,75.12l0 0.06 -0.01 0 -0.02 0c-24.71,-6.29 -49.85,-10.38 -75.15,-12.28z"/>
   <path class="fil2" d="M178.83 241.71c-0.39,-1.03 -0.75,-2.04 -1.06,-3.08 6.77,-5.29 11.21,-13.47 11.43,-22.73 0.36,-15.57 -11.77,-29.06 -27.3,-30.3 -17.07,-1.36 -31.6,11.83 -32.09,28.74 -0.27,9.2 3.68,17.54 10.08,23.18 -0.37,1.02 -0.79,2.01 -1.23,3.01 -25.36,0.42 -50.69,3.03 -75.74,7.87l-0.03 0 0 0c-4.84,-25.06 -7.45,-50.4 -7.87,-75.77 -1,-0.44 -1.99,-0.86 -3.01,-1.23 -5.67,6.44 -14.09,10.4 -23.35,10.08 -15.56,-0.55 -28.33,-13.45 -28.66,-29.02 -0.36,-17.12 13.66,-30.86 30.57,-30.36 9.19,0.27 17.29,4.69 22.55,11.42 1.04,-0.31 2.05,-0.67 3.08,-1.06 1.9,-25.3 5.99,-50.44 12.28,-75.17l0.04 0c24.72,6.29 49.85,10.38 75.14,12.28 16.06,1.56 40.55,1.17 40.55,1.17 25.23,-0.44 50.43,-3.05 75.35,-7.86l0.03 0 0 0.07c4.83,25.03 7.45,50.35 7.86,75.7 1,0.44 1.99,0.86 3.02,1.23 5.67,-6.45 14.09,-10.41 23.35,-10.08 15.57,0.55 28.33,13.45 28.65,29.02 0.36,17.13 -13.66,30.86 -30.57,30.36 -9.19,-0.27 -17.29,-4.7 -22.54,-11.42 -1.04,0.31 -2.06,0.67 -3.08,1.05 -1.9,25.28 -5.99,50.4 -12.27,75.11l-0.01 0.07 -0.01 0 -0.01 0c-24.72,-6.3 -49.86,-10.39 -75.15,-12.28z"/>
   <path class="fil3" d="M438.45 143.64c-0.6,7.27 -1.49,34.77 -1.17,40.17 0.42,25.36 3.03,50.69 7.87,75.74l0 0.02c0,0 0,0 0,0.01 -25.06,4.83 -50.4,7.45 -75.77,7.87 -0.44,0.99 -0.86,1.99 -1.23,3.01 6.4,5.63 10.35,13.98 10.08,23.18 -0.48,16.4 -14.16,29.3 -30.56,28.82 -16.4,-0.48 -29.3,-14.16 -28.82,-30.56 0.26,-9.2 4.69,-17.3 11.42,-22.55 -0.31,-1.04 -0.67,-2.06 -1.06,-3.08 -25.3,-1.9 -50.45,-5.99 -75.17,-12.29 0,0 0,0 0,0l0 -0.03c6.29,-24.72 10.38,-49.86 12.28,-75.15 1.02,-0.38 2.04,-0.74 3.08,-1.05 5.25,6.73 13.35,11.15 22.54,11.42 16.41,0.48 30.09,-12.42 30.56,-28.82 0.49,-16.4 -12.41,-30.08 -28.82,-30.56 -9.19,-0.27 -17.54,3.68 -23.18,10.08 -1.01,-0.37 -2.01,-0.79 -3.01,-1.23 -0.41,-25.36 -3.03,-50.69 -7.86,-75.73l0 -0.02 0 -0.02 0.07 0.01c25.03,-4.84 50.35,-7.45 75.7,-7.86 0.44,-1 0.86,-2 1.23,-3.01 -6.41,-5.64 -10.35,-13.99 -10.09,-23.18 0.48,-16.15 13.74,-28.9 29.8,-28.84 0.26,0 0.51,0.01 0.77,0.01 16.4,0.48 29.3,14.16 28.82,30.57 -0.27,9.19 -4.7,17.29 -11.42,22.54 0.31,1.04 0.67,2.06 1.05,3.08 25.28,1.9 50.41,5.99 75.11,12.27l0.07 0.01 0 0.02c-6.29,24.72 -10.38,49.86 -12.29,75.15z"/>
   <path class="fil4" d="M241.75 329.16c-1.02,0.38 -2.04,0.74 -3.07,1.06 -5.26,-6.73 -13.36,-11.16 -22.55,-11.43 -16.41,-0.48 -30.08,12.42 -30.56,28.82 -0.48,16.41 12.42,30.09 28.82,30.57 9.2,0.27 17.54,-3.68 23.18,-10.09 1.02,0.38 2.01,0.79 3.01,1.24 0.42,25.35 3.03,50.69 7.87,75.74l0 0.02c0,0 0,0 0,0 -25.06,4.84 -50.4,7.46 -75.77,7.87 -0.45,1 -0.86,1.99 -1.24,3.01 6.41,5.64 10.36,13.99 10.09,23.18 -0.48,16.4 -14.16,29.31 -30.56,28.83 -16.4,-0.48 -29.31,-14.16 -28.82,-30.56 0.26,-9.2 4.69,-17.3 11.42,-22.55 -0.32,-1.04 -0.67,-2.06 -1.06,-3.08 -25.3,-1.9 -50.45,-5.99 -75.18,-12.29l0 0 0.01 -0.04c6.29,-24.71 10.38,-49.85 12.28,-75.14 0.53,-4.2 1.32,-37.61 1.17,-40.16 -0.42,-25.36 -3.03,-50.69 -7.86,-75.73l0 -0.03 0 -0.01 0.06 0c25.03,-4.83 50.36,-7.44 75.7,-7.86 0.45,-0.99 0.86,-1.99 1.24,-3.01 -6.41,-5.63 -10.36,-13.98 -10.09,-23.17 0.48,-16.41 14.16,-29.31 30.56,-28.83 16.4,0.48 29.31,14.16 28.83,30.56 -0.27,9.2 -4.7,17.3 -11.43,22.55 0.32,1.04 0.67,2.06 1.06,3.08 25.28,1.9 50.4,5.98 75.11,12.27l0.07 0 0 0.03c-6.29,24.72 -10.39,49.86 -12.29,75.15z"/>
   <path class="fil5" d="M381.45 118.07c0,0 -37.76,65.61 -112.68,68.13 2.24,-16.52 5.09,-29.65 7.83,-39.7 7.81,-2.97 15.57,-9.7 20.99,-19.1 9.75,-16.89 8.27,-35.99 -3.3,-42.67 -11.57,-6.69 -28.86,1.59 -38.61,18.48 -9.75,16.89 -8.27,36 3.3,42.68 0.5,0.29 1.02,0.54 1.55,0.78 -9.53,11.87 -17.1,24.27 -22.91,37.02 -35.74,-6.8 -78.09,-27.84 -127.02,-72.84 0,0 50.33,83.72 115.16,109.18 -14.66,70.65 14.78,146.48 56.02,200.67 -15.66,-83.5 -18.77,-146.92 -16.63,-193.48 38.5,-1.52 79.34,-29.71 116.3,-109.15z"/>
  </g>
 </g>
</svg>
