<?xml version="1.0" encoding="UTF-8"?>
<!DOCTYPE svg PUBLIC "-//W3C//DTD SVG 1.1//EN" "http://www.w3.org/Graphics/SVG/1.1/DTD/svg11.dtd">
<!-- Creator: CorelDRAW 2020 (64-Bit) -->
<svg xmlns="http://www.w3.org/2000/svg" xml:space="preserve" width="76.1998mm" height="83.5346mm" version="1.1" style="shape-rendering:geometricPrecision; text-rendering:geometricPrecision; image-rendering:optimizeQuality; fill-rule:evenodd; clip-rule:evenodd"
viewBox="0 0 7619.98 8353.46"
 xmlns:xlink="http://www.w3.org/1999/xlink"
 xmlns:xodm="http://www.corel.com/coreldraw/odm/2003">
 <defs>
  <style type="text/css">
   <![CDATA[
    .fil0 {fill:black;fill-rule:nonzero}
   ]]>
  </style>
 </defs>
 <g id="Слой_x0020_1">
  <metadata id="CorelCorpID_0Corel-Layer"/>
  <g id="_2108668698144">
   <path class="fil0" d="M7518.56 804.15c-17.27,86.93 -39.7,172.69 -65.32,257.52 -9.11,-2.46 -17.67,0.88 -23.78,6.64 50.6,-177.3 66.45,-353.79 100.51,-535.1 5.93,-30.89 -42.06,-39.88 -47.79,-9.09 -34.27,181.87 -50.59,361.57 -101.65,538.81 -2.05,7.13 -0.76,12.88 2.05,17.32 -30.5,-4.32 -63.32,-13.33 -94.89,-24.8 73.73,-210.05 96.34,-425.66 136.2,-645.25 5.65,-30.89 -42.21,-39.97 -47.96,-9.07 -37.56,207.68 -58.76,413.21 -125.19,612.54 -4.52,3.1 -8.18,7.84 -9.54,14.99l-1.44 7.33c-17.95,-8.21 -33.72,-16.14 -47.91,-23.88l53.62 -284.56c5.85,-30.91 -42.05,-40.08 -47.86,-9.07l-50.09 265.76c-9.5,-6.4 -18.95,-12.81 -28.35,-19.24 0.37,-0.83 0.88,-1.15 1.35,-2.19 0.64,-2.13 1.11,-4.06 1.98,-6.21l0 0c48.96,-137.47 51.49,-273.01 78.23,-414.9 5.74,-30.9 -42.06,-39.88 -47.96,-8.97 -25.38,134.82 -27.09,265.87 -72.28,396.8 -1.28,1.82 -2.17,4.33 -2.93,6.75 -45.39,-33.67 -89.15,-70.44 -129.76,-109.83 7.3,-5.23 12.04,-14.1 11.23,-23.6 13.35,-31.66 16.1,-65.91 30.09,-96.42 24.14,-52.42 42.24,-112.87 55.45,-169.33 7.19,-30.74 -40.77,-39.74 -47.76,-9.08 -10.63,44.67 -27.09,117.28 -51.57,157 -18.26,29.88 -17.45,71.96 -33.28,104.54 -24.72,-26.4 -48.58,-53.24 -69.95,-81.54 -45.11,-60.04 -71.95,-134.27 -125.72,-188.21 -57.14,-57.47 -106.76,-137.33 -168.42,-189.24 43.9,-17.49 87.97,-35.15 131.99,-52.17 231.67,-90.12 473.72,-190.5 724.42,-205.16 9.79,12.44 31.65,12.36 40.16,-2.98 215.4,105.45 110.77,549.31 74.12,733.89zm-226.76 721.31c-144.44,-29.41 -262.6,-74.99 -386.73,-158.21 -102.2,-68.4 -188.73,-161.16 -282.98,-239.81 -100.4,-83.82 -175.71,-182.58 -259.58,-281.34 -77.54,-91.08 -171.43,-219.65 -181.22,-345.42 1.95,-2.6 3.48,-5.98 4.19,-9.93l1.51 -8.06c101.89,-44.98 204.33,-88.86 307.69,-130.8 2.13,11.18 12.21,17.55 22.73,18.16 21.3,21.84 39.5,52.23 59.04,74.01 46.95,51.85 104.42,98.52 141.05,158.38 57.99,94.85 116.71,175.53 196.58,253.8 91.93,89.76 189.56,172.98 307.34,227.08 52.29,23.76 142.5,49.14 210.69,46.48 -42.67,133.3 -91.68,264.74 -140.31,395.66zm-800.69 1394.79c-255.22,354.87 -551.14,656.36 -880.07,935.26 -14.6,-8.22 -38.63,-0.03 -37.37,22.14 0.21,3.06 0.92,5.96 1.22,8.93 -50.41,42.11 -101.45,83.92 -153.42,125.17 -192.24,152.52 -372.24,320.05 -551.96,487.09 -13.29,12.34 -27.09,24.16 -40.38,36.58 -4.94,-3.01 -10.65,-4.34 -16.29,-3.85 -7.1,-5.25 -14.72,-9.74 -22.14,-14.25 3.15,-2.09 6,-4.68 8.04,-8.64 32.64,-61.26 106.23,-105.72 150.89,-155.65 61.97,-69.45 133.64,-128.27 205.08,-187.71 104.8,-87.2 203.47,-186.03 304.21,-278.21 130.21,-119.05 252.72,-253.42 370.24,-384.73 85.95,-96.52 222.96,-194.05 283.68,-307.97 14.69,-27.78 -29.18,-49.02 -43.88,-21.41 -31.16,58.52 -100.91,112.57 -146.82,160.19 -52.19,54.26 -103.26,107.25 -153.43,163.61 -123.17,137.66 -253.69,280.11 -394.13,400.31 -119.03,102.03 -229.21,212.43 -349.44,313.31 -82.96,69.53 -199.94,162.74 -258.94,258.74 -5.81,3.03 -10.22,8.19 -11.78,16.35l-1.46 8.05c-0.35,1.21 0.08,2.43 -0.08,3.8 -24.61,-11.43 -50.48,-20.78 -76.93,-30.41 -32.7,-11.83 -65.58,-27.23 -98.02,-43.77 15.29,-61.41 79.02,-68.93 116.07,-110.37 45.02,-50.5 90.29,-100.38 139.26,-147.24 93.41,-89.3 170.65,-208.41 245.06,-313.3 18.1,-25.57 -18.66,-57.62 -36.84,-32.15 -82.22,115.94 -169.48,241.27 -272.24,339.47 -62.26,59.55 -117.03,119.53 -186,172.01 -26.35,19.93 -40.86,41.01 -49.45,68.37 -5.28,-2.89 -10.61,-5.69 -15.72,-8.57 2.61,-2.12 5.08,-4.97 6.95,-8.73 21.23,-44.66 67.49,-83.27 95.4,-124.82 43.24,-64.34 105.81,-128.24 158.8,-184.92 51.24,-54.82 87.23,-126.94 132.84,-186.34 24.11,-31.55 52.57,-56.11 76.66,-86.05 10.15,-0.33 19.99,-5.85 22.39,-18.77l4.52 -23.94c5.26,-27.62 -32.86,-39.16 -45.86,-15.31 -29.22,54.03 -77.55,90.01 -114.45,137.93 -48.3,62.95 -86.4,132.18 -140.89,190.42 -45.2,48.37 -88.97,103.27 -130.73,155.11 -34.15,41.82 -79.21,86.44 -102.51,135.27 -1.37,2.72 -1.77,5.57 -2.08,8.21 -8.08,-4.73 -16.29,-9.25 -24.22,-13.99 -21.04,-12.19 -42.46,-25.15 -63.84,-37.67 51.36,-55.11 105.89,-107.04 157.9,-161.67 22.43,-23.38 42.84,-56 71.38,-72.43 19.86,-11.52 31.12,-22.51 40.69,-43.45 13.08,-28.54 -30.7,-49.97 -43.8,-21.32 -7.8,16.98 -41.58,35.93 -55.74,50.78 -21.66,22.7 -41.94,46.71 -63.59,69.58 -49.38,51.52 -101.4,100.63 -149.79,153.03 -18.63,-10.94 -36.96,-21.55 -55.49,-32.78 0.44,-0.21 0.87,-0.07 1.29,-0.47 21.86,-11.53 35.78,-31.11 55.66,-45.73 28.05,-20.18 55.45,-42.47 80.91,-65.67 29.5,-27.05 60.7,-53.18 87.93,-82.59 11.67,-12.53 24.25,-22.64 35.03,-33.95 8.12,-1.94 15.4,-7.45 17.47,-18.17l2.95 -16.13c4.94,-26.23 -35.93,-41.41 -46,-15.3 -6.83,19.1 -32.16,38.48 -46.21,51.52 -24.47,22.74 -48.37,46.27 -73.06,68.94 -27.41,25.19 -57.16,47.86 -86.44,71.29 -17.83,14.06 -35.75,35.08 -55.66,45.63 -8.3,4.42 -11.24,11.24 -11.03,17.9 -88.33,-53.98 -175.59,-110.03 -258.34,-169.37 -129.78,-93.03 -270.24,-172.4 -398.46,-267.55 -56.56,-42 -97.29,-92.02 -140.94,-146.66 -48.6,-61.09 -180.9,-195.23 -171.41,-279.22 0.49,-3.57 -0.03,-6.85 -0.83,-9.67 53.47,-76.68 111.58,-150.58 164.05,-227.63 144.12,-211.19 286.76,-422.07 443.71,-624.18 286.55,-368.9 583.06,-728.38 926.95,-1045.28 367.39,-338.3 726.86,-686.2 1183.43,-901.66 42.48,-20.05 85.82,-38.82 128.71,-58.19 8.79,99.48 69.63,198.96 120.81,281.19 72.15,115.91 177.49,228.26 276.06,322.35 222.33,212.25 443.4,394.99 745.25,460.41 -185.27,490.18 -478.83,925.57 -783.33,1348.9zm4.63 640.59c44.24,163.78 81.6,330.85 117.18,496.54 34.82,161.61 123.89,277.68 -1.49,432.07 -92.57,114.12 -201.5,216.1 -295.1,330.76 -400.13,491.06 -891.61,897.34 -1308.41,1372.87 -19.48,-20.26 -45.8,-34.32 -71.84,-43.66 -46.02,-16.45 -83.04,-25.28 -115.5,-52.55 112.8,-135.9 252.1,-252.48 368.89,-386.16 73.7,-84.44 147.5,-168.99 221.39,-253.37 36.4,-41.81 103.77,-93.87 111.67,-154.27 9.2,-69.72 -12.82,-127.76 -37.28,-193.06 -35.16,-94.09 -66.48,-189.68 -95.7,-285.78 -56.49,-187.1 -142.02,-364.94 -194.66,-552.19 38.29,-33.22 76.89,-66.01 115.51,-98.73 23.32,137.3 85.92,272.26 141.93,398.4 31,70.24 52.79,147.7 80.12,219.63 24.02,63.17 56.35,132.23 70.55,199.33 0.2,2.33 0.87,4.71 1.69,6.89 0.74,3.54 1.98,7.22 2.53,10.7 4.18,25.27 46.36,31.59 48.23,2.55 0.14,-2.54 0.08,-4.43 0.17,-6.61l0.26 -0.02c-0.11,-0.35 -0.15,-0.78 -0.29,-1.23 -0.27,-6.19 -1.04,-11.27 -3.23,-16.5 -53.39,-290.21 -257.46,-546.72 -297.53,-840.6 -0.38,-3.21 -1.6,-5.82 -2.78,-8.23 19.13,-16.44 38.6,-32.81 57.9,-49.45 -0.9,3.88 -1.11,7.94 0.21,12.61 41.28,145.36 87.7,288.28 128.92,433.46 8.62,30.21 54.58,13.74 46.04,-16.47 -41.47,-145.06 -87.58,-287.93 -129.1,-433.44 -3.56,-12.33 -13.42,-16.63 -23.07,-15.52 25.22,-21.47 50.54,-43.05 75.78,-64.34 -2.95,100.34 61.03,211.42 101.58,299.54 26.66,58.08 38.92,125.43 62.07,185.35 5.43,14.06 33.74,111.8 32.88,125.97 -1.94,30.83 45.95,40.26 47.87,8.89 4.42,-71.58 -38.07,-155.91 -60.69,-222.19 -19.9,-58.86 -38.49,-116.53 -62.18,-174.08 -26.84,-64.99 -80.19,-155.81 -73.56,-227.48 1.02,-12.01 -5.4,-20.67 -13.88,-25.08 14.45,-12.24 28.98,-24.76 43.56,-37.03 21.72,65.21 65.82,132.54 91.79,188.05 21.38,46.28 46.06,86.01 61.12,135.62 9.19,30.34 18.49,63.92 32.06,92.82 13.23,28.2 59.3,12.06 45.97,-16.29 -28.85,-61.68 -37.06,-131.36 -70.63,-191.57 -25.97,-46.14 -46.91,-92.72 -68.19,-141.16 -14.94,-33.27 -39.55,-66.8 -50.66,-102.76 10.42,-8.84 20.76,-17.76 31.21,-26.58 0.55,1.39 1.06,2.8 1.95,3.98 10.85,63.78 49.53,127.51 79.07,182.81 29.95,55.63 64.34,105.48 86.18,165.87 13.71,37.98 17.69,74.91 37.31,111.13 15,27.6 55.01,-0.1 40.24,-27.43 -35.16,-65.13 -44.39,-142.48 -81.14,-208.9 -41.18,-74.44 -109.17,-158.48 -115.89,-247.25 -0.31,-6.36 -3.22,-11.36 -7.04,-15 24.55,-20.97 48.72,-41.97 73.02,-62.92 2.88,5.25 5.42,10.46 9.04,15.75 15.69,23.11 20.58,45.33 33.33,70.04 15.37,30.1 36.08,56.92 53.34,85.86 15.79,26.45 14.79,58.74 28.84,86.05 14.3,27.84 54.24,0.15 40.26,-27.46 -10.82,-20.99 -11.53,-48.09 -20.62,-70.05 -9.43,-22.91 -25.43,-43.2 -39.38,-63.57 -16.92,-25 -22.77,-49.21 -32.81,-77.15 -7.41,-20.83 -27.49,-31.92 -32.91,-53.12 7.4,-6.49 15.07,-12.85 22.36,-19.41 4.23,45.29 46.63,91.82 63.82,132.3 24.49,57.55 74.1,120.17 72.9,185.7 -0.56,31.45 48,27.2 48.56,-3.98 0.84,-48.44 -27.01,-112.2 -51.89,-153.01 -18.87,-30.77 -30.96,-64.49 -47.32,-96.65 -10.22,-20.15 -37.63,-50.55 -38.16,-73.8 -0.23,-11.16 -6.67,-17.64 -14.75,-20.3 16.89,-14.88 33.08,-30.43 49.72,-45.49 0.67,1.84 1.06,3.8 2.29,5.84 47.76,74.26 61.63,164.64 103.05,242.49 14.76,27.89 54.76,0.1 40.16,-27.43 -41.44,-78.12 -54.71,-167.76 -102.96,-242.67 -2.7,-4.09 -6.26,-6.5 -9.93,-8.18 14.58,-13.42 29.42,-26.43 43.59,-39.99 1.24,4.95 4.16,8.67 7.88,11.78 28.21,91.43 101.03,167.4 132.87,256.78 10.61,29.61 56.59,13.32 45.97,-16.36 -15.78,-44.23 -44.52,-84.82 -67.75,-125.24 -14.33,-24.83 -27.93,-49.94 -39.18,-76.22 -8.7,-20.38 -25.51,-44.93 -30.06,-66.46 -1.87,-8.41 -7.26,-14.54 -13.71,-18.21 23.16,-22.29 45.21,-46.2 67.85,-69.52 -4.08,6.13 -6.06,13.51 -3.08,21.19 27.21,69.87 75.06,127.22 117.19,188.3 17.89,25.91 58.04,-1.72 40.13,-27.5 -35.21,-51.06 -74.97,-99.99 -101.54,-156.44 5.95,-12.97 1.81,-30.85 -16.29,-34.26l-12.01 -2.3c-7.14,-1.28 -13.68,1.53 -18.88,5.58 16.62,-17.41 33.96,-34.14 50.41,-51.68 31.15,46.59 53.18,97.76 75,149.32 12.34,28.8 58.4,12.6 46.08,-16.57 -21.45,-50.5 -43.81,-100.74 -72.99,-147.43 -0.65,-1.3 -0.85,-2.46 -1.55,-3.75l-6.42 -9.56c-2.36,-3.12 -4.92,-5.54 -7.49,-7.11 3.9,-4.4 7.94,-8.53 11.8,-12.82 55.32,-62.49 108.42,-127.39 160.24,-193.18 2.4,2.4 5.24,4.23 8.5,5.48 44.02,125.38 94.92,247.71 129.49,376.47zm-2129.39 1379.58c-8.98,-4.73 -20.38,-5.01 -29.67,3.35 -17.82,16.24 -29.36,33.46 -42.13,53.79 -5.38,8.85 -11.23,16.38 -17.32,23.48 -10.68,-0.44 -21.6,5.02 -24.09,18.66l-0.96 4.86c-24.67,17.28 -54.3,23.34 -91.72,15.27 -32.91,-7.11 -66.43,-12.92 -99.55,-19.11 -26.04,-4.91 -115.12,-7.47 -131.83,-29.96 -6.56,-8.82 -15.56,-10.94 -23.92,-9.33 -301.99,-157.05 -621.81,-325.41 -842.72,-587.41 -18.43,-21.98 -38.41,-44.8 -58.65,-68.26 0.12,-0.09 0.12,-0.09 0.1,-0.27 4.71,-17.36 -9.11,-27.27 -23.29,-27.34 -38.74,-46.59 -75.86,-95.74 -101.25,-146.44 1.38,-10.5 -3.06,-18.15 -10.12,-22.41 -35.85,-85.1 -35.38,-174.38 49.75,-263.66 85.85,-90.19 192.77,-169.36 231.12,-293.62 1.13,-3.53 1.28,-6.61 0.91,-9.65 27.07,-45.08 52.62,-91.48 80.62,-136.75 4.28,-6.76 9.02,-13.48 13.4,-20.27 8.34,24.48 22.8,46.69 41.46,73.51 56.49,80.98 117.91,158.47 174.1,239.48 73.29,105.96 227.9,187.86 332.88,254.67 165.19,105.16 331.06,209.8 494.96,316.87 82.38,53.78 166.36,104.52 254.88,147.57 76.73,37.28 176.3,61.24 244.18,115.37 -138.98,124.12 -282.57,242.87 -421.14,367.6zm-549.43 557.08c-106.4,122.97 -207.77,252.29 -307.23,380.42 -103.3,133.19 -228.76,261.75 -356.66,371.85 -117.43,101 -231.63,199.47 -364.75,278.18 10.45,-36.02 20.11,-71.93 27.29,-110.35 3.68,-19.19 -20.86,-39.37 -37.58,-24.85 -52.38,45.72 -87.2,107.24 -134.45,157.93 -62.15,66.78 -133.79,127.13 -196.7,194.31 -161.33,172.35 -360.47,312.36 -541.62,462.67 -155.25,128.86 -332.24,245.23 -503.88,351.76 -82.61,51.29 -163.13,119.43 -250.98,160.15 -28.63,13.11 -54.14,34.5 -82.37,49.19 -28.51,15.08 -93.04,53.97 -142.96,76.74 32.13,-57.08 74.96,-112.15 112.9,-162.33 21.03,-28.07 51.47,-67.73 25.98,-101.11 -11.24,-14.56 -33.2,-13.76 -42.07,2.96 -124.33,236.31 -359.33,395.08 -566.72,552.86 -63.01,48.07 -155.67,73.78 -230.42,101.81 -22.09,8.38 -105.56,50.72 -155.1,66.69 53.7,-79.48 129.56,-146.15 188.38,-221.03 65.33,-82.99 135.17,-161.24 191.96,-250.55 64.35,-101.06 106.12,-208.94 181.22,-304.35 21.99,-27.86 38.84,-61.69 42.48,-96.3 21.29,-14.89 35.37,-36.86 48.93,-60.12 25.18,-43.2 55.75,-84.08 85.58,-124.15 18.56,-25.15 -18.2,-57.2 -36.88,-31.97 -24.93,33.65 -48.76,68.06 -72.88,102.43 -11.81,16.89 -21.42,40.53 -35.47,58.15 -8.01,-6.34 -20.37,-7.26 -29.35,-1.63 -71.16,45.71 -12.25,-21.59 1.52,-40.29 20.49,-28.35 38.52,-57.97 56.43,-88.1 49.34,-83.43 96.85,-167.35 147.81,-250.03 108.47,-175.58 227.6,-353.86 315.34,-540.94 40.71,-86.58 67.15,-176.09 113.37,-260.43 51,-93.52 114.75,-179.29 184.35,-259.67 56.28,-65.28 100.1,-137.32 150.62,-207.25 55.67,-76.94 151.28,-119.41 210.46,-195.76 19.73,-25.57 -13.89,-52.39 -36.76,-32.02 -108.15,96.39 -243.53,159.23 -384.78,197.11 11.29,-25.06 27.75,-27 44.02,-56.27 29.88,-53.71 57.96,-109.44 93.65,-159.5 51.51,-72.73 119.08,-135.26 174.14,-205.65 115.9,-148.24 242.98,-298.43 375.23,-432.89 133.65,-135.87 272.32,-261.6 399.42,-404.47 69.83,-78.33 140.98,-155.8 208.07,-236.61 31.81,-38.27 73.1,-74.47 106.04,-114.47 4.36,27.89 13.8,54.86 26.15,81.14 -127.9,123.63 -224.6,283.32 -346.26,413.92 -56.4,60.4 -126.25,118.7 -187.82,174.59 -49.36,45.09 -142.71,101.72 -165.74,164.77 -10.74,29.26 32.88,50.98 43.7,21.35 19.78,-53.76 118.79,-114.46 158.8,-154.07 61.02,-60.26 125.99,-115.54 187.79,-174.69 125.48,-119.9 212.7,-278.42 334.16,-401.68 9.33,15.26 20.34,29.75 30.94,44.19 -0.23,0.55 -0.63,0.69 -0.9,1.15 -19.47,37.04 -60.27,59.12 -88.67,88.89 -38.97,41.04 -73.42,85.67 -110.93,127.96 -94.52,106.33 -211.63,201.18 -295.18,316.14 -18.32,25.4 18.31,57.44 36.83,32.04 80.89,-111.4 194.59,-222 295.24,-316.34 49.62,-46.73 84.54,-106.75 136.31,-152.41 20.65,-18.19 41.78,-34.88 58.06,-56.3 12.04,14.93 24.05,30.07 36.03,44.46 -62.05,59.54 -123.71,119.13 -182.7,181.57 -83.49,88.43 -147.45,193.17 -233.95,280.77 -177.03,179.35 -317.37,397.71 -515.18,556.48 -24.42,19.58 2.98,59.93 27.53,40.23 178.24,-143.1 314.13,-333.82 467.44,-501.59 156.68,-171.5 298.53,-351.44 463.36,-514.71 2.72,0.13 5.28,-0.45 8,-1.22 27.74,33.11 56.61,64.73 86.29,95.31 -3.69,2.29 -7,5.46 -9.07,10.88 -21.43,56.6 -67.77,93.68 -109.68,134.53 -64.21,62.69 -112.56,147.49 -186.5,200.47 -115.19,82.95 -200,195.76 -310.06,283.59 -24.42,19.51 2.87,59.94 27.44,40.32 48.68,-38.79 95.41,-80.88 136.33,-127.86 60.16,-68.75 155.42,-114.09 211.42,-183.67 50.43,-62.32 107.71,-118.37 158.13,-180.8 40.22,-49.73 91.95,-81.96 115.84,-143.55 25.22,24.55 50.69,48.46 76.86,71.57 -392.74,501.17 -875.95,926.26 -1286.91,1411.21 -20.33,24.01 16.51,55.77 36.74,31.84 401.95,-474.23 873.51,-892.72 1261.1,-1379.28 12.4,3.52 27.54,-1.28 30.71,-17.79l1.64 -9.17c36.05,30.04 73.42,58.43 111.13,86.05 -130.82,111.89 -272.69,247.74 -368.36,390.54 -108.58,162.06 -257.67,293.64 -368.95,451.94 -17.92,25.52 18.65,57.69 36.69,32.06 103.55,-147.18 235.27,-280.27 347.25,-422.32 113.24,-143.4 236.07,-284.55 374.61,-405.49 10.1,1.75 20.69,-2.13 25.56,-12.75 88.38,62.01 180.52,118.46 274.86,172.39 -1.63,1.21 -3.22,2.45 -4.64,4 -100.01,125.85 -187.23,264.35 -284.83,392.7 -18.98,24.8 17.9,57.02 36.74,31.85 92.82,-121.71 176.58,-253.13 270.59,-373.78 8.24,-1.68 15.51,-7.37 17.57,-18.18l2.23 -12.01c0.16,-1.11 -0.09,-1.91 0,-2.99 31.18,17.46 62.4,34.64 93.76,51.73 -71.13,40.71 -125.6,140.29 -171.73,204.8 -88.06,123.19 -195.27,232.8 -282.79,356.31 -18.09,25.64 18.66,57.61 36.75,31.97 74.17,-104.71 163.05,-198.38 238.73,-302.12 33.86,-46.38 70.5,-93.48 108.43,-136.6 24.28,-27.42 43.94,-70.62 72.77,-97.43 5.5,0.88 11.37,-0.08 17.01,-4.71 12.37,-9.44 16.46,-15.14 21.25,-29.98 0.06,-0.18 -0.14,-0.52 -0.07,-0.81 31.59,16.97 62.99,33.7 94.73,50.37 0.48,0.24 1.02,0.55 1.62,0.76 4.14,2.28 8.36,4.45 12.71,6.58 -138.84,140.38 -232.9,332.22 -384.76,460.43 -62.65,52.83 -108.4,135.14 -161.52,197.72 -57.54,67.61 -135.68,141.54 -176.37,220.52 -14.39,28.14 29.56,49.26 43.89,21.44 39.68,-77.03 118.35,-139.26 169.26,-210.02 54.35,-75.39 117.68,-146.49 180.83,-213.79 72.12,-76.91 133.68,-161.95 200.75,-242.94 58.39,-70.57 118.45,-159.63 184.5,-221.67 1.44,-1.48 1.97,-2.78 2.89,-4.22 5.38,0.72 10.72,1.8 16.13,2.59 -55.15,63.36 -89.42,141.47 -146.66,203.3 -34.53,37.4 -60.81,81.52 -97.43,116.6 -31.1,29.9 -52.43,53.85 -66.38,94.99 -10.05,29.38 33.71,51.09 43.7,21.46 15.14,-44.34 46.11,-71.62 78.89,-103.12 35.86,-34.38 62.68,-81.43 96.59,-118.25 52.39,-56.45 81.71,-129.63 132.65,-187.75 9.07,-0.7 17.31,-5.73 20.46,-16.46 19.24,3.68 38.38,7.9 57.3,11.98 -84.57,147.89 -195.23,266.82 -307.21,395.95zm-595.26 -2463.81c-131.3,3.99 -262.31,18.01 -393.15,28.3 -204.25,15.94 -406.77,33.87 -583.82,146.29 -181.9,115.25 -290.26,320.16 -450.52,460.19 -43.13,37.61 -92.05,67.68 -144.57,90.51 -64.33,32.64 -124.47,11 -180.14,-65.19 -8.99,-46.78 15.06,-106.49 34.92,-146.45 64.94,-129.7 180.55,-241.64 275.56,-350.01 180.57,-205.74 349.38,-415.64 512.65,-635.6 159.52,-214.48 315.93,-438.74 517.77,-615.99 100.34,-88.15 212.84,-156.52 348.63,-164.89 140.53,-8.84 288.88,36.65 425.78,62.49 118.23,22.27 236.62,35.06 356.84,40.77 131.03,6.28 262.52,-7.21 393.03,5 -60.53,73.93 -114.76,153.1 -175.38,226.94 -17.41,21.08 -35.23,41.81 -52.95,62.74 0.52,-10.89 -4.86,-22.43 -18.35,-25.88 -26.96,-7.15 -50.22,-21.94 -77.94,-27.25l-87.21 -16.35c-30.99,-5.84 -40.07,42.02 -9.08,47.86l78.12 14.71c30.55,5.87 57.19,21.01 87.12,28.81 3.15,0.91 5.85,0.78 8.34,0.57 -25.06,29.74 -50.01,59.75 -75.25,89.43 -0.71,-4.98 -3.22,-10.18 -9.17,-14.18 -25.37,-17.06 -51.17,-25.32 -81.05,-31.07 -27.99,-5.26 -53.37,-21.5 -81.51,-27.76 -30.71,-6.84 -39.73,41.12 -9.07,47.89 21.51,4.83 40.69,14.01 61.12,21.83 26.31,10.02 54.34,9.62 78.46,25.87 6.22,4.25 12.73,5.23 18.88,4.14 -18.55,21.82 -37.18,43.52 -55.24,65.65 -3.11,0.45 -6,1.59 -8.55,3.44 -70.4,-15 -138.17,-37.72 -208.1,-54.48 -1.24,-0.43 -2,-1.18 -3.39,-1.34l-7.96 -1.57c-30.91,-5.85 -39.53,40.82 -8.97,47.95 67.24,15.2 132.1,37.07 199.02,52.65 -24.98,31.81 -49.94,63.89 -74.42,96.14 -10.67,-3.61 -23.09,-0.83 -28.99,10.05 -107.65,-19.13 -214.98,-30.79 -322.34,-52.82 -30.68,-6.4 -39.79,41.39 -8.98,47.86 105.97,21.88 211.65,33.44 317.65,52.07 -1.78,2.22 -3.41,4.72 -5.17,7.12 -1.5,-0.51 -2.47,-1.07 -4.01,-1.37 -37.74,-3.73 -74.53,7.45 -112.17,3.71 -47.91,-4.83 -96.53,-18.27 -143.73,-27.12 -30.91,-5.75 -39.97,42.04 -8.98,47.85l125.62 23.81c37.62,7.09 72.68,-0.51 109.31,-0.68 -10.66,14.37 -21.45,28.72 -31.93,43.15 -13.02,-8.35 -34.02,-5.02 -37.72,14.78l-0.56 2.76c-149.25,-9.15 -296.2,-25.64 -444.31,-53.66 -31,-5.74 -39.97,42.22 -9.07,47.96 77.83,14.63 154.15,27.15 232.86,35.66 31.42,3.35 61.79,13.03 93.62,13.28 35.57,0.2 79.2,2.79 118.11,4.96 -2.01,2.81 -4,5.87 -6.06,8.65 -6.23,-2.25 -13.63,-2.26 -20.86,2.61 -65.27,43.02 -206.62,23.52 -279.36,27.67 -103.69,5.98 -222.27,-0.65 -325.91,-12.63 -30.92,-3.78 -40.17,44.12 -9.1,47.68 124.17,14.83 251.96,18.53 376.71,11.47 60.51,-3.64 145.8,5.13 213.22,-12.46 -2.94,4.12 -5.86,8.25 -8.75,12.46 -16.85,-6.76 -41.02,7.94 -32.93,30.44 -4.89,-13.85 -305.33,24.58 -336.86,24.03 -77.7,-1.38 -154.2,-10.65 -232.49,-10.88 -88.7,-0.37 -180.49,15.33 -268.81,11.07 -7.34,-7.4 -18.7,-10.75 -29.89,-3.12 -3.07,2.05 -6.21,4.21 -9.34,6.48 -16.29,11.13 -12.82,42.14 9.16,43.97 73.09,6.46 142.7,-9.13 215.7,-9.7 96.05,-0.9 191.21,9.17 286.72,10.14 116.75,1.65 230.19,-10.49 344.68,-24.52 -23.84,34.7 -47.66,69.29 -71.54,104.38 -5.04,-0.67 -10.28,0.32 -15.54,4.3 -52.16,38.73 -172.01,14.35 -238.41,16.43zm4395.13 -2616.07c15.06,-174.45 -18.32,-366.41 -207.67,-411.02 -15.67,-3.82 -25.67,6.98 -27.45,19.31 -221.35,17.04 -427.77,99.74 -635.33,175.35 -231.09,84.09 -457.13,183.45 -681.81,283.24 -447.63,198.8 -791.13,508.64 -1150.9,832.55 -185.82,167.39 -368.87,337.35 -537,522.53 -1.47,1.66 -2.87,3.6 -4.46,5.27 -129.36,-16.56 -261.4,-9.51 -391.38,-8.32 -177.74,1.49 -352.18,-34.48 -525.83,-67.18 -127.68,-24.17 -249.6,-46.23 -379.53,-29.44 -107.94,14.02 -212.09,99.53 -292.51,165.6 -220.34,181.54 -385.16,433.3 -553.94,660.41 -199.12,268.22 -409.98,524.74 -634.61,771.97 -104.2,115.11 -279.97,362.05 -91.66,480.92 75.81,47.84 201.05,-27.94 262.88,-67.6 101.08,-64.59 179.97,-163.18 256.24,-253.55 84.81,-100.46 170.2,-198.43 282.12,-269.36 131.03,-83.13 296.72,-97.48 447.12,-111.42 157.84,-14.4 316.23,-27.58 474.64,-34.64 63.54,-3 138.63,12.85 201.26,0.46 -62.26,89.71 -125.43,178.29 -189.03,266.93 -66.03,92.18 -112.95,195.53 -179.64,286.87 -8.08,11.07 -5.26,23.18 1.7,31.52 -73.82,106.75 -201.36,176.85 -252.53,299.06 -5.09,12.17 -8.57,24.11 -11.55,36 -3.69,2.03 -7.15,4.93 -9.36,9.55 -30.92,61.65 -116.24,134.65 -160.94,188.35 -69.05,83.15 -143.67,162.35 -215.53,243.21 -134.41,150.99 -287.78,280.95 -425.28,429.06 -137.64,148.2 -265.24,308.18 -392.75,465.08 -49.71,61.18 -104.14,113.75 -143.74,182.46 -37.69,65.65 -103.22,132.01 -114.48,208.22 -3.01,19.56 14.24,31.62 32.09,27.38 76.99,-17.86 148.62,-41.66 215.99,-72.16 -12.92,13.46 -25.27,27.25 -36.38,42.63 -66.82,92.52 -135.61,180.61 -205.25,270.74 -152.35,197.55 -222.57,438.07 -350.04,650.47 -133.7,223.01 -252.74,464.28 -405.51,675.14 -52.46,72.42 -31.35,138.65 41.25,111.87 -8.9,64.91 -91.95,138.06 -119.79,189.16 -53.47,97.88 -102.44,192.77 -166.91,284.17 -101.53,143.93 -252.21,260.23 -336.77,414.17 -6.15,11.55 -0.55,27.39 11.18,32.6 40.37,18.39 123.08,-30.73 159.38,-44.12 93.06,-34.3 182.29,-73.24 273.51,-112.27 52.01,-22.05 91.74,-68.29 135.92,-102.22 70.12,-53.72 142.09,-103.64 209.92,-160.88 21.14,-17.77 41.96,-36.86 62.55,-56.58 -4.56,15.99 6.05,33.68 24.29,31.84 65.76,-6.52 132.1,-53.81 187.95,-85.65 77.41,-44.42 153.66,-86.6 225.21,-140.27 92.28,-69.15 197.51,-124.34 292.98,-189.62 87.15,-59.42 172.33,-121.5 260.84,-178.87 197.05,-127.57 365.12,-305.26 544.2,-455.11 77.08,-64.42 136.97,-142.65 210.33,-210.18 35.63,-32.92 71.51,-59.8 104.61,-95.4 14.31,-15.36 26.51,-32.11 38.48,-49.2 -6.12,22.37 -12.62,44.49 -19.69,67.09 -7.14,22.99 21.52,33.27 37.67,24.68 168,-88.65 302.8,-208.8 445.24,-331.43 124.68,-107.11 236.6,-228.87 339.34,-357.2 109.22,-136.28 216.53,-275.49 330.98,-407.82 97.49,-112.19 189.58,-214.37 266.26,-337.58 3.31,-1.36 6.67,-3.36 9.53,-6.96 16.22,-20.05 18.51,-24.96 23.43,-44.58 39.46,7.72 71.49,3.34 106.32,-17.67 21.44,-12.85 35.19,-34.77 47.92,-57.53 197.78,-185 410.39,-353.43 608.66,-537.77 70.61,-65.58 142.66,-129.57 215.02,-192.98 41.81,137.18 108,265.8 150.92,402.42 51.72,164.77 105.36,327.84 160.3,491.41 42.26,125.68 -83.29,214.91 -154.94,297.11 -63.29,72.19 -126.6,144.75 -189.88,217.1 -104.21,119.17 -227.65,221.5 -329.9,341.76 -2.64,-1.84 -5.96,-3.27 -9.89,-4.11l-7.87 -1.4c-20.92,-3.89 -36.93,20.04 -24.67,37.56 30.24,43.71 60.43,67.47 109.6,88.54 41.06,17.69 92.52,17.99 120.87,56.34 -0.47,19.63 25.84,36.31 42.45,17.31 222.86,-257.46 475.26,-494.79 714.94,-736.72 244.91,-247.51 479.01,-495.27 700.34,-764.24 78.53,-95.6 201.38,-182.61 258.68,-292.55 58.51,-112.64 30.87,-225.6 -9.27,-340.54 -55.11,-158.06 -86.49,-326.64 -124.37,-489.6 -39.04,-168.46 -104.79,-325.15 -160.17,-488.43 -1.3,-3.85 -3.55,-6.83 -6.18,-9.22 110.85,-143.76 216,-292.43 318.4,-440.3 246.15,-355.27 450.32,-723.91 610.73,-1118.78 1.51,-2.02 3.27,-3.53 4.68,-6.26 1.75,-3.75 2.41,-7.7 2.17,-11.64 42.49,-105.59 82.55,-212.78 118.59,-322.52 87.86,-268.2 142.4,-531.55 166.71,-812.52z"/>
   <path class="fil0" d="M5473.68 3541.78c-49.52,23.55 -73.06,93.16 -110.11,132.68 -71.89,76.36 -135.6,159.3 -211.6,232.94 -86.08,83.33 -166.11,173.92 -250.38,259.9 -45.01,46.36 -88.67,93.93 -133.82,140.2 -28.19,28.94 -64.31,89.6 -103.22,106.64 -28.72,12.3 -12.68,58.38 16.2,45.8 60.69,-26.11 106.62,-103.04 151.42,-148.92 82.11,-83.9 165.96,-165.15 248.51,-248.38 38.72,-38.94 68.27,-84.87 108.13,-123.37 36.19,-34.76 93.5,-77.57 120.04,-119.53 32.55,-51.26 73.17,-93.97 114.37,-137.75 9.85,-10.41 24.89,-39.39 39.76,-62.66 7.92,2.93 16.7,1.18 23.24,-8.13 11.14,-16.3 14.64,-22.91 19.59,-41.93 4.22,-16.96 -15.66,-35.29 -32.13,-27.49z"/>
   <path class="fil0" d="M5865 2750.38c-381.68,146.62 -780.38,-56.51 -924.92,-427.08 -67.18,-172.1 -69.75,-365.7 -30.71,-544.17 49.77,-227.57 196.75,-379.64 389.94,-490.54 12.94,5.93 31.53,1.98 36.23,-16.02 11.13,-43.53 284.19,-45.69 324.45,-45.7 118.19,-0.26 230.08,39.07 333.16,93.51 189.77,100.06 325.25,278.87 385.49,481.97 119.28,401.8 -141.03,805.01 -513.64,948.03zm512.95 -1090.64c-94.22,-212.54 -291.79,-371.16 -508.17,-446.21 -122.83,-42.64 -254.54,-40.31 -382.02,-24.26 -44.99,5.66 -132.8,5.4 -176.44,39.64 -3.38,0.29 -6.94,1.13 -10.47,3.23 -227.96,123.08 -370.22,285.67 -439.32,537.91 -56.41,205.58 -26.19,437.87 57.81,630.73 177.42,407.56 674.6,555.41 1060.25,352.9 399.02,-209.72 584.02,-675.62 398.36,-1093.94z"/>
   <path class="fil0" d="M5951.14 2443.18c-236.18,169.18 -580.66,124.01 -733.58,-128.91 -67.74,-111.68 -85.8,-251.07 -91.14,-378.75 -7.98,-194.65 35.67,-349.7 191.16,-475.16 4.21,-3.43 6.42,-7.5 7.93,-11.7 242.3,-112.67 546.58,29.86 709.79,221.9 206.75,242.89 176.35,586.03 -84.16,772.62zm145.17 -773.42c-177.87,-253.68 -584.92,-416.47 -859.97,-226.82 -12.5,8.74 -12.44,22.26 -6.36,32.38 -99.9,102.03 -145.82,219.11 -151.34,375.33 -5.41,155.02 10.08,324.42 84.05,463.89 157.55,296.21 512.65,343.08 789.38,185.85 309.96,-176.01 335,-558.38 144.24,-830.63z"/>
   <path class="fil0" d="M5977.8 1954.93c-21.26,-67.93 -66.85,-139.84 -127.25,-179.23 -26.28,-17.17 -47.42,26.69 -21.31,43.69 45.57,29.74 95.15,114.56 105.25,166.2 13.01,65.77 -14.88,137.09 -42.11,195.46 -13.17,28.44 30.52,49.8 43.88,21.41 34.28,-73.78 66.91,-165.88 41.54,-247.53z"/>
   <path class="fil0" d="M4594.29 3410.74c-153.06,66.07 -346.71,24.77 -491.69,-42.04 -300.12,-138.46 -228.47,-530.06 -22.24,-716.97 6.03,-5.48 7.74,-11.76 6.88,-17.65 75.83,-37.79 174.1,-34.38 257,-27.56 148.33,11.77 253.06,99.9 333.22,217.74 129.45,190.32 163.01,480.33 -83.17,586.48zm54.5 -704.58c-148.09,-173.38 -550.09,-241.87 -686.25,-21.33 -5.78,9.52 -3.84,18.18 1.58,24.39 -147.22,202.81 -166.35,496.51 48.08,661.43 177.72,136.76 482.33,165.92 674.1,46.57 261.94,-162.72 116.63,-530.6 -37.51,-711.06z"/>
   <path class="fil0" d="M4458.2 3232.34c-131.16,89.36 -263.11,-4.19 -311.5,-132.42 -28.79,-75.49 -1.33,-174.4 49.68,-243.9 4.21,-1.08 8.23,-2.78 11.9,-6.52 100.27,-103.14 276.59,-27.8 346.18,75.87 75.83,112.99 1.52,240.24 -96.26,306.97zm122.04 -356.01c-65.89,-98.13 -207.25,-146.58 -318.84,-112.4 -6.9,-10.05 -20.29,-15.69 -33.33,-6.9 -126.82,86.02 -173.87,270.41 -106.81,406.68 79.23,161.42 247.34,188.84 388.77,92.11 130.44,-88.94 155.34,-252.33 70.21,-379.49z"/>
   <path class="fil0" d="M3426.53 4810.84c-11.34,27.67 -46.97,55.45 -67.39,77.22 -32.65,34.85 -57.79,75.52 -96.75,104.12 -25.29,18.66 1.97,59.01 27.44,40.31 42.16,-31.2 71.92,-73.54 106.06,-112.45 23.52,-26.75 60.68,-54.3 74.36,-87.57 11.94,-29.1 -31.75,-50.61 -43.72,-21.63z"/>
  </g>
 </g>
</svg>
